<svg width="50" height="50" viewBox="0 0 50 50" fill="none" xmlns="http://www.w3.org/2000/svg">
<rect x="49.5" y="49.5" width="49" height="49" rx="24.5" transform="rotate(-180 49.5 49.5)" stroke="black" stroke-opacity="0.2"/>
<path d="M32 25.5C32.2761 25.5 32.5 25.2761 32.5 25C32.5 24.7239 32.2761 24.5 32 24.5L32 25L32 25.5ZM17.6464 24.6464C17.4512 24.8417 17.4512 25.1583 17.6464 25.3536L20.8284 28.5355C21.0237 28.7308 21.3403 28.7308 21.5355 28.5355C21.7308 28.3403 21.7308 28.0237 21.5355 27.8284L18.7071 25L21.5355 22.1716C21.7308 21.9763 21.7308 21.6597 21.5355 21.4645C21.3403 21.2692 21.0237 21.2692 20.8284 21.4645L17.6464 24.6464ZM32 25L32 24.5L18 24.5L18 25L18 25.5L32 25.5L32 25Z" fill="black" fill-opacity="0.2"/>
</svg>
