<svg width="17" height="20" viewBox="0 0 17 20" fill="none" xmlns="http://www.w3.org/2000/svg">
<path d="M16.3355 9.16532C16.3878 9.21757 16.4293 9.2796 16.4576 9.34789C16.4859 9.41618 16.5005 9.48937 16.5005 9.56329C16.5005 9.63721 16.4859 9.71041 16.4576 9.7787C16.4293 9.84698 16.3878 9.90902 16.3355 9.96126L8.64237 17.6488C7.69269 18.5981 6.40479 19.1312 5.062 19.131C3.71921 19.1307 2.43152 18.597 1.48221 17.6474C0.532905 16.6977 -0.000263615 15.4098 9.77807e-08 14.067C0.000263811 12.7242 0.533938 11.4365 1.48362 10.4872L10.7902 1.0447C11.1209 0.713706 11.5135 0.451088 11.9457 0.271838C12.3779 0.0925886 12.8411 0.000218026 13.309 3.85498e-07C13.7769 -0.000217255 14.2402 0.0917224 14.6726 0.27057C15.1049 0.449418 15.4978 0.71167 15.8288 1.04236C16.1598 1.37304 16.4224 1.76568 16.6016 2.19786C16.7809 2.63004 16.8733 3.09329 16.8735 3.56117C16.8737 4.02904 16.7818 4.49238 16.6029 4.92473C16.4241 5.35707 16.1618 5.74996 15.8311 6.08095L6.52362 15.5197C6.13711 15.907 5.61259 16.1248 5.06545 16.1253C4.51832 16.1259 3.99338 15.909 3.60612 15.5225C3.21886 15.136 3.00101 14.6115 3.00048 14.0643C2.99995 13.5172 3.2168 12.9923 3.60331 12.605L11.4108 4.6672C11.5155 4.56078 11.6582 4.5003 11.8074 4.49907C11.9567 4.49784 12.1003 4.55596 12.2067 4.66064C12.3132 4.76531 12.3736 4.90798 12.3749 5.05725C12.3761 5.20651 12.318 5.35016 12.2133 5.45657L4.40581 13.3981C4.31852 13.485 4.24919 13.5882 4.20179 13.7018C4.15439 13.8155 4.12983 13.9374 4.12952 14.0605C4.12922 14.1836 4.15317 14.3056 4.20001 14.4195C4.24686 14.5334 4.31567 14.6369 4.40253 14.7242C4.48938 14.8115 4.59258 14.8808 4.70623 14.9282C4.81988 14.9757 4.94175 15.0002 5.06489 15.0005C5.18803 15.0008 5.31003 14.9769 5.42391 14.93C5.53779 14.8832 5.64133 14.8144 5.72862 14.7275L15.0324 5.28782C15.4899 4.83107 15.7472 4.21129 15.7477 3.56481C15.7482 2.91834 15.4919 2.29814 15.0352 1.84064C14.5784 1.38314 13.9586 1.12582 13.3122 1.12529C12.6657 1.12477 12.0455 1.38107 11.588 1.83782L2.2805 11.2766C1.54154 12.0147 1.12605 13.0161 1.12543 14.0605C1.12482 15.1049 1.53912 16.1068 2.27721 16.8458C3.0153 17.5848 4.01671 18.0002 5.06114 18.0009C6.10558 18.0015 7.10747 17.5872 7.84643 16.8491L15.5396 9.16157C15.592 9.10952 15.6543 9.06832 15.7227 9.04034C15.7911 9.01235 15.8644 8.99813 15.9383 8.99847C16.0122 8.99882 16.0854 9.01374 16.1535 9.04237C16.2217 9.071 16.2835 9.11278 16.3355 9.16532Z" fill="#919191"/>
</svg>
