<svg width="50" height="50" viewBox="0 0 50 50" fill="none" xmlns="http://www.w3.org/2000/svg">
<rect x="0.5" y="0.5" width="49" height="49" rx="24.5" stroke="black"/>
<path d="M18 24.5C17.7239 24.5 17.5 24.7239 17.5 25C17.5 25.2761 17.7239 25.5 18 25.5V25V24.5ZM32.3536 25.3536C32.5488 25.1583 32.5488 24.8417 32.3536 24.6464L29.1716 21.4645C28.9763 21.2692 28.6597 21.2692 28.4645 21.4645C28.2692 21.6597 28.2692 21.9763 28.4645 22.1716L31.2929 25L28.4645 27.8284C28.2692 28.0237 28.2692 28.3403 28.4645 28.5355C28.6597 28.7308 28.9763 28.7308 29.1716 28.5355L32.3536 25.3536ZM18 25V25.5H32V25V24.5H18V25Z" fill="black"/>
</svg>
