<svg width="32" height="31" viewBox="0 0 32 31" fill="none" xmlns="http://www.w3.org/2000/svg">
<path d="M31.0193 10.9338L30.9761 10.7433L20.4674 10.7216L17.994 13.8631L21.4832 15.5412L31.0193 10.9338ZM22.4774 0.0843842L22.3093 0L15.7342 8.25759L16.6011 12.1224L20.1528 10.4443L22.4774 0.0843842ZM3.00179 24.2858L3.10746 24.4135L12.6436 19.8279L13.5321 16.0282H9.55771L3.00179 24.2858ZM8.71241 0L8.54431 0.0843842L10.8905 10.4443L14.4014 12.1224L15.3116 8.25759L8.71241 0ZM18.3542 19.8279L27.9119 24.4135L27.9959 24.2858L21.44 16.0282H17.4849L18.3518 19.8279H18.3542ZM0.0432258 10.7409L0 10.9314L9.5361 15.5387L13.0254 13.8607L10.5519 10.7192L0.0432258 10.7409ZM15.4364 30.4H15.5853L17.9531 20.0617L15.5013 16.9829L13.0494 20.0617L15.4388 30.4H15.4364Z" fill="black"/>
</svg>
