<svg width="117" height="34" viewBox="0 0 117 34" fill="none" xmlns="http://www.w3.org/2000/svg">
<g>
<g clip-path="url(#clip0_5867_5755)">
<mask id="mask0_5867_5755"  maskUnits="userSpaceOnUse" x="0" y="4" width="95" height="26">
<path d="M95 4.5H0V29.5H95V4.5Z" fill="white"/>
</mask>
<g mask="url(#mask0_5867_5755)">
<path d="M36.3132 5.08789L28.1172 27.2431H32.5218L34.2227 22.6159H42.9246L44.6174 27.2431H48.9886L40.823 5.08789H36.3132ZM35.7152 18.5497L38.5828 10.7536L41.4342 18.5497H35.7152Z" fill="black"/>
<path d="M87.2045 11.3984C85.6631 11.3984 84.1568 11.8712 82.8755 12.757C81.5942 13.6427 80.5958 14.9017 80.0064 16.3746C79.4163 17.8476 79.2624 19.4684 79.5625 21.0321C79.8633 22.5957 80.6054 24.0321 81.6953 25.1594C82.7845 26.2868 84.1726 27.0546 85.6841 27.3656C87.1956 27.6766 88.7624 27.517 90.1861 26.9069C91.6092 26.2967 92.8263 25.2636 93.6822 23.9379C94.5387 22.6123 94.9953 21.0538 94.9953 19.4595C94.9953 17.3215 94.1744 15.2712 92.7138 13.7595C91.2525 12.2477 89.2705 11.3984 87.2045 11.3984ZM87.2045 23.3874C86.4535 23.3874 85.7197 23.1571 85.0959 22.7256C84.4715 22.2941 83.9851 21.6808 83.6977 20.9632C83.4102 20.2457 83.3352 19.4561 83.4821 18.6944C83.6283 17.9327 83.9895 17.233 84.5205 16.6838C85.0514 16.1346 85.7274 15.7606 86.4637 15.6091C87.2001 15.4576 87.9631 15.5353 88.6569 15.8326C89.35 16.1298 89.9432 16.6331 90.3604 17.2788C90.7769 17.9246 90.9994 18.6838 90.9994 19.4605C91.0007 19.9764 90.9028 20.4875 90.7126 20.9642C90.5219 21.441 90.2427 21.8742 89.8898 22.239C89.5375 22.6039 89.1185 22.8931 88.6575 23.0901C88.1971 23.2872 87.703 23.3882 87.2045 23.3874Z" fill="black"/>
<path d="M54.2374 21.5289L50.6797 11.6777H46.4785L52.2046 27.2428H56.3724L61.9962 11.6777H57.795L54.2374 21.5289Z" fill="black"/>
<path d="M75.2102 7.54102H71.2125V11.6773H68.875V15.3937H71.2125V22.0194C71.2125 25.7704 73.2117 27.3826 76.0235 27.3826C76.9773 27.3969 77.9235 27.2057 78.8023 26.8215V22.9658C78.3241 23.1482 77.8199 23.2448 77.3105 23.2516C76.0967 23.2516 75.2102 22.7606 75.2102 21.0783V15.3937H78.8023V11.6773H75.2102V7.54102Z" fill="black"/>
<path d="M65.2824 10.5564C66.8918 10.5564 68.1966 9.20655 68.1966 7.54139C68.1966 5.87624 66.8918 4.52637 65.2824 4.52637C63.673 4.52637 62.3682 5.87624 62.3682 7.54139C62.3682 9.20655 63.673 10.5564 65.2824 10.5564Z" fill="black"/>
<path d="M67.2818 11.6777H63.2842V27.2428H67.2818V11.6777Z" fill="black"/>
<path d="M7.81862 29.4514C12.1227 29.4514 15.6119 25.8414 15.6119 21.3883C15.6119 16.9351 12.1227 13.3252 7.81862 13.3252C3.51454 13.3252 0.0253906 16.9351 0.0253906 21.3883C0.0253906 25.8414 3.51454 29.4514 7.81862 29.4514Z" fill="#04E061"/>
<path d="M21.3381 28.4339C23.9389 28.4339 26.0472 26.2525 26.0472 23.5616C26.0472 20.8708 23.9389 18.6895 21.3381 18.6895C18.7373 18.6895 16.6289 20.8708 16.6289 23.5616C16.6289 26.2525 18.7373 28.4339 21.3381 28.4339Z" fill="#FF4053"/>
<path d="M9.30863 12.2742C10.9181 12.2742 12.2228 10.9243 12.2228 9.25917C12.2228 7.59402 10.9181 6.24414 9.30863 6.24414C7.69922 6.24414 6.39453 7.59402 6.39453 9.25917C6.39453 10.9243 7.69922 12.2742 9.30863 12.2742Z" fill="#965EEB"/>
<path d="M19.5081 17.6376C23.0074 17.6376 25.8443 14.7025 25.8443 11.082C25.8443 7.4614 23.0074 4.52637 19.5081 4.52637C16.0086 4.52637 13.1719 7.4614 13.1719 11.082C13.1719 14.7025 16.0086 17.6376 19.5081 17.6376Z" fill="#00AAFF"/>
</g>
</g>
</g>
<defs>
<clipPath id="clip0_5867_5755">
<rect width="95" height="25" fill="white" transform="translate(0 4.5)"/>
</clipPath>
</defs>
</svg>
