<svg width="70" height="34" viewBox="0 0 70 34" fill="none" xmlns="http://www.w3.org/2000/svg">
<g clip-path="url(#clip0_5867_5262)">
<mask id="mask0_5867_5262" maskUnits="userSpaceOnUse" x="0" y="0" width="70" height="34">
<path d="M69.872 0H0.00195312V33.9555H69.872V0Z" fill="white"/>
</mask>
<g mask="url(#mask0_5867_5262)">
<mask id="mask1_5867_5262" maskUnits="userSpaceOnUse" x="-1" y="0" width="71" height="34">
<path d="M69.867 0H-0.00292969V33.9555H69.867V0Z" fill="white"/>
</mask>
<g mask="url(#mask1_5867_5262)">
<path fill-rule="evenodd" clip-rule="evenodd" d="M0 33.8708H69.6681V26.1313H0V33.8708Z" fill="#FF5028"/>
<path fill-rule="evenodd" clip-rule="evenodd" d="M5.12255 9.44413H1.52408V6.00007H5.12255C6.28084 6.00007 6.962 6.59735 6.962 7.7043C6.962 8.62479 6.28084 9.44413 5.12255 9.44413ZM1.52408 1.58517H5.0123C5.84092 1.58517 6.51503 2.10401 6.51503 3.10842C6.51503 4.00315 5.84092 4.59669 5.0123 4.59669H1.52408V1.58517ZM7.01256 5.17088C7.72671 4.62385 8.03883 3.88328 8.03883 3.10842C8.03883 1.2918 6.68111 0.182129 5.0123 0.182129H0.000976562V10.8475H5.12255C7.21725 10.8475 8.48579 9.43767 8.48579 7.7043C8.48579 6.69581 7.94229 5.7634 7.01256 5.17088Z" fill="#1E1E1E"/>
<path fill-rule="evenodd" clip-rule="evenodd" d="M55.6307 18.269H53.1191V16.036H55.6307C56.2047 16.036 56.6717 16.5043 56.6717 17.1524C56.6717 17.8009 56.2047 18.269 55.6307 18.269ZM58.1954 17.1524C58.1954 15.6914 57.0449 14.6724 55.6307 14.6724H51.5957V22.3144H53.1191V19.6325H55.1127L56.576 22.3144H58.3085L56.6857 19.4125C57.5962 19.0136 58.1954 18.1277 58.1954 17.1524Z" fill="#1E1E1E"/>
<path fill-rule="evenodd" clip-rule="evenodd" d="M24.5723 16.1525H27.2663V22.3213H28.7901V16.1525H31.4845V14.6792H24.5723V16.1525Z" fill="#1E1E1E"/>
<path fill-rule="evenodd" clip-rule="evenodd" d="M33.8428 22.3144H35.3663V19.6325H38.9183V18.2693H35.3663V16.036H39.5085V14.6724H33.8428V22.3144Z" fill="#1E1E1E"/>
<path fill-rule="evenodd" clip-rule="evenodd" d="M45.2538 21.0298C43.7605 21.0298 42.7263 19.8499 42.7263 18.489C42.7263 17.1277 43.7605 15.9478 45.2538 15.9478C46.7471 15.9478 47.7815 17.1277 47.7815 18.489C47.7815 19.8499 46.7471 21.0298 45.2538 21.0298ZM45.2538 14.5098C42.9853 14.5098 41.1396 16.2948 41.1396 18.489C41.1396 20.6825 42.9853 22.4675 45.2538 22.4675C47.5225 22.4675 49.3682 20.6825 49.3682 18.489C49.3682 16.2948 47.5225 14.5098 45.2538 14.5098Z" fill="#1E1E1E"/>
<path fill-rule="evenodd" clip-rule="evenodd" d="M10.0244 14.6792H8.50098V22.3213H13.7029L14.1569 20.8482H10.0244V14.6792Z" fill="#1E1E1E"/>
<path fill-rule="evenodd" clip-rule="evenodd" d="M65.2992 20.6054L62.2849 14.6724H60.9336V22.3148H62.4566V17.9206L64.6894 22.3148H65.9086L68.1418 17.9206V22.3148H69.6655V14.6724H68.3135L65.2992 20.6054Z" fill="#1E1E1E"/>
<path fill-rule="evenodd" clip-rule="evenodd" d="M3.50348 18.8691H1.52115V16.0487H3.50348C4.24466 16.0487 4.84821 16.6484 4.84821 17.4588C4.84821 18.269 4.24466 18.8691 3.50348 18.8691ZM3.50348 14.6851H-0.00195312V22.3274H1.52115V20.2327H3.50348C5.08451 20.2327 6.37131 19.0816 6.37131 17.4588C6.37131 15.8361 5.08451 14.6851 3.50348 14.6851Z" fill="#1E1E1E"/>
<path fill-rule="evenodd" clip-rule="evenodd" d="M18.1706 19.4778L19.2255 16.036H19.9153L20.9702 19.4778H18.1706ZM18.0671 14.6724L15.7119 22.3144H17.3014L17.7529 20.8414H21.3882L21.8394 22.3144H23.4289L21.0741 14.6724H18.0671Z" fill="#1E1E1E"/>
<path fill-rule="evenodd" clip-rule="evenodd" d="M48.2387 8.15251L43.0384 0.182129H41.5908V10.8476H43.1142V2.87719L48.3143 10.8476H49.762V0.182129H48.2387V8.15251Z" fill="#1E1E1E"/>
<path fill-rule="evenodd" clip-rule="evenodd" d="M28.2008 9.38057H23.3421V0.188477H21.8184V10.8542H27.7468L28.2008 9.38057Z" fill="#1E1E1E"/>
<path fill-rule="evenodd" clip-rule="evenodd" d="M69.6675 1.59152V0.188477H63.209V10.8539H69.6675V9.45049H64.7322V6.00641H68.8329V4.60304H64.7322V1.59152H69.6675Z" fill="#1E1E1E"/>
<path fill-rule="evenodd" clip-rule="evenodd" d="M14.4114 1.59836H15.1014L16.6466 6.71511H12.8666L14.4114 1.59836ZM12.4428 8.11884H17.0705L17.8984 10.8607H19.5239L16.2368 0.195312H13.2759L9.98926 10.8607H11.6149L12.4428 8.11884Z" fill="#1E1E1E"/>
<path fill-rule="evenodd" clip-rule="evenodd" d="M32.5189 6.71545L34.0636 1.59869H34.7535L36.2988 6.71545H32.5189ZM32.9282 0.195312L29.6416 10.8611H31.2671L32.095 8.11882H36.7226L37.5502 10.8611H39.1761L35.8891 0.195312H32.9282Z" fill="#1E1E1E"/>
<path fill-rule="evenodd" clip-rule="evenodd" d="M59.3736 7.49533C59.0906 9.14625 57.996 9.61042 56.7366 9.61042C55.0937 9.61042 54.0038 8.56868 54.0038 6.79245V4.25598C54.0038 2.47977 55.0937 1.43802 56.7366 1.43802C57.996 1.43802 59.0906 1.90252 59.3736 3.55344H60.897C60.6636 1.06688 58.6071 0 56.7366 0C54.2536 0 52.4805 1.76161 52.4805 4.25598V6.79245C52.4805 9.28717 54.2536 11.0488 56.7366 11.0488C58.6071 11.0488 60.6636 9.98191 60.897 7.49533H59.3736Z" fill="#1E1E1E"/>
</g>
</g>
</g>
<defs>
<clipPath id="clip0_5867_5262">
<rect width="69.87" height="34" fill="white"/>
</clipPath>
</defs>
</svg>
