<svg width="186" height="23" viewBox="0 0 186 23" fill="none" xmlns="http://www.w3.org/2000/svg">
<g clip-path="url(#clip0_5867_5418)">
<path d="M9.7026 22.5271C6.55447 22.5271 4.13947 21.661 2.50072 19.8864C0.861972 18.1118 0.021753 15.6242 0.021753 12.3992C0.000190534 10.9279 0.258941 9.4782 0.776441 8.09317C1.22931 6.88976 1.93521 5.79758 2.84644 4.89042C3.73345 4.00981 4.79986 3.33074 5.973 2.89948C7.24519 2.44523 8.58206 2.20732 9.91894 2.22889C10.6736 2.22889 11.4283 2.29357 12.1614 2.40139C12.7652 2.50992 13.3474 2.66157 13.9296 2.83479C14.3608 2.96417 14.7705 3.13739 15.1802 3.33217C15.4389 3.43998 15.6761 3.57007 15.9133 3.72173L14.6627 7.24935C13.9952 6.91057 13.2942 6.64223 12.5711 6.44867C11.6871 6.21004 10.7814 6.08067 9.87581 6.10223C9.20738 6.10223 8.51738 6.21004 7.89206 6.44867C7.24424 6.6643 6.65929 7.03576 6.18863 7.53039C5.64956 8.0716 5.26144 8.7422 5.00269 9.45663C4.67925 10.3651 4.52832 11.339 4.54988 12.3129C4.54988 13.1568 4.65769 14.0006 4.85175 14.8228C5.02462 15.5523 5.34775 16.2378 5.8005 16.8353C6.25814 17.4159 6.85016 17.8765 7.5255 18.1772C8.34488 18.5237 9.20738 18.6746 10.0914 18.653C10.6521 18.653 11.2343 18.6099 11.7949 18.5452C12.3124 18.4805 12.7652 18.372 13.1533 18.285C13.5199 18.1988 13.8649 18.0694 14.1883 17.9178L14.9861 17.5713L16.1936 21.0767C15.374 21.5323 14.4963 21.8744 13.5846 22.0937C12.3141 22.4 11.0101 22.5453 9.70331 22.5264M24.5369 6.9676C25.5719 6.9676 26.6069 7.16239 27.5988 7.48726C28.3319 7.74673 28.9788 8.20098 29.5178 8.76376C30.0138 9.32654 30.3372 9.99714 30.5097 10.7116C30.7038 11.5338 30.79 12.3776 30.7469 13.2214L30.4666 21.9212L27.9653 22.31C26.6716 22.4399 25.3778 22.4833 24.0841 22.4401C23.2216 22.4401 22.3591 22.3108 21.5181 22.1153C20.8092 21.9405 20.1373 21.6401 19.5344 21.2283C19.0032 20.8175 18.5811 20.2824 18.3053 19.6701C18.006 18.9442 17.8733 18.1605 17.9172 17.3765C17.9388 16.619 18.1328 15.8614 18.5209 15.2131C18.8644 14.6335 19.3555 14.1553 19.9441 13.8274C20.5694 13.4598 21.2378 13.2219 21.9494 13.1136C22.7256 12.9843 23.5019 12.9189 24.2781 12.962C24.7525 12.962 25.2484 13.0051 25.7228 13.0698C26.0678 13.1129 26.4128 13.1783 26.7363 13.2869V12.8973C26.7572 12.5829 26.7145 12.2675 26.6108 11.97C26.5071 11.6725 26.3444 11.399 26.1325 11.1658C25.7228 10.7116 24.9897 10.4737 23.9116 10.4514C23.2216 10.4083 22.51 10.4514 21.82 10.5384C21.1947 10.5815 20.5909 10.7109 20.0088 10.9064L19.6206 7.53039C19.8578 7.4657 20.1597 7.37945 20.5263 7.31404L21.7122 7.11926L23.0922 7.01145C23.5666 6.96832 24.0409 6.9676 24.5369 6.9676ZM24.4722 19.2165H25.6581C25.96 19.2165 26.2403 19.195 26.5422 19.1519L26.65 15.9922L25.8953 15.8413L24.9681 15.7543L23.8684 15.7974C23.545 15.819 23.2431 15.9053 22.9413 16.0354C22.6825 16.1432 22.4884 16.3387 22.3159 16.555C22.165 16.7929 22.0788 17.0962 22.0788 17.3773C22.0572 18.0479 22.2513 18.5028 22.6825 18.7623C23.1138 19.0218 23.7175 19.1734 24.4722 19.2165ZM43.3379 11.0796C42.9714 10.9718 42.5186 10.8848 42.0226 10.7763C41.4836 10.6684 40.9445 10.6253 40.4054 10.6253L39.4567 10.69C39.1764 10.7331 38.9176 10.7763 38.6373 10.8409V22.1375H34.4757V8.15785C35.3382 7.85526 36.2223 7.59507 37.1064 7.40029C38.2276 7.1631 39.3704 7.05457 40.5133 7.05457L41.3326 7.0977L42.2814 7.20551L43.2301 7.37873C43.5104 7.44342 43.7692 7.5081 44.0279 7.61735L43.3379 11.0796Z" fill="#2DAB66"/>
<path d="M52.3717 2.44493C55.2611 2.44493 57.482 2.96386 59.0345 3.98089C60.587 4.99793 61.3632 6.68627 61.3632 9.00136C61.3632 11.3165 60.587 13.0264 59.0129 14.0657C57.4389 15.104 55.1964 15.6232 52.2854 15.6232H50.927V22.1372H46.5498V2.96386C47.5417 2.7698 48.5551 2.63971 49.5686 2.5743C50.6467 2.48805 51.5739 2.44493 52.3717 2.44493ZM52.652 6.18818H51.7248L50.927 6.25286V11.88H52.2854C53.7948 11.88 54.9376 11.6852 55.7139 11.2741C56.4901 10.8629 56.8567 10.0838 56.8567 8.95824C56.8775 8.49202 56.7733 8.0287 56.5548 7.61633C56.3554 7.2646 56.0649 6.97311 55.7139 6.77252C55.3085 6.53851 54.862 6.38431 54.3986 6.31827C53.8204 6.23216 53.2366 6.18891 52.652 6.18889M73.1572 11.0793C72.7906 10.9715 72.3594 10.8845 71.8419 10.776C71.3028 10.6681 70.7638 10.625 70.2247 10.625L69.2975 10.6897C69.0172 10.7328 68.7369 10.776 68.4566 10.8406V22.1372H64.295V8.15755C65.0497 7.89808 65.9338 7.63861 66.9472 7.39999C68.0603 7.16601 69.1951 7.05013 70.3325 7.05427L71.1519 7.09739L72.1007 7.20521L73.0494 7.37843C73.3297 7.44311 73.61 7.5078 73.8688 7.61705L73.1572 11.0793ZM80.6602 3.09396C80.6602 3.87308 80.4231 4.47899 79.9271 4.91239C79.4416 5.33125 78.8218 5.56168 78.1806 5.56168C77.5393 5.56168 76.9195 5.33125 76.434 4.91239C76.1777 4.68701 75.9765 4.40594 75.8457 4.09074C75.7148 3.77553 75.6579 3.43456 75.6793 3.09396C75.67 2.75491 75.7324 2.41772 75.8624 2.10447C75.9925 1.79122 76.1873 1.50898 76.434 1.27624C76.9195 0.857385 77.5393 0.626953 78.1806 0.626953C78.8218 0.626953 79.4416 0.857385 79.9271 1.27624C80.4231 1.75205 80.7034 2.4018 80.6602 3.09396ZM80.2721 22.1372H76.1106V7.35686H80.2721V22.1372ZM83.4849 14.7578C83.4849 13.7192 83.6574 12.7022 84.0024 11.7283C84.3311 10.8101 84.8453 9.9693 85.5129 9.25831C86.1805 8.54731 86.9872 7.9813 87.883 7.59549C88.8964 7.16208 89.9745 6.94574 91.0742 6.9673C91.8073 6.9673 92.5189 7.03199 93.2305 7.18364C93.8773 7.3353 94.5242 7.53008 95.128 7.78955L94.2655 11.1224C93.8342 10.9715 93.403 10.8416 92.9717 10.7328C92.4542 10.625 91.9367 10.5603 91.4192 10.5603C90.1902 10.5603 89.263 10.9492 88.6592 11.7283C88.0555 12.5074 87.7543 13.5029 87.7543 14.7578C87.7543 16.0128 88.0339 17.1168 88.5945 17.8521C89.1552 18.5881 90.1686 18.9345 91.5701 18.9345C92.1092 18.9345 92.6698 18.8914 93.2089 18.8044C93.748 18.6966 94.287 18.5449 94.8045 18.3501L95.3867 21.7692C94.8045 22.0064 94.2008 22.1804 93.5755 22.3097C92.7776 22.4614 91.9798 22.5268 91.1605 22.5268C89.9745 22.5484 88.7886 22.3536 87.6896 21.9209C86.782 21.5525 85.9653 20.9911 85.2962 20.2757C84.6683 19.5675 84.1979 18.7341 83.9162 17.8305C83.6325 16.8308 83.4874 15.797 83.4849 14.7578ZM96.7883 14.8664C96.7667 13.6977 96.9608 12.529 97.392 11.425C97.7586 10.5165 98.2761 9.67268 98.9654 8.95824C99.6088 8.31485 100.38 7.81362 101.229 7.48696C102.056 7.14068 102.943 6.96396 103.838 6.9673C105.93 6.9673 107.569 7.61633 108.798 8.89355C110.027 10.17 110.609 12.0747 110.609 14.5631C110.609 14.801 110.588 15.0604 110.588 15.3637C110.588 15.6663 110.544 15.905 110.523 16.1213H101.057C101.098 16.5307 101.227 16.9264 101.436 17.2813C101.644 17.6361 101.927 17.9416 102.264 18.1769C102.976 18.6743 103.925 18.9345 105.132 18.9345C105.887 18.9345 106.642 18.8698 107.375 18.7181C108 18.6099 108.604 18.4366 109.186 18.1985L109.747 21.6176C109.445 21.747 109.143 21.8552 108.841 21.9425C108.431 22.0718 108.022 22.1581 107.59 22.2451C107.116 22.3313 106.62 22.396 106.124 22.4398C105.607 22.5045 105.089 22.5261 104.572 22.5261C103.386 22.5476 102.221 22.3536 101.1 21.9425C100.193 21.6032 99.3745 21.0629 98.7062 20.362C98.0378 19.6612 97.5369 18.818 97.2411 17.8959C96.9407 16.9139 96.788 15.8933 96.7883 14.8664ZM106.577 13.2636C106.551 12.9128 106.494 12.5652 106.404 12.225C106.297 11.9008 106.124 11.5975 105.93 11.3165C105.714 11.057 105.434 10.8406 105.111 10.689C104.731 10.4966 104.307 10.4069 103.882 10.4288C103.472 10.4288 103.062 10.4935 102.696 10.6674C102.372 10.7968 102.092 11.0131 101.855 11.2949C101.618 11.5546 101.445 11.8574 101.337 12.2034C101.208 12.5498 101.122 12.8963 101.057 13.2643L106.577 13.2636Z" fill="black"/>
<path d="M145.883 15.2553C144.288 16.0776 142.433 15.9051 142.088 15.0613C141.743 14.2167 142.908 13.5246 143.792 12.6369C144.676 11.75 146.013 11.3173 146.983 12.118C147.953 12.9187 147.889 14.2167 145.883 15.2553ZM139.932 17.6358C139.177 18.4365 138.423 18.415 136.892 18.4365C136.159 18.4581 130.251 18.4365 129.497 18.415C128.03 18.3503 127.232 18.3503 126.478 17.5711C125.723 16.792 126.327 16.143 127.405 16.143L139.026 16.2077C140.105 16.2292 140.687 16.8567 139.932 17.6358ZM124.3 15.0605C123.977 15.9051 122.101 16.0776 120.527 15.2553C118.5 14.2167 118.587 12.7886 119.406 12.118C120.225 11.4474 121.735 11.7931 122.597 12.6369C123.46 13.4815 124.602 14.2814 124.3 15.0605ZM125.572 4.19736C127.103 3.28886 129.432 2.94242 133.27 2.94242C137.107 2.94242 139.997 3.41895 141.614 4.41442C143.231 5.40989 144.094 7.18377 144.201 8.97992C142.433 9.58583 125.874 9.62895 122.489 8.97992C123.093 6.94586 123.891 5.19283 125.572 4.19736ZM150.583 14.2383C150.326 12.9659 149.828 11.7542 149.117 10.6683C148.837 10.2349 148.513 9.8453 148.147 9.47802C149.268 9.34792 149.527 8.46098 149.591 7.74655C149.656 7.03211 148.599 6.98898 147.846 7.03283C147.242 7.05439 146.681 7.29158 146.25 7.70342C145.84 5.97195 145.021 3.98102 142.886 2.68295C141.781 2.03012 140.569 1.57596 139.307 1.34105C138.638 1.21167 137.905 1.10386 137.086 1.01689C136.266 0.930641 134.693 0.865234 133.27 0.865234C131.847 0.865234 130.726 0.908359 129.647 1.01617C128.914 1.08158 128.203 1.21167 127.491 1.36261C126.348 1.57895 125.249 1.9908 124.257 2.57442C122.446 3.67842 121.541 5.69092 120.7 7.50864C120.309 7.22503 119.845 7.05986 119.363 7.03283C118.587 6.9897 117.616 7.03283 117.595 7.74655C117.573 8.46098 117.552 9.21783 118.544 9.43417C118.199 9.80217 117.875 10.2133 117.573 10.6244C116.772 11.7307 116.281 13.0309 116.15 14.3907C116.097 15.0434 116.181 15.6999 116.397 16.3184C116.612 16.9368 116.954 17.5035 117.401 17.9823C117.444 19.2803 117.465 20.9471 117.487 21.5746C117.552 22.721 118.155 22.6994 120.29 22.6563C121.627 22.6347 123.158 22.9596 123.179 21.3367C123.201 20.9471 123.179 20.536 123.158 20.1464C128.893 21.1635 138.013 21.3144 143.792 20.2327C143.77 20.536 143.77 20.8817 143.77 21.3367C143.813 22.9596 145.323 22.6347 146.681 22.6563C148.794 22.6994 149.419 22.721 149.462 21.5746C149.484 20.9687 149.505 19.3457 149.548 18.047C149.987 17.5256 150.307 16.9147 150.486 16.2569C150.665 15.5991 150.698 14.9102 150.583 14.2383Z" fill="#2DAB66"/>
</g>
<defs>
<clipPath id="clip0_5867_5418">
<rect width="185.769" height="23" fill="white"/>
</clipPath>
</defs>
</svg>
