<svg width="109" height="40" viewBox="0 0 109 40" fill="none" xmlns="http://www.w3.org/2000/svg">
<g clip-path="url(#clip0_5867_5581)">
<mask id="mask0_5867_5581" maskUnits="userSpaceOnUse" x="0" y="0" width="109" height="40">
<path d="M109 0H0V40H109V0Z" fill="white"/>
</mask>
<g mask="url(#mask0_5867_5581)">
<path d="M1.3977 0.311607L2.83309 1.51996V6.96616H10.5923L11.6475 8.30953L10.5889 9.58711H2.83309V14.7944L1.3977 15.9993L0 14.7944V1.51649L1.3977 0.311607ZM5.59422 14.0362H11.5105L12.5005 15.3103L11.4454 16.6572H5.59422L4.63844 15.4142L5.59422 14.0362ZM5.79977 0H11.4419L12.4971 1.34338L11.4419 2.62096H5.86828L4.74122 1.38146L5.79977 0ZM37.2446 2.58634L38.5086 3.96434L37.2446 5.3458H18.1393L16.9094 3.96434L18.1393 2.58634H37.2446ZM15.8852 8.30953L17.0773 7.2743L18.2729 8.30953V9.82951C18.2729 12.3812 18.9546 14.4828 21.9932 14.4828H22.6064C25.3367 14.4828 26.8372 12.6201 26.8372 9.72213V8.27491L27.9985 7.23968L29.1941 8.24028V9.82605C29.1941 12.4124 29.9443 14.3444 32.8802 14.3444H33.3907C36.258 14.3444 36.7684 12.1354 36.8026 9.72213V8.17104L37.964 7.20506L39.1904 8.20566V9.7568C39.1561 13.1013 38.2688 16.9307 33.4934 16.9307H32.983C30.1499 16.9307 28.6151 15.6531 28.0019 14.0674C27.286 15.6877 25.3744 17.1038 22.7811 17.1038H22.1645C17.252 17.1038 15.9228 14.1054 15.8886 9.89529V8.30953H15.8852ZM25.6451 33.2762L24.9633 31.4135L26.7379 30.8976L32.983 33.7575V27.8612L34.2471 26.7913L35.542 27.8612V35.0004L37.8612 36.0703L38.5086 37.7945L36.6999 38.4489L25.6451 33.2762ZM36.7684 20.6873L38.4744 21.4802L37.9297 23.239L22.5721 30.4475L20.7291 29.7239L21.4793 27.9304L36.7684 20.6873ZM14.6107 30.5167L16.1113 31.7597C15.9742 36.1396 12.2539 38.4489 7.85521 38.4489H7.40986C5.22425 38.4489 2.66865 37.6214 1.03115 36.0356L1.19901 34.2768L2.80225 34.0691C3.99783 35.1043 5.66959 35.8279 7.23858 35.8279H7.71818C10.6883 35.8279 12.9733 34.5884 13.2131 31.6558L14.6107 30.5167ZM13.2097 27.6534C13.0726 24.617 10.8219 23.4121 7.71476 23.4121H7.23515C5.39211 23.4121 3.9944 24.1357 2.79882 25.1709L1.19901 24.9632L1.02772 23.2044C2.66522 21.584 4.95018 20.8258 7.34135 20.8258H7.81752C12.2539 20.8258 15.9742 23.104 16.1078 27.5495L14.6073 28.7579L13.2097 27.6534Z" fill="black"/>
<path d="M53.5027 5.23491H49.9467C50.0256 5.9343 50.5086 6.45017 51.2177 6.45017C51.6493 6.45017 52.0467 6.27706 52.2797 5.92391L53.4102 5.95507C53.0094 6.85527 52.1803 7.32961 51.2177 7.32961C49.8748 7.32961 48.8848 6.31861 48.8848 4.9233C48.8848 3.528 49.8543 2.52393 51.1869 2.52393C52.3996 2.52393 53.4992 3.34449 53.4992 5.22452V5.23491H53.5027ZM49.9467 4.49744H52.379C52.3277 3.91231 51.8583 3.40335 51.1971 3.40335C50.5291 3.40335 50.0666 3.84999 49.9467 4.49744Z" fill="black"/>
<path d="M57.1756 3.87769C56.8365 3.5453 56.3363 3.38257 55.9938 3.38257C55.6032 3.38257 55.4045 3.59377 55.4045 3.80844C55.4045 4.06119 55.5142 4.18237 55.8259 4.29316L56.607 4.56668C57.4463 4.86098 57.7991 5.32493 57.7991 5.89274C57.7991 6.61983 57.2475 7.32961 56.1171 7.32961C55.3771 7.32961 54.644 7.02492 54.2158 6.6129L54.805 5.83389C55.1442 6.17665 55.6751 6.4294 56.0965 6.4294C56.4973 6.4294 56.7576 6.25629 56.7576 5.98277C56.7576 5.68847 56.6172 5.56729 56.1171 5.39764L55.3668 5.1345C54.7365 4.91291 54.3871 4.43512 54.3871 3.87076C54.3871 3.20254 54.9591 2.52393 56.0382 2.52393C56.5693 2.52393 57.2784 2.73513 57.7511 3.18177L57.1756 3.87769Z" fill="black"/>
<path d="M61.0327 6.44677C61.5535 6.44677 61.9543 6.19402 62.1838 5.77853L63.0437 6.22517C62.684 6.90379 61.8926 7.32619 61.0327 7.32619C59.6899 7.32619 58.6416 6.32558 58.6416 4.92681C58.6416 3.52111 59.6933 2.52051 61.0327 2.52051C61.8926 2.52051 62.684 2.94637 63.0437 3.62152L62.1838 4.06816C61.9543 3.65269 61.5535 3.39994 61.0327 3.39994C60.2106 3.39994 59.6522 4.05777 59.6522 4.92681C59.6522 5.79585 60.2106 6.44677 61.0327 6.44677Z" fill="black"/>
<path d="M66.1788 2.52393C67.5114 2.52393 68.5905 3.52453 68.5905 4.9233C68.5905 6.31861 67.508 7.32961 66.1788 7.32961C64.8462 7.32961 63.7773 6.31861 63.7773 4.9233C63.7773 3.52453 64.8462 2.52393 66.1788 2.52393ZM66.1788 3.40335C65.3566 3.40335 64.788 4.05081 64.788 4.91984C64.788 5.78888 65.36 6.44672 66.1788 6.44672C67.0009 6.44672 67.5697 5.78888 67.5697 4.91984C67.5697 4.05081 67.0009 3.40335 66.1788 3.40335Z" fill="black"/>
<path d="M70.762 0.124512H69.7725V7.20492H70.762V0.124512Z" fill="black"/>
<path d="M74.8187 4.14082C74.8187 3.65609 74.459 3.40335 73.8766 3.40335C73.3867 3.40335 72.9448 3.61455 72.6057 3.88808L72.1363 3.14022C72.5166 2.80784 73.1572 2.52393 73.9486 2.52393C75.1407 2.52393 75.819 3.19215 75.819 4.1616V7.20842H74.8187V6.73409C74.5583 7.15995 73.9965 7.32961 73.5272 7.32961C72.496 7.32961 71.8965 6.73409 71.8965 5.89274C71.8965 5.00294 72.5166 4.49744 73.5272 4.49744H74.4967C74.7262 4.49744 74.8187 4.39703 74.8187 4.21353V4.14082ZM74.8187 5.5396V5.14489C74.7296 5.21414 74.5686 5.24529 74.3391 5.24529H73.7396C73.2086 5.24529 72.938 5.47727 72.938 5.86159C72.938 6.21474 73.1983 6.5402 73.7396 6.5402C74.298 6.5402 74.8187 6.2459 74.8187 5.5396Z" fill="black"/>
<path d="M50.1804 17.5507H49.1904V10.4702H50.1804V13.6659C50.4202 13.2089 51.0506 12.8661 51.7118 12.8661C53.0238 12.8661 53.9727 13.8667 53.9727 15.262C53.9727 16.6573 53.0032 17.6718 51.6912 17.6718C51.0403 17.6718 50.4305 17.3499 50.1804 16.8928V17.5507ZM50.1496 15.2655C50.1496 16.1346 50.7217 16.8027 51.5507 16.8027C52.3729 16.8027 52.9519 16.1346 52.9519 15.2655C52.9519 14.3964 52.3729 13.7387 51.5507 13.7387C50.7183 13.7387 50.1496 14.3964 50.1496 15.2655Z" fill="black"/>
<path d="M57.7065 13.8807H57.1858C56.5452 13.8807 56.1238 14.2546 56.1238 15.2863V17.5507H55.1338V12.9874H56.1033V13.7144C56.2746 13.209 56.7233 12.9043 57.3537 12.9043C57.4633 12.9043 57.5832 12.9147 57.7031 12.9354V13.8807H57.7065Z" fill="black"/>
<path d="M59.9301 17.5505H58.9297V13.8181H58.248V12.9872H59.9301V17.5505ZM59.3716 10.6328C59.7622 10.6328 60.0808 10.9583 60.0808 11.353C60.0808 11.7477 59.7622 12.0628 59.3716 12.0628C58.9812 12.0628 58.6694 11.7477 58.6694 11.353C58.6694 10.9549 58.9812 10.6328 59.3716 10.6328Z" fill="black"/>
<path d="M62.6637 11.1484V12.9904H63.7256V13.8213H62.6637V16.38C62.6637 16.6951 62.8932 16.7539 63.1227 16.7539C63.4721 16.7539 63.7325 16.7123 63.7325 16.7123V17.5538C63.7325 17.5538 63.2426 17.6057 62.8726 17.6057C62.3313 17.6057 61.6599 17.4948 61.6599 16.6051V13.8213H60.9199V12.9904H61.6633V11.1484H62.6637Z" fill="black"/>
<path d="M67.4084 14.4865C67.4084 14.0018 67.0487 13.7491 66.4664 13.7491C65.9765 13.7491 65.5346 13.9603 65.1954 14.2338L64.7261 13.4859C65.1063 13.1535 65.747 12.8696 66.5383 12.8696C67.7305 12.8696 68.4087 13.5379 68.4087 14.5073V17.5541H67.4084V17.0797C67.1481 17.5056 66.5863 17.6753 66.1169 17.6753C65.0858 17.6753 64.4863 17.0797 64.4863 16.2384C64.4863 15.3486 65.1063 14.8431 66.1169 14.8431H67.0864C67.3159 14.8431 67.4084 14.7427 67.4084 14.5592V14.4865ZM65.997 10.4702H67.1789L68.1312 12.1494H67.1104L66.5897 11.2077L66.0689 12.1494H65.0584L65.997 10.4702ZM67.4084 15.8818V15.4871C67.3194 15.5563 67.1583 15.5875 66.9288 15.5875H66.3293C65.7984 15.5875 65.5277 15.8195 65.5277 16.2038C65.5277 16.557 65.7881 16.8824 66.3293 16.8824C66.8878 16.8859 67.4084 16.5915 67.4084 15.8818Z" fill="black"/>
<path d="M70.7922 13.2501C70.7922 13.3816 70.7922 13.4613 70.782 13.5547C71.1622 13.1081 71.683 12.8657 72.255 12.8657C73.317 12.8657 73.9371 13.534 73.9371 14.5761V17.5503H72.9368V14.7181C72.9368 14.0706 72.5462 13.7659 72.0461 13.7659C71.6145 13.7659 71.1965 13.9875 70.8162 14.4342V17.5503H69.8262V12.9869H70.7991V13.2501H70.7922Z" fill="black"/>
<path d="M76.5522 17.5505H75.5518V13.8181H74.8701V12.9872H76.5522V17.5505ZM75.9903 10.6328C76.3808 10.6328 76.6994 10.9583 76.6994 11.353C76.6994 11.7477 76.3808 12.0628 75.9903 12.0628C75.5997 12.0628 75.288 11.7477 75.288 11.353C75.2914 10.9549 75.5997 10.6328 75.9903 10.6328Z" fill="black"/>
<path d="M80.0972 16.792C80.6179 16.792 81.0188 16.5392 81.2483 16.1238L82.1082 16.5704C81.7485 17.249 80.9571 17.6714 80.0972 17.6714C78.7543 17.6714 77.7061 16.6708 77.7061 15.272C77.7061 13.8663 78.7577 12.8657 80.0972 12.8657C80.9571 12.8657 81.7485 13.2916 82.1082 13.9668L81.2483 14.4134C81.0188 13.9979 80.6179 13.7452 80.0972 13.7452C79.275 13.7452 78.7167 14.403 78.7167 15.272C78.7167 16.1411 79.275 16.792 80.0972 16.792Z" fill="black"/>
<path d="M85.763 14.486C85.763 14.0013 85.4033 13.7486 84.8209 13.7486C84.331 13.7486 83.8891 13.9598 83.5499 14.2333L83.0806 13.4855C83.4609 13.1531 84.1015 12.8691 84.8928 12.8691C86.085 12.8691 86.7633 13.5374 86.7633 14.5068V17.5537H85.763V17.0794C85.5026 17.5052 84.9408 17.6748 84.4715 17.6748C83.4403 17.6748 82.8408 17.0794 82.8408 16.238C82.8408 15.3482 83.4609 14.8427 84.4715 14.8427H85.441C85.6705 14.8427 85.763 14.7423 85.763 14.5587V14.486ZM85.763 15.8814V15.4867C85.6739 15.5559 85.5129 15.5871 85.2834 15.5871H84.6839C84.1529 15.5871 83.8822 15.819 83.8822 16.2034C83.8822 16.5565 84.1426 16.8819 84.6839 16.8819C85.2422 16.8854 85.763 16.5912 85.763 15.8814Z" fill="black"/>
<path d="M94.0129 16.8824C93.773 17.3395 93.1629 17.6719 92.5019 17.6719C91.1904 17.6719 90.2305 16.6608 90.2305 15.2621C90.2305 13.8668 91.1728 12.8662 92.4817 12.8662C93.1532 12.8662 93.773 13.2089 94.0235 13.666C94.0129 13.3544 94.0129 12.9769 94.0129 12.6238V10.4668H95.0133V17.5472H94.0129V16.8824ZM91.2484 15.2656C91.2484 16.1346 91.8206 16.8028 92.6496 16.8028C93.4715 16.8028 94.0507 16.1346 94.0507 15.2656C94.0507 14.3965 93.4679 13.7387 92.6496 13.7387C91.8206 13.7387 91.2484 14.3965 91.2484 15.2656Z" fill="black"/>
<path d="M100.793 15.5802H97.2396C97.3187 16.2795 97.8013 16.7955 98.5107 16.7955C98.9423 16.7955 99.3431 16.6223 99.5726 16.2691L100.703 16.3003C100.302 17.2005 99.4732 17.6748 98.5107 17.6748C97.1675 17.6748 96.1777 16.6638 96.1777 15.2685C96.1777 13.8732 97.1508 12.8691 98.4799 12.8691C99.693 12.8691 100.793 13.6898 100.793 15.5698V15.5802ZM97.2361 14.8392H99.6684C99.6174 14.2541 99.148 13.7451 98.487 13.7451C97.8189 13.7486 97.3565 14.1918 97.2361 14.8392Z" fill="black"/>
<path d="M51.7483 24.8317C51.7483 24.3469 51.3886 24.0942 50.8063 24.0942C50.3164 24.0942 49.8744 24.3054 49.5353 24.5789L49.066 23.8311C49.4462 23.4988 50.0869 23.2148 50.8782 23.2148C52.0703 23.2148 52.7487 23.883 52.7487 24.8524V27.8993H51.7483V27.4215C51.488 27.8474 50.9262 28.017 50.4568 28.017C49.4257 28.017 48.8262 27.4215 48.8262 26.5802C48.8262 25.6903 49.4462 25.1849 50.4568 25.1849H51.4263C51.6559 25.1849 51.7483 25.0844 51.7483 24.901V24.8317ZM51.7483 26.227V25.8323C51.6593 25.9015 51.4983 25.9327 51.2687 25.9327H50.6692C50.1382 25.9327 49.8676 26.1647 49.8676 26.549C49.8676 26.9021 50.1279 27.2276 50.6692 27.2276C51.2276 27.2276 51.7483 26.9333 51.7483 26.227Z" fill="black"/>
<path d="M56.7367 24.2224H56.2161C55.5754 24.2224 55.154 24.5964 55.154 25.6281V27.8924H54.1641V23.3326H55.1335V24.0597C55.3048 23.5542 55.7535 23.2495 56.3839 23.2495C56.4935 23.2495 56.6134 23.2599 56.7333 23.2807V24.2224H56.7367Z" fill="black"/>
<path d="M59.0289 21.4907V23.3326H60.0909V24.1636H59.0289V26.7222C59.0289 27.0373 59.2584 27.0961 59.4879 27.0961C59.8373 27.0961 60.0977 27.0546 60.0977 27.0546V27.896C60.0977 27.896 59.6078 27.9479 59.2378 27.9479C58.6966 27.9479 58.0251 27.8371 58.0251 26.9473V24.1671H57.2852V23.3361H58.0251V21.4942H59.0289V21.4907Z" fill="black"/>
<path d="M65.5276 25.9224H61.975C62.0539 26.6218 62.5369 27.1376 63.246 27.1376C63.6776 27.1376 64.0785 26.9646 64.308 26.6114L65.4385 26.6425C65.0377 27.5428 64.2087 28.0171 63.246 28.0171C61.9031 28.0171 60.9131 27.0061 60.9131 25.6108C60.9131 24.2155 61.886 23.2114 63.2152 23.2114C64.4279 23.2114 65.5276 24.032 65.5276 25.912V25.9224ZM61.975 25.1849H64.4073C64.356 24.5998 63.8866 24.0908 63.2255 24.0908C62.554 24.0908 62.0949 24.5375 61.975 25.1849Z" fill="black"/>
<path d="M69.203 24.5685C68.8638 24.2362 68.3637 24.0734 68.0211 24.0734C67.6305 24.0734 67.4319 24.2846 67.4319 24.4993C67.4319 24.7521 67.5415 24.8732 67.8532 24.984L68.6343 25.2576C69.4736 25.5518 69.8265 26.0158 69.8265 26.5836C69.8265 27.3107 69.2749 28.0204 68.1444 28.0204C67.4045 28.0204 66.6748 27.7158 66.2432 27.3038L66.8324 26.5248C67.1715 26.8676 67.7025 27.1203 68.1239 27.1203C68.5247 27.1203 68.7851 26.9472 68.7851 26.6737C68.7851 26.3794 68.6446 26.2581 68.1444 26.0885L67.3942 25.8254C66.7638 25.6038 66.4144 25.126 66.4144 24.5616C66.4144 23.8934 66.9831 23.2148 68.0657 23.2148C68.5966 23.2148 69.3057 23.426 69.7785 23.8726L69.203 24.5685Z" fill="black"/>
<path d="M75.4097 27.1377C75.9304 27.1377 76.3313 26.885 76.5608 26.4695L77.4206 26.9161C77.0609 27.5948 76.2696 28.0172 75.4097 28.0172C74.0668 28.0172 73.0186 27.0165 73.0186 25.6178C73.0186 24.2121 74.0702 23.208 75.4097 23.208C76.2696 23.208 77.0609 23.6339 77.4206 24.3125L76.5608 24.7591C76.3313 24.3437 75.9304 24.0909 75.4097 24.0909C74.5875 24.0909 74.0292 24.7487 74.0292 25.6178C74.0292 26.4868 74.5875 27.1377 75.4097 27.1377Z" fill="black"/>
<path d="M81.0874 24.2224H80.5667C79.9261 24.2224 79.5047 24.5964 79.5047 25.6281V27.8924H78.5146V23.3326H79.4841V24.0597C79.6555 23.5542 80.1042 23.2495 80.7346 23.2495C80.8442 23.2495 80.9641 23.2599 81.084 23.2807V24.2224H81.0874Z" fill="black"/>
<path d="M83.31 27.8958H82.3097V24.1634H81.6279V23.3325H83.31V27.8958ZM82.7482 20.9746C83.1387 20.9746 83.4573 21.3001 83.4573 21.6948C83.4573 22.0895 83.1387 22.4011 82.7482 22.4011C82.3576 22.4011 82.0459 22.0895 82.0459 21.6948C82.0493 21.3001 82.3576 20.9746 82.7482 20.9746Z" fill="black"/>
<path d="M87.3362 24.8317C87.3362 24.3469 86.9765 24.0942 86.3941 24.0942C85.9042 24.0942 85.4623 24.3054 85.1232 24.5789L84.6539 23.8311C85.0341 23.4988 85.6747 23.2148 86.4661 23.2148C87.6582 23.2148 88.3369 23.883 88.3369 24.8524V27.8993H87.3362V27.4215C87.0759 27.8474 86.514 28.017 86.0447 28.017C85.0136 28.017 84.4141 27.4215 84.4141 26.5802C84.4141 25.6903 85.0341 25.1849 86.0447 25.1849H87.0142C87.2437 25.1849 87.3362 25.0844 87.3362 24.901V24.8317ZM87.3362 26.227V25.8323C87.2471 25.9015 87.0861 25.9327 86.8566 25.9327H86.2571C85.7261 25.9327 85.4555 26.1647 85.4555 26.549C85.4555 26.9021 85.7158 27.2276 86.2571 27.2276C86.8155 27.2276 87.3362 26.9333 87.3362 26.227Z" fill="black"/>
<path d="M91.0185 21.4907V23.3326H92.0804V24.1636H91.0185V26.7222C91.0185 27.0373 91.2479 27.0961 91.4774 27.0961C91.8272 27.0961 92.0874 27.0546 92.0874 27.0546V27.896C92.0874 27.896 91.5978 27.9479 91.2277 27.9479C90.6862 27.9479 90.0147 27.8371 90.0147 26.9473V24.1671H89.2754V23.3361H90.0147V21.4942H91.0185V21.4907Z" fill="black"/>
<path d="M94.4032 27.8958H93.4028V24.1634H92.7207V23.3325H94.4032V27.8958ZM93.8415 20.9746C94.2318 20.9746 94.5508 21.3001 94.5508 21.6948C94.5508 22.0895 94.2318 22.4011 93.8415 22.4011C93.4512 22.4011 93.1391 22.0895 93.1391 21.6948C93.1426 21.3001 93.4512 20.9746 93.8415 20.9746Z" fill="black"/>
<path d="M97.6777 26.9333L98.8872 23.3325H99.9491L98.2877 27.8959H97.0272L95.4238 23.3325H96.5367L97.6777 26.9333Z" fill="black"/>
<path d="M103.396 24.8317C103.396 24.3469 103.036 24.0942 102.453 24.0942C101.964 24.0942 101.521 24.3054 101.183 24.5789L100.714 23.8311C101.093 23.4988 101.734 23.2148 102.525 23.2148C103.717 23.2148 104.396 23.883 104.396 24.8524V27.8993H103.396V27.4215C103.135 27.8474 102.574 28.017 102.104 28.017C101.073 28.017 100.474 27.4215 100.474 26.5802C100.474 25.6903 101.093 25.1849 102.104 25.1849H103.074C103.303 25.1849 103.396 25.0844 103.396 24.901V24.8317ZM103.396 26.227V25.8323C103.307 25.9015 103.146 25.9327 102.916 25.9327H102.316C101.785 25.9327 101.515 26.1647 101.515 26.549C101.515 26.9021 101.775 27.2276 102.316 27.2276C102.875 27.2276 103.396 26.9333 103.396 26.227Z" fill="black"/>
<path d="M108.38 24.5685C108.04 24.2362 107.54 24.0734 107.197 24.0734C106.807 24.0734 106.608 24.2846 106.608 24.4993C106.608 24.7521 106.718 24.8732 107.029 24.984L107.811 25.2576C108.65 25.5518 109.003 26.0158 109.003 26.5836C109.003 27.3107 108.452 28.0204 107.321 28.0204C106.581 28.0204 105.852 27.7158 105.42 27.3038L106.009 26.5248C106.348 26.8676 106.879 27.1203 107.3 27.1203C107.701 27.1203 107.961 26.9472 107.961 26.6737C107.961 26.3794 107.821 26.2581 107.321 26.0885L106.571 25.8254C105.94 25.6038 105.591 25.126 105.591 24.5616C105.591 23.8934 106.16 23.2148 107.242 23.2148C107.773 23.2148 108.482 23.426 108.955 23.8726L108.38 24.5685Z" fill="black"/>
<path d="M54.9829 38.2204H53.6401L52.8899 37.3894C52.4582 37.9953 51.8279 38.3415 50.9577 38.3415C49.7176 38.3415 48.916 37.4517 48.916 36.4096C48.916 35.589 49.3579 34.9139 50.1287 34.2837C49.6593 33.6986 49.5189 33.2831 49.5189 32.788C49.5189 31.6246 50.461 31.0396 51.3894 31.0396C52.2698 31.0396 53.1399 31.5658 53.1399 32.6183C53.1399 32.8815 53.0782 33.1965 52.8899 33.4874L52.0197 33.3246C52.119 33.0927 52.1807 32.8884 52.1807 32.7291C52.1807 32.2548 51.8313 31.9293 51.3894 31.9293C50.8276 31.9293 50.5295 32.3241 50.5295 32.7811C50.5295 33.1446 50.7008 33.5082 51.129 34.0068C51.7388 34.7027 52.6809 35.7275 52.7905 35.8487C53.0714 35.3536 53.3009 34.7962 53.4311 34.4222H54.5616C54.2601 35.2324 53.8491 35.9803 53.4894 36.5757L54.9796 38.1857V38.2204H54.9829ZM50.6905 34.9935C50.1698 35.5405 49.9711 35.9041 49.9711 36.3992C49.9711 37.0363 50.4919 37.4205 51.0228 37.4205C51.475 37.4205 51.9649 37.1782 52.2252 36.6935L50.6905 34.9935Z" fill="black"/>
<path d="M59.5807 31.8359V33.6779H60.6426V34.5088H59.5807V37.0675C59.5807 37.3826 59.8102 37.4415 60.0397 37.4415C60.3891 37.4415 60.6495 37.3998 60.6495 37.3998V38.2412C60.6495 38.2412 60.1596 38.2932 59.7896 38.2932C59.2483 38.2932 58.5769 38.1823 58.5769 37.2926V34.5123H57.8369V33.6814H58.5803V31.8394H59.5807V31.8359Z" fill="black"/>
<path d="M66.0792 36.2677H62.5268C62.6056 36.967 63.0886 37.483 63.7977 37.483C64.2294 37.483 64.6302 37.3098 64.8597 36.9566L65.9902 36.9878C65.5894 37.888 64.7603 38.3623 63.7977 38.3623C62.4548 38.3623 61.4648 37.3513 61.4648 35.956C61.4648 34.5607 62.4377 33.5566 63.7669 33.5566C64.9796 33.5566 66.0792 34.3773 66.0792 36.2573V36.2677ZM62.5234 35.5302H64.9557C64.9042 34.9451 64.4349 34.4361 63.7737 34.4361C63.1057 34.4361 62.6433 34.8827 62.5234 35.5302Z" fill="black"/>
<path d="M69.2613 37.4829C69.782 37.4829 70.1827 37.2302 70.4123 36.8147L71.2721 37.2614C70.9124 37.94 70.1211 38.3624 69.2613 38.3624C67.9184 38.3624 66.8701 37.3618 66.8701 35.963C66.8701 34.5573 67.9218 33.5532 69.2613 33.5532C70.1211 33.5532 70.9124 33.9791 71.2721 34.6577L70.4123 35.1043C70.1827 34.6889 69.782 34.4362 69.2613 34.4362C68.4391 34.4362 67.8807 35.0939 67.8807 35.963C67.8807 36.8321 68.4425 37.4829 69.2613 37.4829Z" fill="black"/>
<path d="M73.3381 33.941C73.3381 34.0726 73.3381 34.1522 73.3278 34.2456C73.7081 33.799 74.2289 33.5566 74.8009 33.5566C75.8629 33.5566 76.483 34.2249 76.483 35.267V38.2412H75.4827V35.409C75.4827 34.7615 75.0921 34.4568 74.592 34.4568C74.1604 34.4568 73.7424 34.6784 73.3621 35.1251V38.2412H72.3721V33.6778H73.3416V33.941H73.3381Z" fill="black"/>
<path d="M79.9835 33.5566C81.3161 33.5566 82.3952 34.5573 82.3952 35.956C82.3952 37.3513 81.3126 38.3623 79.9835 38.3623C78.6508 38.3623 77.582 37.3513 77.582 35.956C77.582 34.5573 78.6543 33.5566 79.9835 33.5566ZM79.9835 34.4361C79.1613 34.4361 78.5927 35.0836 78.5927 35.9526C78.5927 36.8216 79.1647 37.4795 79.9835 37.4795C80.8056 37.4795 81.3744 36.8216 81.3744 35.9526C81.3778 35.0836 80.8056 34.4361 79.9835 34.4361Z" fill="black"/>
<path d="M84.5706 31.1572H83.5811V38.2377H84.5706V31.1572Z" fill="black"/>
<path d="M88.1547 33.5566C89.4873 33.5566 90.5659 34.5573 90.5659 35.956C90.5659 37.3513 89.4838 38.3623 88.1547 38.3623C86.8217 38.3623 85.7529 37.3513 85.7529 35.956C85.7529 34.5573 86.8252 33.5566 88.1547 33.5566ZM88.1547 34.4361C87.3322 34.4361 86.7635 35.0836 86.7635 35.9526C86.7635 36.8216 87.3356 37.4795 88.1547 37.4795C88.9766 37.4795 89.5453 36.8216 89.5453 35.9526C89.5488 35.0836 88.9766 34.4361 88.1547 34.4361Z" fill="black"/>
<path d="M96.1947 33.6778V38.6048C96.1947 39.3145 95.8449 40.0001 94.7725 40.0001H92.8817V39.1691H94.6221C94.8929 39.1691 95.1944 39.0964 95.1944 38.6843V37.5591C94.9544 38.0058 94.3444 38.3381 93.6833 38.3381C92.3815 38.3381 91.4189 37.3479 91.4189 35.9526C91.4189 34.5469 92.3613 33.5532 93.6728 33.5532C94.3338 33.5532 94.9544 33.896 95.2041 34.353C95.2041 34.2526 95.1944 34.1418 95.1944 33.9999V33.6744H96.1947V33.6778ZM93.8345 37.4829C94.6635 37.4829 95.2348 36.8251 95.2348 35.9561C95.2348 35.0767 94.6635 34.4188 93.8345 34.4188C93.0118 34.4188 92.443 35.0767 92.443 35.9561C92.4395 36.8251 93.0118 37.4829 93.8345 37.4829Z" fill="black"/>
<path d="M98.8593 38.2415H97.859V34.5056H97.1777V33.6747H98.8593V38.2415ZM98.2976 31.3203C98.6879 31.3203 99.007 31.6457 99.007 32.0405C99.007 32.4352 98.6879 32.7468 98.2976 32.7468C97.9073 32.7468 97.5953 32.4352 97.5953 32.0405C97.5988 31.6457 97.9073 31.3203 98.2976 31.3203Z" fill="black"/>
<path d="M102.886 35.1735C102.886 34.6888 102.526 34.4361 101.943 34.4361C101.454 34.4361 101.012 34.6473 100.672 34.9208L100.204 34.1729C100.584 33.8406 101.224 33.5566 102.016 33.5566C103.207 33.5566 103.886 34.2249 103.886 35.1943V38.2412H102.886V37.7669C102.626 38.1926 102.064 38.3623 101.594 38.3623C100.563 38.3623 99.9639 37.7669 99.9639 36.9254C99.9639 36.0357 100.584 35.5302 101.594 35.5302H102.564C102.793 35.5302 102.886 35.4298 102.886 35.2462V35.1735ZM102.886 36.5723V36.1776C102.797 36.2469 102.636 36.2781 102.406 36.2781H101.806C101.275 36.2781 101.005 36.51 101.005 36.8943C101.005 37.2475 101.266 37.5729 101.806 37.5729C102.365 37.5729 102.886 37.2786 102.886 36.5723Z" fill="black"/>
</g>
</g>
<defs>
<clipPath id="clip0_5867_5581">
<rect width="109" height="40" fill="white"/>
</clipPath>
</defs>
</svg>
