<svg width="91" height="21" viewBox="0 0 91 21" fill="none" xmlns="http://www.w3.org/2000/svg">
<g clip-path="url(#clip0_5759_25084)">
<path fill-rule="evenodd" clip-rule="evenodd" d="M22.7606 16.046C22.722 16.4354 22.6028 16.7979 22.3166 17.0663C22.0436 17.338 21.6112 17.4876 21.2257 17.481H15.6229C15.2159 17.4854 14.7642 17.3204 14.4834 17.0267C14.1834 16.7357 14.0786 16.3337 14.088 15.9162V10.3156C14.0797 9.89702 14.184 9.49332 14.4834 9.19962C14.7642 8.90592 15.2164 8.74312 15.6229 8.75137H21.2257C21.6338 8.74422 22.0861 8.90647 22.369 9.19962C22.6696 9.49222 22.7727 9.89757 22.7578 10.3161V16.046H22.7606ZM26.2031 17.025C25.9168 16.7589 25.7382 16.3972 25.7013 16.0086V10.1319C25.702 9.55663 25.5838 8.98742 25.3538 8.45987C25.1345 7.94616 24.8191 7.47878 24.4245 7.08267C24.0357 6.69179 23.5751 6.3792 23.0678 6.16197C22.546 5.93068 21.9814 5.81113 21.4105 5.81107H15.4398C14.869 5.81121 14.3046 5.93075 13.783 6.16197C13.2758 6.38021 12.8148 6.69266 12.4246 7.08267C12.0321 7.47845 11.7175 7.94409 11.497 8.45547C11.2676 8.98314 11.1499 9.55234 11.1512 10.1275V16.1005C11.1469 16.669 11.2654 17.2317 11.4986 17.7505C11.9403 18.7736 12.7573 19.5897 13.7825 20.0319C14.3064 20.2568 14.8695 20.3723 15.4392 20.3729H21.4105C22.4698 20.375 23.4931 19.9893 24.2861 19.2888C24.6729 19.6391 25.1151 19.9233 25.5948 20.1298C26.1121 20.3487 26.6681 20.385 27.2295 20.3817H27.8671V17.4788H27.235C26.8465 17.4586 26.479 17.2969 26.202 17.0245L26.2031 17.025ZM85.5373 16.046C85.4982 16.4354 85.3796 16.7979 85.0934 17.0663C84.8204 17.338 84.388 17.4876 84.0025 17.481H78.3996C77.9926 17.4854 77.5415 17.3204 77.2602 17.0267C76.9602 16.7357 76.8554 16.3337 76.8648 15.9162V10.3156C76.8565 9.89702 76.9613 9.49332 77.2602 9.19962C77.5409 8.90592 77.9932 8.74312 78.3996 8.75137H84.0025C84.41 8.74422 84.8628 8.90647 85.1458 9.19962C85.4463 9.49222 85.5495 9.89757 85.5351 10.3161V16.046H85.5373ZM88.9799 17.025C88.6937 16.7588 88.5154 16.3972 88.4786 16.0086V10.1319C88.4792 9.55659 88.3607 8.98738 88.1306 8.45987C87.9112 7.94616 87.5958 7.47878 87.2013 7.08267C86.8116 6.69284 86.3512 6.38039 85.8445 6.16197C85.323 5.93075 84.7586 5.81121 84.1878 5.81107H78.2165C77.6458 5.81121 77.0814 5.93075 76.5598 6.16197C76.0526 6.38021 75.5916 6.69266 75.2014 7.08267C74.8091 7.4785 74.4946 7.94413 74.2743 8.45547C74.0447 8.9831 73.9268 9.55231 73.9279 10.1275V16.1005C73.9238 16.669 74.0425 17.2318 74.276 17.7505C74.7171 18.7739 75.5343 19.5902 76.5598 20.0319C77.0829 20.2566 77.6464 20.3726 78.216 20.3729H84.1872C85.2466 20.375 86.2698 19.9893 87.0628 19.2888C87.4503 19.6383 87.8923 19.9224 88.3716 20.1298C88.8883 20.3487 89.4448 20.385 90.0063 20.3817H90.6438V17.4788H90.0118C89.6233 17.4586 89.2557 17.2969 88.9788 17.0245L88.9799 17.025ZM4.17728 1.29612C3.61828 1.31702 3.06893 1.44786 2.56079 1.68112C2.06923 1.90808 1.62083 2.21829 1.2355 2.59797C0.848958 2.98889 0.542325 3.45103 0.332667 3.95867C0.109286 4.48003 -0.00392429 5.04172 0.000103836 5.60867V20.3817H2.93968V11.4607H9.09349V8.56272H2.93968V5.60922C2.93968 4.79962 3.58495 4.22487 4.35487 4.22487H9.0819V1.29612H4.17728ZM56.4416 0.500266C56.1886 0.495943 55.9375 0.544285 55.7042 0.642206C55.471 0.740127 55.2608 0.885474 55.0871 1.06897C54.9048 1.24304 54.7603 1.45262 54.6625 1.6847C54.5648 1.91679 54.516 2.16642 54.519 2.41812C54.5135 2.92357 54.7198 3.40812 55.0893 3.75517C55.2681 3.92903 55.4798 4.06565 55.712 4.15706C55.9443 4.24847 56.1925 4.29284 56.4422 4.28757C56.6895 4.29144 56.9351 4.24545 57.1641 4.15236C57.3932 4.05926 57.601 3.92098 57.7752 3.74582C57.9539 3.57245 58.0955 3.3647 58.1913 3.13515C58.2872 2.90561 58.3353 2.65905 58.3328 2.41042C58.3353 2.16018 58.2875 1.91197 58.1921 1.68051C58.0967 1.44905 57.9557 1.23904 57.7774 1.06292C57.6067 0.881071 57.3996 0.737055 57.1694 0.640218C56.9393 0.54338 56.6913 0.495885 56.4416 0.500816" fill="#662C83"/>
<path d="M57.8943 5.81195H54.958V20.3825H57.8943V5.81195ZM64.2179 1.2959H61.2817V20.3825H64.2179V1.2959Z" fill="#662C83"/>
<path fill-rule="evenodd" clip-rule="evenodd" d="M43.835 5.81278C42.7391 5.79903 41.6664 6.23298 40.8623 6.98428C40.061 6.24068 38.9872 5.79078 37.9029 5.81278H34.6991C33.5636 5.81278 32.5383 6.25223 31.7651 6.96943C30.9869 6.29458 29.9682 5.86118 28.9011 5.81278H28.4141V8.76628H28.8525C29.6704 8.81358 30.3157 9.47688 30.3157 10.2892L30.3146 20.3894H33.3248V10.2595C33.3248 9.43343 33.9331 8.76573 34.7614 8.76573L37.8422 8.76353C38.5851 8.76573 39.291 9.33608 39.3026 10.0852V20.3834H42.4391V10.0973C42.4369 9.23928 43.0733 8.77783 43.8973 8.75363H46.9615C47.7943 8.76573 48.4026 9.43343 48.4219 10.2524V20.3834H51.3863V10.1402C51.2975 7.76143 49.4152 5.79903 47.0233 5.81278H43.835ZM69.0811 0.499778C68.8281 0.495455 68.577 0.543797 68.3438 0.641718C68.1105 0.739639 67.9003 0.884986 67.7266 1.06848C67.5444 1.2426 67.4 1.4522 67.3024 1.68428C67.2047 1.91636 67.156 2.16597 67.1591 2.41763C67.1559 2.6677 67.205 2.9157 67.303 3.14587C67.4011 3.37605 67.5461 3.58337 67.7288 3.75468C67.9074 3.9288 68.1191 4.06558 68.3514 4.15701C68.5837 4.24843 68.832 4.29265 69.0817 4.28708C69.329 4.29095 69.5746 4.24496 69.8036 4.15187C70.0327 4.05878 70.2405 3.9205 70.4147 3.74533C70.5934 3.57196 70.735 3.36421 70.8308 3.13466C70.9267 2.90512 70.9748 2.65856 70.9723 2.40993C70.9748 2.15965 70.9268 1.91142 70.8313 1.67996C70.7358 1.44849 70.5947 1.2385 70.4164 1.06243C70.2457 0.880653 70.0387 0.736677 69.8087 0.639842C69.5786 0.543007 69.3308 0.495475 69.0811 0.500328" fill="#662C83"/>
<path d="M70.5339 5.81201H67.5977V20.3826H70.5339V5.81201Z" fill="#662C83"/>
</g>
<defs>
<clipPath id="clip0_5759_25084">
<rect width="91" height="21" fill="white"/>
</clipPath>
</defs>
</svg>
