<svg width="129" height="16" viewBox="0 0 129 16" fill="none" xmlns="http://www.w3.org/2000/svg">
<g clip-path="url(#clip0_5867_5637)">
<path d="M89.9824 0.106445C99.1271 0.106445 99.1271 0.106445 100.893 1.78645C102.016 2.97535 102.416 4.33899 102.397 5.94884C102.375 6.60435 102.305 7.18311 102.037 7.78645C102.002 7.87307 101.967 7.9597 101.931 8.04895C101.611 8.7763 101.071 9.66032 100.345 10.0264C100.416 10.3882 100.554 10.6676 100.733 10.9881C100.791 11.094 100.85 11.2 100.911 11.3091C100.975 11.4226 101.039 11.5362 101.105 11.6531C101.203 11.8284 101.203 11.8284 101.302 12.0073C101.844 12.9735 102.397 13.9322 102.96 14.8859C103.049 15.0378 103.049 15.0378 103.139 15.1927C103.192 15.2819 103.245 15.371 103.299 15.4629C103.411 15.6798 103.411 15.6798 103.411 15.8931C102.73 15.9175 102.049 15.9343 101.368 15.9458C101.136 15.9507 100.905 15.9572 100.673 15.9655C100.34 15.9772 100.007 15.9826 99.6731 15.9869C99.5184 15.9943 99.5184 15.9943 99.3606 16.0019C98.6572 16.0024 98.6572 16.0024 98.3501 15.6974C98.1834 15.4497 98.0457 15.2006 97.9127 14.9331C97.8437 14.8144 97.7747 14.6956 97.7035 14.5733C97.6438 14.4631 97.584 14.3529 97.5224 14.2394C97.4553 14.1164 97.3882 13.9934 97.319 13.8667C97.2503 13.7399 97.1817 13.6132 97.1131 13.4864C96.9119 13.1156 96.71 12.7453 96.503 12.3776C96.3267 12.0531 96.3267 12.0531 96.2119 11.7773C96.1023 11.5052 96.1023 11.5052 95.798 11.1998C95.0652 11.147 95.0652 11.147 94.3177 11.0931C94.3177 12.6771 94.3177 14.2611 94.3177 15.8931C92.887 15.8931 91.4564 15.8931 89.9824 15.8931C89.9824 10.6835 89.9824 5.47391 89.9824 0.106445ZM94.3177 3.94645C94.3177 5.03765 94.3177 6.12885 94.3177 7.25311C95.0079 7.26631 95.0079 7.26631 95.7121 7.27978C95.9284 7.28561 95.9284 7.28561 96.1492 7.29155C96.2638 7.29262 96.3784 7.29368 96.4964 7.29478C96.6133 7.29701 96.7301 7.29925 96.8505 7.30155C97.2459 7.24208 97.4165 7.10328 97.7013 6.82645C98.0126 6.33159 98.073 5.75014 97.9726 5.17895C97.8205 4.65342 97.6533 4.3441 97.1726 4.05311C96.8428 3.94223 96.6148 3.93418 96.2693 3.93603C96.167 3.9363 96.0648 3.93656 95.9594 3.93684C95.8298 3.93781 95.7002 3.93878 95.5667 3.93978C95.1545 3.94198 94.7423 3.94418 94.3177 3.94645Z" fill="#21C2B4"/>
<path d="M13.0059 1.64635C13.6321 2.19252 14.0894 2.73501 14.3805 3.51968C14.3097 3.5729 14.239 3.62611 14.1661 3.68093C14.0138 3.79581 14.0138 3.79581 13.8584 3.91302C13.8032 3.95453 13.748 3.99605 13.6911 4.03882C13.3371 4.30608 12.9865 4.57732 12.6383 4.85218C12.558 4.9152 12.4777 4.97822 12.395 5.04315C12.2351 5.16876 12.0758 5.29498 11.9169 5.42184C11.8064 5.50843 11.8064 5.50843 11.6936 5.59677C11.6281 5.64875 11.5625 5.70073 11.4949 5.75429C11.3141 5.86635 11.3141 5.86635 10.9969 5.86635C10.8996 5.71741 10.803 5.56805 10.7094 5.41677C10.1652 4.65186 9.38283 4.23208 8.50541 3.97302C7.55104 3.87427 6.70169 3.98727 5.89501 4.54635C4.95838 5.31942 4.57851 6.35822 4.45433 7.53968C4.39277 8.7645 4.63217 9.90399 5.39275 10.8797C6.087 11.638 6.89197 11.9043 7.89741 11.973C9.03193 11.9512 10.0934 11.4711 10.8911 10.6664C10.0886 10.6312 9.28601 10.596 8.45915 10.5597C8.45915 9.50368 8.45915 8.44768 8.45915 7.35968C10.5876 7.35968 12.7161 7.35968 14.9091 7.35968C14.9091 10.1405 14.9091 12.9213 14.9091 15.7864C13.7228 15.7864 12.5364 15.7864 11.3141 15.7864C11.2792 15.4344 11.2443 15.0823 11.2083 14.7197C11.0753 14.8165 10.9423 14.9133 10.8052 15.013C9.34362 15.9999 7.47195 16.1366 5.77027 15.8201C3.87869 15.3421 2.16463 14.2386 1.14218 12.5314C-0.0219039 10.4744 -0.396398 7.952 0.158735 5.63302C0.845547 3.50861 2.22918 1.8326 4.18999 0.773017C7.02593 -0.610194 10.512 -0.325463 13.0059 1.64635Z" fill="#003A4B"/>
<path d="M65.1935 -0.0403385C65.3586 -0.0426073 65.3586 -0.0426073 65.527 -0.0449219C66.6362 -0.0378719 67.6523 0.194218 68.6366 0.712995C68.7083 0.750206 68.78 0.787417 68.8539 0.825755C70.8119 1.87322 72.0632 3.62864 72.7509 5.71924C73.3116 7.70011 73.1127 9.77301 72.2185 11.6263C71.0573 13.6744 69.3459 15.1178 67.0762 15.7476C66.413 15.9081 65.7811 15.9465 65.101 15.9397C64.9855 15.9387 64.87 15.9377 64.751 15.9367C62.5504 15.8894 60.8311 15.0071 59.3185 13.4397C59.2469 13.3672 59.1754 13.2947 59.1016 13.2201C57.5769 11.5796 57.1456 9.52044 57.1752 7.34675C57.2354 5.47096 58.1089 3.5645 59.4242 2.23966C61.105 0.710981 62.932 -0.0162379 65.1935 -0.0403385ZM62.5237 4.98966C61.7472 5.94528 61.4711 7.12842 61.5658 8.34424C61.7253 9.58036 62.0658 10.5779 63.0193 11.413C63.545 11.7559 64.0799 12.0115 64.7111 12.053C64.842 12.0618 64.9728 12.0706 65.1076 12.0797C65.9918 12.066 66.802 11.7422 67.4368 11.123C68.3626 10.1278 68.6782 8.92947 68.6494 7.58549C68.5536 6.36155 68.1478 5.43535 67.2554 4.59966C65.7982 3.38772 63.7911 3.64006 62.5237 4.98966Z" fill="#21C1B4"/>
<path d="M74.334 0.106445C75.7646 0.106445 77.1953 0.106445 78.6693 0.106445C78.672 0.725745 78.6747 1.34505 78.6775 1.98311C78.6802 2.37881 78.683 2.7745 78.6862 3.1702C78.6913 3.79629 78.6959 4.42236 78.6979 5.04848C78.6995 5.55408 78.7032 6.05963 78.7082 6.5652C78.7097 6.75671 78.7106 6.94822 78.7107 7.13973C78.7046 9.39413 78.7046 9.39413 79.6659 11.3619C80.2002 11.8687 80.6268 12.0245 81.3391 12.0798C82.1018 12.0285 82.6138 11.8617 83.1499 11.2931C83.5242 10.8322 83.7238 10.3917 83.8504 9.81311C83.8774 9.70197 83.8774 9.70197 83.905 9.58859C83.9719 9.18468 83.9749 8.78546 83.9778 8.37715C83.9789 8.2876 83.9799 8.19805 83.981 8.10578C83.9844 7.81087 83.987 7.51595 83.9896 7.22103C83.9918 7.01612 83.994 6.81122 83.9963 6.60631C84.0021 6.06779 84.0073 5.52927 84.0124 4.99075C84.0187 4.34418 84.0257 3.69763 84.0325 3.05107C84.0429 2.06953 84.0523 1.08799 84.0619 0.106445C85.4925 0.106445 86.9231 0.106445 88.3971 0.106445C88.4141 2.45189 88.4141 2.45189 88.4178 3.46311C88.4203 4.14913 88.4232 4.83513 88.429 5.52113C88.4337 6.07513 88.4362 6.62909 88.4373 7.1831C88.438 7.3929 88.4395 7.60269 88.4418 7.81248C88.4662 10.1209 88.189 12.3311 86.519 14.061C86.4409 14.1376 86.3628 14.2142 86.2824 14.2931C86.2163 14.362 86.1502 14.4309 86.082 14.5019C84.8331 15.7194 83.061 16.0617 81.3854 16.0464C81.2603 16.0456 81.1351 16.0448 81.0062 16.044C79.1172 16.0082 77.5727 15.4368 76.2158 14.0844C74.4364 12.201 74.2994 9.67357 74.3134 7.22103C74.3138 7.01495 74.3141 6.80887 74.3143 6.60279C74.3151 6.06498 74.3171 5.52718 74.3195 4.98938C74.322 4.34164 74.323 3.6939 74.3242 3.04616C74.3263 2.06625 74.3303 1.08636 74.334 0.106445Z" fill="#21C2B4"/>
<path d="M16.6778 0.0938964C16.7981 0.0940439 16.7981 0.0940439 16.9209 0.0941943C17.0127 0.0940477 17.1045 0.0939011 17.199 0.09375C17.3005 0.0941335 17.402 0.094517 17.5065 0.0949121C17.6127 0.0948965 17.719 0.094881 17.8284 0.0948649C18.1814 0.0949395 18.5344 0.095771 18.8875 0.0966048C19.1315 0.0968036 19.3755 0.0969555 19.6195 0.0970622C20.2632 0.0974703 20.9069 0.098519 21.5506 0.0996973C22.2069 0.100786 22.8632 0.101275 23.5195 0.101813C24.8082 0.102959 26.097 0.104836 27.3857 0.107021C27.3857 1.37422 27.3857 2.64142 27.3857 3.94702C25.2223 3.94702 23.0589 3.94702 20.83 3.94702C20.83 4.65102 20.83 5.35502 20.83 6.08036C22.6793 6.08036 24.5287 6.08036 26.4341 6.08036C26.4341 7.27716 26.4341 8.47396 26.4341 9.70702C24.5847 9.70702 22.7354 9.70702 20.83 9.70702C20.83 10.4814 20.83 11.2558 20.83 12.0537C23.0632 12.0537 25.2963 12.0537 27.5972 12.0537C27.5972 13.3209 27.5972 14.5881 27.5972 15.8937C23.8985 15.8937 20.1998 15.8937 16.389 15.8937C16.3847 11.9658 16.3847 11.9658 16.3838 10.3251C16.3832 9.19042 16.3825 8.05569 16.381 6.92095C16.38 6.09469 16.3793 5.26843 16.379 4.44216C16.3789 4.00439 16.3786 3.56661 16.3778 3.12884C16.3771 2.71727 16.3769 2.3057 16.377 1.89413C16.377 1.74264 16.3768 1.59114 16.3764 1.43965C16.3759 1.2337 16.376 1.02774 16.3763 0.821789C16.3762 0.706257 16.3761 0.590726 16.376 0.471694C16.394 0.114242 16.394 0.114242 16.6778 0.0938964Z" fill="#00394C"/>
<path d="M117.792 0.106445C121.421 0.106445 125.05 0.106445 128.789 0.106445C128.789 1.37365 128.789 2.64085 128.789 3.94645C126.59 3.94645 124.392 3.94645 122.127 3.94645C122.127 4.65045 122.127 5.35445 122.127 6.07978C124.011 6.07978 125.896 6.07978 127.837 6.07978C127.837 7.27658 127.837 8.47338 127.837 9.70645C125.953 9.70645 124.069 9.70645 122.127 9.70645C122.127 10.4808 122.127 11.2552 122.127 12.0531C124.395 12.0531 126.663 12.0531 129 12.0531C129 13.3203 129 14.5875 129 15.8931C125.301 15.8931 121.603 15.8931 117.792 15.8931C117.792 10.6835 117.792 5.47391 117.792 0.106445Z" fill="#21C2B4"/>
<path d="M110.245 -0.0464235C110.411 -0.0449798 110.411 -0.0449798 110.581 -0.0435069C112.545 0.000162281 114.366 0.693476 116.1 1.60024C116.036 2.01254 115.913 2.33104 115.721 2.69983C115.666 2.80591 115.611 2.91199 115.554 3.02128C115.497 3.13094 115.439 3.2406 115.379 3.35358C115.323 3.46282 115.266 3.57206 115.208 3.68462C114.93 4.21819 114.648 4.73472 114.302 5.22691C113.951 5.15957 113.645 5.01788 113.321 4.86694C112.119 4.30744 110.717 3.66967 109.385 4.05358C109.298 4.08878 109.211 4.12398 109.121 4.16024C109.031 4.45896 109.031 4.45896 109.015 4.80024C109.298 5.15563 109.574 5.31192 109.993 5.46691C110.114 5.51187 110.235 5.55683 110.359 5.60316C110.708 5.72639 111.06 5.84076 111.412 5.95399C115.243 7.19046 115.243 7.19046 116.146 8.85358C116.707 10.172 116.678 11.6712 116.206 13.0136C115.709 14.1515 114.939 14.9838 113.805 15.4873C110.938 16.5834 107.656 16.062 104.904 14.8458C103.873 14.3708 103.873 14.3708 103.729 14.0802C103.847 13.7937 103.847 13.7937 104.031 13.4323C104.063 13.3681 104.095 13.3039 104.129 13.2377C104.232 13.0315 104.337 12.8258 104.442 12.6202C104.546 12.4164 104.649 12.2125 104.751 12.0085C104.846 11.8218 104.94 11.6355 105.035 11.4491C105.213 11.0859 105.371 10.7203 105.526 10.3469C105.92 10.4979 106.297 10.6755 106.676 10.8608C107.923 11.469 109.103 11.9593 110.509 11.9669C110.636 11.9684 110.762 11.9699 110.893 11.9715C111.218 11.9482 111.397 11.9238 111.659 11.7336C111.798 11.4228 111.798 11.4228 111.672 11.1536C111.023 10.3645 109.675 10.1726 108.73 9.87553C107.247 9.40702 105.72 8.83013 104.849 7.44441C104.477 6.72487 104.447 6.11387 104.442 5.32024C104.44 5.22427 104.438 5.12829 104.436 5.02941C104.428 3.65363 104.929 2.53839 105.843 1.52691C107.027 0.391126 108.645 -0.0632891 110.245 -0.0464235Z" fill="#21C1B4"/>
<path d="M53.5032 0.426215C53.6284 0.476815 53.7535 0.527415 53.8824 0.579548C54.9828 1.08038 56.3686 2.04322 56.8868 3.19955C56.8569 3.48352 56.8128 3.59761 56.5998 3.7901C56.5222 3.8412 56.4447 3.89231 56.3648 3.94496C56.2788 4.00278 56.1928 4.0606 56.1041 4.12017C56.0135 4.17937 55.9229 4.23856 55.8295 4.29955C55.653 4.41659 55.4768 4.53395 55.3008 4.65163C55.2134 4.70988 55.126 4.76813 55.036 4.82814C54.6835 5.07486 54.3525 5.34503 54.0224 5.62129C53.8205 5.75955 53.8205 5.75955 53.5032 5.75955C53.3595 5.5683 53.3595 5.5683 53.2125 5.31288C52.6823 4.48202 52.1273 4.209 51.1754 3.99997C50.1455 3.82454 49.2169 3.9733 48.3485 4.58622C47.5942 5.2246 47.1465 6.1623 47.0532 7.14621C46.9667 8.5858 47.1462 9.70491 48.0049 10.8795C48.6627 11.6041 49.4438 11.9175 50.4104 11.9662C51.3429 11.9468 52.1355 11.69 52.8688 11.0929C53.1152 10.79 53.3171 10.4763 53.5032 10.1329C53.9489 10.2967 54.3479 10.5202 54.7543 10.7637C54.8216 10.8037 54.889 10.8436 54.9583 10.8848C55.1718 11.0116 55.385 11.1389 55.5982 11.2662C55.7435 11.3526 55.8888 11.439 56.0341 11.5254C56.3891 11.7364 56.7438 11.9478 57.0983 12.1595C56.4389 13.7393 55.2642 14.6813 53.7197 15.3321C51.7738 16.1054 49.3651 16.2569 47.4229 15.4116C46.66 15.0568 45.9996 14.6281 45.3614 14.0795C45.2568 14.0025 45.1521 13.9255 45.0442 13.8462C43.5672 12.5703 42.6625 10.4369 42.4851 8.51392C42.3415 6.21046 43.0958 4.14693 44.5684 2.39288C46.7712 0.0358866 50.51 -0.78448 53.5032 0.426215Z" fill="#21C1B4"/>
<path d="M28.9797 0.0938964C29.1258 0.0940439 29.1258 0.0940439 29.2748 0.0941943C29.3861 0.0940477 29.4975 0.0939011 29.6122 0.09375C29.797 0.0943252 29.797 0.0943252 29.9856 0.0949121C30.1145 0.0948965 30.2434 0.094881 30.3763 0.0948649C30.7308 0.0949267 31.0854 0.0954631 31.4399 0.0962061C31.8101 0.0968711 32.1803 0.0969355 32.5504 0.0970622C33.2518 0.0973942 33.9532 0.0982703 34.6546 0.0993395C35.4529 0.10053 36.2513 0.101118 37.0496 0.101654C38.6922 0.10277 40.3349 0.104727 41.9775 0.107021C41.9775 1.37422 41.9775 2.64142 41.9775 3.94702C40.512 3.94702 39.0464 3.94702 37.5365 3.94702C37.5365 7.88942 37.5365 11.8318 37.5365 15.8937C36.1059 15.8937 34.6752 15.8937 33.2013 15.8937C33.2013 11.9513 33.2013 8.00889 33.2013 3.94702C31.7008 3.94702 30.2004 3.94702 28.6545 3.94702C28.6524 3.33322 28.6502 2.71942 28.6479 2.08702C28.647 1.89309 28.646 1.69915 28.645 1.49934C28.6447 1.34648 28.6444 1.19363 28.6442 1.04077C28.6437 0.960708 28.6431 0.880644 28.6426 0.798154C28.6425 0.603291 28.648 0.408438 28.6545 0.213688C28.7603 0.107021 28.7603 0.107021 28.9797 0.0938964Z" fill="#00394C"/>
</g>
<defs>
<clipPath id="clip0_5867_5637">
<rect width="129" height="16" fill="white"/>
</clipPath>
</defs>
</svg>
