<svg width="151" height="39" viewBox="0 0 151 39" fill="none" xmlns="http://www.w3.org/2000/svg">
<g>
<g>
<path d="M15.0487 7.60449H7.52441V15.2079H15.0487V7.60449Z" fill="#F02325"/>
<path d="M7.52429 15.2095H0V22.8148H7.52429V15.2095Z" fill="#F02325"/>
<path d="M15.0487 22.8105H7.52441V30.4159H15.0487V22.8105Z" fill="#F02325"/>
<path d="M22.5741 30.415H15.0498V38.0204H22.5741V30.415Z" fill="#F02325"/>
<path d="M30.0976 22.8105H22.5732V30.4159H30.0976V22.8105Z" fill="#F02325"/>
<path d="M22.5741 0H15.0498V7.60346H22.5741V0Z" fill="#F02325"/>
<path d="M30.0976 7.60449H22.5732V15.2079H30.0976V7.60449Z" fill="#F02325"/>
<path d="M50.2432 3.94434L45.3381 10.7457H44.3173V3.94434H41.3818V20.1791H44.3173V13.1845H44.9347C45.6923 13.1845 46.2188 14.0286 47.0918 15.426C47.2926 15.7477 47.5104 16.0979 47.7547 16.4731C49.4497 19.1627 50.2603 20.1791 52.0443 20.1791H53.2488L53.2753 17.6676H52.8965C51.9856 17.6676 51.442 16.8062 50.3587 15.0892C50.2186 14.8671 50.069 14.6297 49.908 14.379C49.0028 12.9949 48.3835 12.1182 47.7793 11.565L53.512 3.94625H50.2413L50.2432 3.94434Z" fill="black"/>
<path d="M63.0677 13.9741C64.2248 13.5396 64.8328 12.6457 64.8328 11.365C64.8328 9.36074 63.3423 8.30029 60.5204 8.30029H55.8066V20.1763H60.4731C63.6491 20.1763 65.3289 19.0182 65.3289 16.8244C65.3289 15.4156 64.4559 14.3379 63.0677 13.9722M58.5773 13.0878V10.45H60.2856C61.9219 10.45 62.1113 11.1621 62.1113 11.6962C62.1113 12.6705 61.5507 13.0859 60.2383 13.0859H58.5773V13.0878ZM62.5374 16.6063C62.5374 17.6036 61.9597 17.973 60.403 17.973H58.5773V15.0729H60.5223C61.8973 15.0729 62.5374 15.561 62.5374 16.6063Z" fill="black"/>
<path d="M76.5078 16.9691V12.2504C76.5078 9.39819 75.0519 8.01416 72.0554 8.01416C70.315 8.01416 68.766 8.59036 67.5766 9.68151L67.4819 9.76761L68.8322 11.6225L68.9478 11.523C69.8322 10.7573 70.7642 10.384 71.7942 10.384C73.177 10.384 73.7149 10.9009 73.7149 12.2293V12.9243H73.4058C70.3811 12.9243 67.1523 14.0249 67.1523 17.1145C67.1523 19.1187 68.5614 20.4664 70.6578 20.4664C71.8892 20.4664 73.065 19.9495 73.8683 19.0671C73.9078 19.4135 73.9739 19.827 74.0289 20.0682L74.0535 20.1793H76.8282L76.7902 20.007C76.686 19.5265 76.51 18.4947 76.51 16.9729M73.7163 14.8883V17.0188C73.065 17.8171 72.2582 18.221 71.3211 18.221C70.686 18.221 69.9458 17.8936 69.9458 16.9729C69.9458 15.5889 71.1106 14.8883 73.4079 14.8883H73.7163Z" fill="black"/>
<path d="M89.6547 8.30029H81.3786L80.7484 14.2977C80.5661 16.2291 80.1704 17.4102 79.5382 17.9041H78.5342L78.9341 23.6488H80.8519L81.161 20.1763H88.4353L88.6719 23.6488H90.5926L91.0903 17.9041H89.6569V8.30029H89.6547ZM86.9315 10.5725V17.9041H82.36C82.8578 17.1844 83.176 16.1028 83.3028 14.6824L83.6928 10.5725H86.9293H86.9315Z" fill="black"/>
<path d="M99.7212 8.01313C98.5017 8.01313 97.4358 8.45535 96.6177 9.29571V8.30032H93.8486V25.4214H96.6423V19.6997C97.3485 20.207 98.2328 20.4635 99.2727 20.4635C102.356 20.4635 104.509 17.8946 104.509 14.2134C104.509 10.3294 102.72 8.01123 99.7233 8.01123M101.549 14.2364C101.549 16.6809 100.53 18.1415 98.8235 18.1415C97.7442 18.1415 97.0908 17.705 96.6423 17.3088V11.6962C96.9606 11.2789 97.7766 10.4021 99.0129 10.4021C101.219 10.4021 101.549 12.8045 101.549 14.2364Z" fill="black"/>
<path d="M115.594 16.9691V12.2504C115.594 9.39819 114.137 8.01416 111.141 8.01416C109.401 8.01416 107.852 8.59036 106.662 9.68151L106.568 9.76761L107.918 11.6225L108.034 11.523C108.918 10.7573 109.849 10.384 110.88 10.384C112.262 10.384 112.8 10.9009 112.8 12.2293V12.9243H112.492C109.469 12.9243 106.238 14.0249 106.238 17.1145C106.238 19.1187 107.647 20.4664 109.744 20.4664C110.974 20.4664 112.149 19.9495 112.954 19.0671C112.994 19.4135 113.058 19.827 113.115 20.0682L113.139 20.1793H115.914L115.876 20.007C115.772 19.5284 115.596 18.4966 115.596 16.9729M112.802 14.8883V17.0188C112.151 17.8171 111.346 18.221 110.406 18.221C109.772 18.221 109.031 17.8936 109.031 16.9729C109.031 15.5889 110.196 14.8883 112.492 14.8883H112.8H112.802Z" fill="black"/>
<path d="M117.32 10.5973H120.803V20.1782H123.621V10.5973H127.126V8.30029H117.32V10.5973Z" fill="black"/>
<path d="M149.358 16.566L149.235 16.6675C148.197 17.5117 147.052 17.906 145.628 17.906C143.32 17.906 140.627 16.344 140.627 11.9412C140.627 9.07936 142.152 6.19268 145.557 6.19268C146.866 6.19268 147.895 6.48747 148.892 7.15172L149.012 7.23023L150.419 5.00201L150.301 4.92544C148.944 4.03722 147.546 3.6582 145.628 3.6582C143.169 3.6582 141.09 4.53684 139.614 6.19842C138.268 7.71455 137.525 9.78764 137.525 12.0369C137.525 16.097 140.046 20.4673 145.58 20.4673C147.772 20.4673 149.671 19.6193 150.58 18.777L150.667 18.6966L149.361 16.5679L149.358 16.566Z" fill="black"/>
<path d="M134.14 12.7373H130.939V15.9724H134.14V12.7373Z" fill="black"/>
<path d="M44.1903 28.9961C44.8854 28.9961 45.6619 29.2373 46.16 29.7713L45.6827 30.4835C45.3305 30.1274 44.7812 29.8748 44.232 29.8748C43.1733 29.8748 42.4063 30.6825 42.4063 31.7622C42.4063 32.8419 43.1733 33.6707 44.2623 33.6707C44.8438 33.6707 45.4763 33.3874 45.8796 32.9586L46.285 33.7033C45.8077 34.2162 45.0104 34.5531 44.1903 34.5531C42.5314 34.5531 41.3799 33.3682 41.3799 31.7756C41.3799 30.1829 42.5408 28.998 44.1903 28.998" fill="#F02325"/>
<path d="M49.5703 29.1221H50.5343V32.2882C50.5343 32.5715 50.5135 32.9486 50.504 33.0004H50.5248C50.5665 32.9065 50.8146 32.539 50.9907 32.2882L53.252 29.1221H54.2273V34.4245H53.252V31.2603C53.252 31.0095 53.2822 30.642 53.2822 30.5578H53.2615C53.2311 30.6516 52.9717 31.0076 52.805 31.2603L50.5343 34.4245H49.5703V29.1221Z" fill="#F02325"/>
<path d="M57.3828 33.565C58.1499 33.4502 58.5646 32.6749 58.5646 30.7568V29.1221H62.0796V34.4264H61.074V29.9624H59.5286V30.7587C59.5286 33.1592 58.9282 34.3958 57.3828 34.4801V33.5689V33.565Z" fill="#F02325"/>
<path d="M68.5807 31.1218H68.8497V31.0166C68.8497 30.1475 68.3515 29.8527 67.6982 29.8527C67.1793 29.8527 66.6509 30.0633 66.2267 30.3657L65.8233 29.621C66.2475 29.265 67.0467 28.9932 67.7834 28.9932C69.0997 28.9932 69.8572 29.7263 69.8572 31.0682V34.422H68.9141V33.8879C68.9141 33.6467 68.9444 33.4687 68.9444 33.4687H68.9235C68.6224 34.0774 67.9804 34.5483 67.202 34.5483C66.2891 34.5483 65.4502 33.9721 65.4502 32.9767C65.4502 31.3113 67.4936 31.1218 68.5807 31.1218ZM67.4406 33.7424C68.3213 33.7424 68.8516 32.8408 68.8516 32.054V31.8549H68.5921C67.8459 31.8549 66.4558 31.9182 66.4558 32.8925C66.4558 33.3117 66.7873 33.7424 67.4406 33.7424Z" fill="#F02325"/>
<path d="M78.4531 29.1221H80.6195C81.6763 29.1221 82.3712 29.5929 82.3712 30.485C82.3712 30.998 82.1022 31.4383 81.6249 31.6489V31.6584C82.2783 31.8154 82.6211 32.3284 82.6211 32.9161C82.6211 33.902 81.8333 34.4245 80.6934 34.4245H78.4531V29.1221ZM80.4435 31.3655C81.0455 31.3655 81.3447 31.0516 81.3447 30.5578C81.3447 30.0639 81.0441 29.8246 80.4111 29.8246H79.4564V31.3655H80.4414H80.4435ZM80.5364 33.7124C81.2616 33.7124 81.6045 33.3775 81.6045 32.8836C81.6045 32.359 81.2201 32.0451 80.5252 32.0451H79.4564V33.7124H80.5343H80.5364Z" fill="#F02325"/>
<path d="M90.958 29.1221H91.9634V31.2603H92.6998L94.1298 29.1221H95.2718L93.518 31.647V31.668L95.478 34.4245H94.2854L92.721 32.1294H91.9634V34.4245H90.958V29.1221Z" fill="#F02325"/>
<path d="M98.5938 29.1221H100.76C101.817 29.1221 102.513 29.5929 102.513 30.485C102.513 30.998 102.244 31.4383 101.766 31.6489V31.6584C102.42 31.8154 102.762 32.3284 102.762 32.9161C102.762 33.902 101.975 34.4245 100.834 34.4245H98.5938V29.1221ZM100.584 31.3655C101.187 31.3655 101.486 31.0516 101.486 30.5578C101.486 30.0639 101.185 29.8246 100.552 29.8246H99.5977V31.3655H100.583H100.584ZM100.677 33.7124C101.402 33.7124 101.745 33.3775 101.745 32.8836C101.745 32.359 101.361 32.0451 100.668 32.0451H99.5998V33.7124H100.677Z" fill="#F02325"/>
<path d="M108.958 31.1218H109.227V31.0166C109.227 30.1475 108.73 29.8527 108.076 29.8527C107.557 29.8527 107.029 30.0633 106.605 30.3657L106.201 29.621C106.625 29.265 107.424 28.9932 108.161 28.9932C109.477 28.9932 110.235 29.7263 110.235 31.0682V34.422H109.292V33.8879C109.292 33.6467 109.322 33.4687 109.322 33.4687H109.301C109 34.0774 108.358 34.5483 107.58 34.5483C106.667 34.5483 105.828 33.9721 105.828 32.9767C105.828 31.3113 107.871 31.1218 108.958 31.1218ZM107.818 33.7424C108.699 33.7424 109.229 32.8408 109.229 32.054V31.8549H108.97C108.223 31.8549 106.834 31.9182 106.834 32.8925C106.834 33.3117 107.165 33.7424 107.818 33.7424Z" fill="#F02325"/>
<path d="M113.967 33.5861C114.704 32.5696 114.788 30.9138 114.788 30.0964V29.1221H118.332V33.5861H119.079V35.6822H118.156V34.4245H114.269V35.6822H113.325V33.5861H113.967ZM117.327 33.5861V29.949H115.751V30.2323C115.751 31.0287 115.668 32.539 115.005 33.5861H117.327Z" fill="#F02325"/>
<path d="M122.481 29.1224H123.414V29.5933C123.414 29.8135 123.382 29.9915 123.382 29.9915H123.403C123.735 29.3521 124.399 28.9961 125.166 28.9961C126.587 28.9961 127.467 30.1274 127.467 31.7737C127.467 33.42 126.471 34.5512 125.092 34.5512C124.429 34.5512 123.827 34.2162 123.463 33.6496H123.442C123.442 33.6496 123.484 33.8392 123.484 34.111V36.521H122.479V29.1224H122.481ZM124.938 33.6707C125.768 33.6707 126.452 32.9892 126.452 31.7832C126.452 30.5773 125.84 29.8862 124.969 29.8862C124.181 29.8862 123.456 30.4529 123.456 31.7947C123.456 32.7384 123.975 33.6707 124.938 33.6707Z" fill="#F02325"/>
<path d="M133.639 31.1218H133.908V31.0166C133.908 30.1475 133.409 29.8527 132.756 29.8527C132.237 29.8527 131.709 30.0633 131.285 30.3657L130.879 29.621C131.304 29.265 132.103 28.9932 132.839 28.9932C134.156 28.9932 134.913 29.7263 134.913 31.0682V34.422H133.97V33.8879C133.97 33.6467 134 33.4687 134 33.4687H133.98C133.678 34.0774 133.036 34.5483 132.258 34.5483C131.345 34.5483 130.506 33.9721 130.506 32.9767C130.506 31.3113 132.548 31.1218 133.637 31.1218M132.497 33.7424C133.377 33.7424 133.908 32.8408 133.908 32.054V31.8549H133.648C132.902 31.8549 131.512 31.9182 131.512 32.8925C131.512 33.3117 131.844 33.7424 132.497 33.7424Z" fill="#F02325"/>
<path d="M139.79 29.9912H137.965V29.1221H142.622V29.9912H140.787V34.4245H139.79V29.9912Z" fill="#F02325"/>
<path d="M148.027 28.9961C149.51 28.9961 150.298 30.1179 150.298 31.4808C150.298 31.6167 150.277 31.7641 150.256 31.9096H146.44C146.491 33.0524 147.3 33.6707 148.245 33.6707C148.805 33.6707 149.375 33.4295 149.79 33.0524L150.215 33.7971C149.707 34.2679 148.907 34.5512 148.182 34.5512C146.532 34.5512 145.393 33.3453 145.393 31.7737C145.393 30.0872 146.532 28.9961 148.027 28.9961ZM149.282 31.1764C149.25 30.2652 148.692 29.7829 148.006 29.7829C147.228 29.7829 146.616 30.2959 146.472 31.1764H149.282Z" fill="#F02325"/>
</g>
</g>
</svg>
