<svg width="146" height="24" viewBox="0 0 146 24" fill="none" xmlns="http://www.w3.org/2000/svg">
<g>
<path d="M69.4744 4.24262C69.4063 4.42336 69.3012 4.58787 69.1659 4.72561C69.0306 4.86334 68.8681 4.97127 68.6887 5.04247C68.5093 5.11367 68.317 5.14657 68.1242 5.13907C67.9314 5.13156 67.7422 5.08382 67.5689 4.99889C67.2559 4.86068 67.0053 4.61101 66.8657 4.29831C66.7262 3.98562 66.7077 3.6322 66.8139 3.30662C66.861 3.12668 66.9446 2.95838 67.0596 2.81221C67.1745 2.66604 67.3184 2.54513 67.482 2.45702C67.6403 2.37009 67.6904 2.45702 67.6403 2.58662C67.4677 3.02662 67.6765 3.55943 68.1444 3.73863C68.5754 3.88263 69.1445 3.76849 69.2596 3.37916C69.3166 3.17062 69.5111 3.16262 69.5474 3.34289C69.6074 3.64363 69.5827 3.95515 69.476 4.24262H69.4744ZM66.0567 15.4042V20.4085C66.0567 20.7322 65.949 20.9114 65.518 20.9472L65.0501 20.984C64.6553 21.0202 64.5461 20.8037 64.5098 20.4794L64.115 15.7269C64.0782 15.3312 64.2951 15.0437 64.7262 14.9706L65.3379 14.8634C65.8766 14.792 66.0567 14.936 66.0567 15.4042ZM75.0133 1.83089C75.746 1.54289 75.7113 0.677825 74.5817 0.355158C73.5389 0.0596913 72.7471 0.246358 71.5605 0.894358L70.9487 1.25489C69.7259 1.97489 69.331 0.714091 67.6403 0.822891C65.7689 0.966891 64.3313 2.80156 65.0501 4.78236C65.3016 5.46716 65.1215 5.93489 64.5461 6.18663L57.2413 9.57116C56.5933 9.85916 56.6296 10.4 57.2045 10.7589L57.5999 11.0106C58.1039 11.3349 58.1386 11.768 57.5999 12.0906L54.8664 13.8192C53.643 14.5754 54.0746 15.6192 55.1536 15.6192H56.2331C57.8508 15.5829 59.3268 15.5114 60.5135 15.4389C60.9813 15.4042 61.2328 15.5114 61.2328 15.9797L61.1252 22.1354C61.1252 22.928 61.3762 23.4688 62.4211 23.4688H71.9521C72.924 23.4688 73.248 22.9642 73.248 22.3157C73.248 21.3077 72.6 20.5157 71.1987 20.5872L69.9028 20.696C69.4717 20.7322 69.2548 20.5157 69.2186 20.0474L68.7875 14.648C68.7507 14.2512 68.8238 13.9994 69.3278 13.7829C73.3556 12.0906 73.7521 9.49862 72.8164 6.40316C72.5292 5.46716 72.0613 4.67462 71.6665 4.06236C71.3787 3.63036 71.5589 3.37969 71.9175 3.23569L75.0144 1.83089H75.0133Z" fill="#FF611D"/>
<path fill-rule="evenodd" clip-rule="evenodd" d="M99.2619 12.4118C99.6962 10.2784 101.046 9.19043 103.176 9.19043C105.263 9.19043 106.613 10.3227 107.047 12.4118L109.264 23.4688H105.873L105.304 20.552H101.016L100.436 23.4688H97.0447L99.2619 12.4118ZM102.481 13.1947L101.622 17.504H104.712L103.873 13.1947C103.742 12.6283 103.566 12.3675 103.176 12.3675C102.786 12.3675 102.61 12.6294 102.481 13.1947ZM73.6746 12.5408H76.9644V23.4683H80.3554V12.5414H83.6452V9.40856H73.6746V12.5408ZM95.6529 13.6736C95.6529 11.0176 93.9132 9.40803 90.999 9.40803H85.3898V23.4683H88.7808V18.2443H90.7385C91.6075 18.2443 91.955 18.6363 91.955 19.5062V23.4683H95.3476V18.8107C95.3476 17.7654 95.087 17.0694 94.4785 16.5904C95.2181 15.9814 95.6529 14.9355 95.6529 13.6736ZM90.7811 15.1542H88.7808V12.4987H90.7811C91.7812 12.4987 92.3045 12.9782 92.3045 13.848C92.3045 14.7179 91.7386 15.1547 90.7811 15.1547M132.358 23.4694H122.746V9.40803H132.358V12.5851H126.139V14.6304H131.923V17.8091H126.139V20.2891H132.358V23.4694ZM138.977 20.2907C138.412 20.2907 138.151 20.0294 138.151 19.4203V9.40856H134.759V20.3766C134.759 22.5099 135.759 23.4688 137.977 23.4688H144.413V20.2902L138.977 20.2907ZM115.876 19.7254C115.744 20.2907 115.571 20.5083 115.223 20.5083C114.875 20.5083 114.702 20.2902 114.571 19.7254L112.527 9.4091H109.09L111.309 20.464C111.743 22.5974 113.049 23.6859 115.223 23.6859C117.397 23.6859 118.658 22.5979 119.093 20.4646L121.311 9.40856H117.918L115.876 19.7254ZM15.2661 20.2902H21.4854V23.4688H11.875V9.40803H21.4854V12.5851H15.2661V14.6304H21.0506V17.8091H15.2661V20.2902ZM3.39264 19.4192V9.40856H0V20.3766C0 22.5099 1.00015 23.4688 3.21839 23.4688H9.65518V20.2902H4.21855C3.65266 20.2902 3.3921 20.0288 3.3921 19.4198M40.6189 20.2896H46.8383V23.4683H37.2284V9.4091H46.8388V12.5862H40.6189V14.6315H46.4035V17.8102H40.6194L40.6189 20.2896ZM52.6234 19.4203V9.40803H49.2308V20.376C49.2308 22.5094 50.2309 23.4683 52.4492 23.4683H58.8854V20.2896H53.4499C52.884 20.2896 52.6234 20.0283 52.6234 19.4192M33.2694 20.5072C32.8793 22.5536 31.5312 23.6843 29.3998 23.6843C27.2258 23.6843 25.9203 22.5963 25.4855 20.5067L23.2673 9.4075H26.7025L28.7471 19.68C28.8782 20.2891 29.0519 20.5072 29.3998 20.5072C29.7472 20.5072 29.9209 20.2891 30.052 19.6806L32.0529 9.40803H35.4881L33.2694 20.5072Z" fill="black"/>
</g>
</svg>
