<svg width="122" height="24" viewBox="0 0 122 24" fill="none" xmlns="http://www.w3.org/2000/svg">
<g clip-path="url(#clip0_5867_5328)">
<path fill-rule="evenodd" clip-rule="evenodd" d="M64.3731 22.8182C65.3265 22.2155 65.9532 21.3959 66.2572 20.3608H67.5722V23.4011H71.1028V20.0156H68.8231V0H65.6389V9.88594C65.2975 9.30421 64.804 8.81745 64.1596 8.42566C63.2574 7.84408 62.2219 7.55255 61.0589 7.55255C60.0564 7.55255 58.98 7.73564 58.0704 8.10318C57.1825 8.44825 56.4146 8.96508 55.7637 9.6551C55.1144 10.3438 54.6062 11.1972 54.2373 12.2097C53.8909 13.2025 53.7168 14.3447 53.7168 15.6388C53.7168 17.364 54.0198 18.83 54.6264 20.0369C55.232 21.2438 56.0663 22.1606 57.1269 22.7858C58.2121 23.4111 59.3691 23.7238 60.7992 23.7238C62.2293 23.7238 63.4212 23.4224 64.3731 22.8182ZM65.6389 14.7657V16.35L65.6374 16.3514H65.6403C65.6403 17.7104 65.2729 18.8215 64.5359 19.6834C63.799 20.5453 62.7266 20.9776 61.3192 20.9776C59.9122 20.9776 58.8285 20.4706 58.0704 19.4581C57.3124 18.4427 56.9336 17.1598 56.9336 15.6079C56.9336 14.508 57.1171 13.5701 57.4865 12.7942C57.854 11.9956 58.3735 11.3831 59.045 10.9507C59.7366 10.5184 60.5286 10.3029 61.4156 10.3029C62.2391 10.3029 62.9642 10.4761 63.5924 10.8212C64.2201 11.1436 64.717 11.6394 65.0859 12.3083C65.4554 12.9758 65.6389 13.7954 65.6389 14.7657Z" fill="black"/>
<path d="M6.20247 9.13596C5.66075 9.65417 5.27178 10.2781 5.03275 11.0118H3.4611V7.87694H0V11.2625H2.49811V23.4003H5.68195V14.0522C5.68195 12.9312 6.04972 12.037 6.78664 11.3681C7.54339 10.7006 8.45426 10.3654 9.51507 10.3654C10.6848 10.3654 11.5391 10.6667 12.0808 11.2709C12.6211 11.8736 12.8927 12.6721 12.8927 13.6635V23.4003H16.1091V14.0522C16.1091 12.9312 16.4769 12.037 17.2138 11.3681C17.9705 10.678 18.8814 10.333 19.9422 10.333C21.1119 10.333 21.9549 10.6343 22.4755 11.2385C23.0157 11.8413 23.2873 12.651 23.2873 13.6635V23.3975H26.5037V13.1129C26.5037 11.906 26.2661 10.8907 25.7894 10.0725C25.334 9.23172 24.6862 8.60644 23.8403 8.19663C22.9959 7.76429 21.9988 7.54883 20.8517 7.54883C19.9861 7.54883 19.153 7.69954 18.351 8.00228C17.549 8.28396 16.846 8.71347 16.2392 9.29652C15.9334 9.60176 15.6748 9.94525 15.4636 10.327C15.32 10.033 15.1453 9.75443 14.9394 9.49082C14.484 8.88671 13.8786 8.41351 13.1204 8.0685C12.3637 7.72349 11.4642 7.55025 10.4246 7.55025C9.60278 7.55025 8.8234 7.69107 8.08648 7.97133C7.37219 8.23043 6.74419 8.61771 6.20247 9.13596Z" fill="black"/>
<path d="M30.123 7.87695V23.4018H33.3071V7.87695H30.123Z" fill="black"/>
<path d="M37.2334 23.4014V7.87664H40.3524V10.2431C40.5649 9.83239 40.8352 9.46451 41.1627 9.13845C41.7058 8.62024 42.3409 8.23291 43.0722 7.97381C43.822 7.69355 44.5957 7.55273 45.3863 7.55273C46.512 7.55273 47.5744 7.7682 48.44 8.20054C49.3269 8.61035 50.0102 9.22436 50.4864 10.044C50.9631 10.8622 51.2012 11.8775 51.2012 13.0844V23.4014H47.9846V13.6647C47.9846 12.6521 47.703 11.8536 47.1386 11.272C46.5759 10.6678 45.6876 10.3665 44.4753 10.3665C43.3706 10.3665 42.4172 10.7016 41.6169 11.3692C40.8163 12.017 40.4146 12.9112 40.4146 14.0533V23.4014H37.2334Z" fill="black"/>
<path fill-rule="evenodd" clip-rule="evenodd" d="M73.8628 23.4012V23.3999H77.0127V21.5723C77.3934 22.1055 77.8918 22.5533 78.5067 22.9154C79.4827 23.4534 80.5969 23.7238 81.8528 23.7238C82.9351 23.7238 83.9096 23.5407 84.7764 23.1731C85.6437 22.807 86.389 22.2676 87.0186 21.5564C87.6695 20.8241 88.154 19.9496 88.4797 18.937C88.826 17.9005 89.0002 16.7373 89.0002 15.4431C89.0002 13.718 88.6971 12.2745 88.0906 11.1098C87.4855 9.9241 86.6605 9.04109 85.6225 8.45809C84.5845 7.85535 83.4005 7.55255 82.1795 7.55255C81.3171 7.55255 80.5069 7.68211 79.7483 7.94126C79.0114 8.20036 78.3807 8.56648 77.8544 9.04109C77.5287 9.33477 77.2596 9.66083 77.0466 10.0202V0H73.8628V23.3999H73.8604L73.8628 23.4012ZM77.0466 16.8993C77.0466 17.7414 77.2532 18.4737 77.665 19.099C78.0762 19.7031 78.607 20.1665 79.2559 20.4889C79.9279 20.8128 80.6638 20.9748 81.4652 20.9748C82.3521 20.9748 83.1215 20.748 83.7724 20.2946C84.4232 19.8411 84.9196 19.206 85.2659 18.3864C85.6127 17.5457 85.7863 16.5852 85.7863 15.5079C85.7863 13.8912 85.3962 12.6181 84.6165 11.6901C83.8589 10.7634 82.8092 10.3001 81.4652 10.3001C80.686 10.3001 79.9603 10.4733 79.2889 10.8183C78.6169 11.1423 78.0762 11.6154 77.665 12.2407C77.2532 12.866 77.0466 13.6532 77.0466 14.601V16.8964H77.0481L77.0466 16.8993Z" fill="black"/>
<path d="M30.1182 1.81006H33.3598V5.19552H30.1182V1.81006Z" fill="black"/>
<path fill-rule="evenodd" clip-rule="evenodd" d="M98.4894 23.666C96.9984 23.666 95.6819 23.3534 94.5362 22.731C93.4131 22.1071 92.5277 21.1931 91.8798 19.989C91.2309 18.785 90.9082 17.3119 90.9082 15.5699C90.9082 14.2799 91.0809 13.1294 91.4272 12.1182C91.7952 11.1085 92.3112 10.2677 92.9817 9.60302C93.6522 8.93553 94.4496 8.43138 95.3789 8.08637C96.3067 7.7202 97.3452 7.53711 98.4894 7.53711C100.001 7.53711 101.319 7.84975 102.441 8.47223C103.564 9.07497 104.429 9.97762 105.033 11.1817C105.659 12.3647 105.972 13.8264 105.972 15.5685C105.972 16.8585 105.799 18.009 105.453 19.0201C105.107 20.0087 104.6 20.8481 103.929 21.5353C103.28 22.224 102.494 22.7507 101.563 23.1154C100.656 23.4816 99.6292 23.6647 98.4855 23.6647H98.487L98.4894 23.666ZM98.4894 20.927C99.2022 20.927 99.829 20.8087 100.369 20.572C100.91 20.3144 101.352 19.9581 101.697 19.5074C102.065 19.0553 102.335 18.4977 102.508 17.8302C102.703 17.1627 102.801 16.4106 102.801 15.5713C102.801 13.8729 102.433 12.5717 101.699 11.669C100.986 10.7451 99.9165 10.2818 98.4909 10.2818C97.5843 10.2818 96.7947 10.486 96.1262 10.8958C95.4557 11.3042 94.9495 11.9056 94.6026 12.7026C94.2573 13.4758 94.0832 14.4334 94.0832 15.5727C94.0832 17.25 94.4728 18.5625 95.249 19.5074C96.0484 20.4538 97.1287 20.927 98.4894 20.927Z" fill="black"/>
<path d="M114.103 17.5418L118.068 23.3438H121.793L116.057 15.2833L121.469 7.85986H117.84L114.243 13.1925L110.584 7.85986H106.858L112.281 15.4782L106.533 23.3438H110.162L114.103 17.5418Z" fill="black"/>
</g>
<defs>
<clipPath id="clip0_5867_5328">
<rect width="122" height="24" fill="white"/>
</clipPath>
</defs>
</svg>
