<svg width="100" height="20" viewBox="0 0 100 20" fill="none" xmlns="http://www.w3.org/2000/svg">
<path d="M61.0319 0C52.593 0 45.7539 4.47159 45.7539 9.99389C45.7539 15.5162 52.593 19.9878 61.0319 19.9878C69.4707 19.9878 76.3098 15.5162 76.3098 9.99389C76.3098 4.47159 69.4707 0 61.0319 0ZM61.0319 15.3329C55.206 15.3329 50.8466 12.5229 50.8466 10.0061C50.8466 7.48932 55.206 4.67928 61.0319 4.67928C66.8578 4.67928 71.2172 7.48932 71.2172 10.0061C71.2172 12.5229 66.8711 15.3329 61.0319 15.3329Z" fill="black"/>
<path d="M10.9185 0C4.89268 0 0.0133316 4.47159 0 9.99389C0 15.5162 4.87936 19.9878 10.9052 20C16.9311 20 21.8104 15.5284 21.8238 10.0061C21.8238 4.4716 16.9444 0 10.9185 0ZM16.7311 9.99389C16.7311 12.9383 14.1315 15.3207 10.9185 15.3329C7.70564 15.3329 5.09266 12.9505 5.09266 10.0061C5.09266 7.0617 7.69231 4.66707 10.9052 4.66707C14.1181 4.66707 16.7311 7.04947 16.7311 9.99389Z" fill="black"/>
<path d="M41.7678 14.8809H33.1156L44.1541 1.52718C44.5141 1.08736 44.1808 0.452041 43.5675 0.452041H27.703C26.1299 0.452041 24.7834 1.77153 25.1167 3.26206C25.3566 4.36163 26.4765 5.1069 27.703 5.1069H34.8087L23.7568 18.4728C23.3969 18.9126 23.7302 19.5357 24.3301 19.5357H41.6744C42.9009 19.5357 44.0208 18.7905 44.2608 17.6909C44.5941 16.1881 43.3409 14.8809 41.7678 14.8809Z" fill="black"/>
<path d="M100 2.78557V18.876C100 19.0226 99.9467 19.1692 99.84 19.2914C99.5867 19.5846 99.1201 19.6335 98.8002 19.4013L85.042 9.39524V17.2144C85.042 18.5339 83.8555 19.5846 82.4157 19.548C81.0292 19.5113 79.9494 18.4239 79.9494 17.1533V1.124C79.9494 0.965169 80.0027 0.818559 80.1093 0.696385C80.3626 0.415383 80.8292 0.366522 81.1358 0.598654L94.894 10.6048V2.84666C94.894 1.57604 95.9739 0.500905 97.347 0.452035C98.8002 0.403165 100 1.46608 100 2.78557Z" fill="black"/>
</svg>
