<svg width="110" height="32" viewBox="0 0 110 32" fill="none" xmlns="http://www.w3.org/2000/svg">
<g clip-path="url(#clip0_5867_5566)">
<path d="M16.5117 6.12354C22.1583 6.12354 26.7042 10.5284 26.7042 16C26.7042 21.4715 22.1583 25.8764 16.5117 25.8764C10.8651 25.8764 6.31934 21.4715 6.31934 16C6.31934 10.5284 10.8651 6.12354 16.5117 6.12354Z" fill="#104010"/>
<path d="M16.5118 0C25.6594 0 33.0239 7.136 33.0239 16C33.0239 24.864 25.6594 32 16.5118 32C7.36424 32 0 24.864 0 16C0 7.136 7.36424 0 16.5118 0ZM16.5118 9.91991C13.0357 9.91991 10.2372 12.6317 10.2372 16C10.2372 19.3683 13.0357 22.0799 16.5118 22.0799C19.9879 22.0799 22.7862 19.3683 22.7862 16C22.7862 12.6317 19.9879 9.91991 16.5118 9.91991Z" fill="#33CC33"/>
<path d="M76.3549 3.02686V22.4868H81.0966V3.02686H76.3549ZM83.5018 3.02686V22.4868H88.2435V11.6757H92.3685V7.62157H88.2435V3.02686H83.5018ZM48.2203 9.2432C45.5626 9.2432 43.2619 10.6695 42.0845 12.7784V10.054H37.3428V29.514H42.0845V19.2218C43.2619 21.3307 45.5626 22.7571 48.2203 22.7571C52.0834 22.7571 55.1933 19.7434 55.1933 16.0001C55.1933 12.2568 52.0834 9.2432 48.2203 9.2432ZM63.0718 9.2432C59.2088 9.2432 56.0987 12.2568 56.0987 16.0001C56.0987 19.7434 59.2088 22.7571 63.0718 22.7571C65.7294 22.7571 68.0307 21.3307 69.2081 19.2218V22.4868H73.9498V10.054H69.2081V12.7784C68.0307 10.6695 65.7294 9.2432 63.0718 9.2432ZM99.1215 9.2432C95.2585 9.2432 92.1484 12.2568 92.1484 16.0001C92.1484 19.7434 95.2585 22.7571 99.1215 22.7571C101.78 22.7571 104.081 21.3303 105.258 19.2208V22.4868H110V10.054H105.258V12.7795C104.081 10.67 101.78 9.2432 99.1215 9.2432ZM48.2203 13.4325C49.6882 13.4325 50.87 14.5776 50.87 16.0001C50.87 17.4226 49.6882 18.5677 48.2203 18.5677C46.7523 18.5677 45.5705 17.4226 45.5705 16.0001C45.5705 14.5776 46.7523 13.4325 48.2203 13.4325ZM63.0718 13.4325C64.5397 13.4325 65.7215 14.5776 65.7215 16.0001C65.7215 17.4226 64.5397 18.5677 63.0718 18.5677C61.6038 18.5677 60.422 17.4226 60.422 16.0001C60.422 14.5776 61.6038 13.4325 63.0718 13.4325ZM99.1215 13.4325C100.589 13.4325 101.771 14.5776 101.771 16.0001C101.771 17.4226 100.589 18.5677 99.1215 18.5677C97.6535 18.5677 96.4717 17.4226 96.4717 16.0001C96.4717 14.5776 97.6535 13.4325 99.1215 13.4325Z" fill="#33CC33"/>
</g>
<defs>
<clipPath id="clip0_5867_5566">
<rect width="110" height="32" fill="white"/>
</clipPath>
</defs>
</svg>
