<svg width="87" height="20" viewBox="0 0 87 20" fill="none" xmlns="http://www.w3.org/2000/svg">
<mask id="mask0_5867_5547" maskUnits="userSpaceOnUse" x="0" y="0" width="87" height="20">
<path d="M87 0H0V20H87V0Z" fill="white"/>
</mask>
<g mask="url(#mask0_5867_5547)">
<path d="M44.9652 12.8012C44.1111 12.1962 42.8965 11.7879 41.1431 11.512C38.9681 11.1395 37.7886 10.7454 37.7886 9.72453C37.7886 8.92703 38.5348 8.07369 40.6278 8.07369C41.6626 8.07369 42.4556 8.4012 42.9843 9.0462C43.2353 9.3512 43.426 9.7287 43.5507 10.1654C43.6 10.3387 43.759 10.4604 43.9388 10.4604L45.826 10.4587C45.9448 10.4587 46.0578 10.407 46.1331 10.3162C46.21 10.2245 46.2426 10.1054 46.2217 9.98787C45.8921 8.13036 44.7703 7.10869 44.4349 6.84036C43.4545 6.05536 42.1737 5.65869 40.6286 5.65869C39.0175 5.65869 37.6271 6.05036 36.6099 6.79286C35.5759 7.54786 35.0297 8.58953 35.0297 9.80787C35.0297 12.7012 37.7007 13.5379 40.5876 14.0104C43.3214 14.4137 43.6895 15.1529 43.6895 15.8237C43.6895 16.9087 42.5167 17.5829 40.6278 17.5829C40.2982 17.5829 39.9862 17.5554 39.6984 17.5029C39.6909 17.4987 39.6825 17.4954 39.6733 17.4937C38.4277 17.2454 37.5945 16.4737 37.126 15.1387C37.07 14.9787 36.9177 14.8695 36.7463 14.8695H34.7536C34.634 14.8695 34.5219 14.9229 34.4449 15.0129C34.368 15.1045 34.337 15.2245 34.3579 15.3412C34.496 16.0912 34.8565 16.737 34.8724 16.7645L34.8741 16.767C35.7332 18.6095 37.3837 19.7095 39.6499 19.9495C39.6541 19.9495 39.6566 19.9512 39.6599 19.9495C39.9778 19.9829 40.3032 19.9995 40.6286 19.9995C42.2666 19.9995 43.7472 19.582 44.7996 18.8245C45.8628 18.0579 46.4501 16.9737 46.4501 15.7687C46.4501 14.4787 45.9649 13.5079 44.9661 12.8004L44.9652 12.8012Z" fill="#C209C1"/>
<path d="M18.3072 5.74805H15.9039C15.7633 5.74805 15.6504 5.86055 15.6504 6.00055V19.6639C15.6504 19.8039 15.7633 19.9164 15.9039 19.9164H18.3072C18.4478 19.9164 18.5607 19.8039 18.5607 19.6639V6.00055C18.559 5.86055 18.4461 5.74805 18.3072 5.74805Z" fill="#C209C1"/>
<path d="M86.8758 15.9778C86.7679 15.8436 86.6081 15.767 86.435 15.767H84.5528C84.3194 15.767 84.1127 15.9095 84.0257 16.1303C83.7204 16.8945 83.018 17.2978 81.9857 17.2978H81.9756C80.5284 17.2961 79.7638 16.5261 79.7638 15.0703V8.43865C79.7638 8.38281 79.809 8.33865 79.8642 8.33865H85.5081C85.8193 8.33865 86.0719 8.08781 86.0719 7.77864V6.30781C86.0719 5.99864 85.8193 5.74781 85.5081 5.74781H79.8642C79.8082 5.74781 79.7638 5.70281 79.7638 5.64864V2.64447C79.7638 2.33531 79.5112 2.08447 79.2 2.08447H77.4115C77.1003 2.08447 76.8477 2.33531 76.8477 2.64447V15.1828C76.8477 18.1095 78.8512 19.9995 81.9505 19.9995L81.979 19.9978H81.9915C82.0007 19.9978 82.0083 19.9995 82.0175 19.9995C84.623 19.9995 86.481 18.6703 86.9837 16.4453C87.0222 16.2811 86.9829 16.1095 86.8758 15.9778Z" fill="#C209C1"/>
<path d="M73.789 7.47389C72.6437 6.33222 71.1179 5.68722 69.4908 5.66055C67.8378 5.63305 66.2718 6.24722 65.0806 7.39555C63.8634 8.56806 63.1934 10.1364 63.1934 11.8106C63.1934 11.8106 63.1934 12.3681 63.1934 13.1922V19.6664C63.1934 19.8064 63.3063 19.9189 63.4468 19.9189H65.8502C65.9907 19.9189 66.1037 19.8064 66.1037 19.6664V11.7289C66.1037 10.8589 66.4542 10.0431 67.09 9.43306C67.7257 8.82306 68.5664 8.49723 69.454 8.51806C71.1589 8.55556 72.6546 9.99473 72.6546 11.5964L72.6529 11.7397C72.6513 11.8081 72.6789 11.8731 72.7282 11.9222C72.7776 11.9714 72.8428 11.9972 72.9131 11.9981C73.4577 11.9997 74.7368 11.9997 75.3048 11.9981C75.4478 11.9981 75.5649 11.8831 75.5649 11.7422V11.7264C75.5649 10.1272 74.9333 8.61723 73.7881 7.47472L73.789 7.47389Z" fill="#C209C1"/>
<path d="M32.9141 14.8722H30.7843C30.6948 14.8722 30.6111 14.9114 30.5543 14.9772C30.5292 15.0047 30.5099 15.0339 30.4957 15.0689C29.9168 16.5456 28.6821 17.3931 27.1077 17.3931C25.9349 17.3931 24.875 16.9364 24.1238 16.1097C23.3743 15.2839 22.961 14.1239 22.961 12.8431C22.961 11.5506 23.3734 10.3814 24.1238 9.5514C24.8742 8.7214 25.9332 8.26473 27.1077 8.26473C28.7047 8.26473 29.9494 9.12057 30.5233 10.6122C30.5702 10.7339 30.6831 10.8114 30.8111 10.8114H32.9409C33.0388 10.8114 33.1283 10.7672 33.1894 10.6889C33.2379 10.6256 33.2571 10.5456 33.2521 10.4664C33.2379 10.2647 33.2011 10.0539 33.1442 9.84307C33.135 9.8039 33.1141 9.73974 33.1141 9.73974C32.8196 8.76474 32.1855 8.01139 32.1587 7.97889C32.1571 7.97723 32.1562 7.97639 32.1546 7.97473C30.9909 6.47889 29.1999 5.65723 27.1077 5.65723C25.1059 5.65723 23.2973 6.41889 22.0182 7.80223C20.7944 9.12473 20.1201 10.9156 20.1201 12.8414C20.1201 14.7531 20.7868 16.5306 21.9981 17.8472C23.2931 19.2547 25.0599 19.9981 27.1086 19.9981C27.9811 19.9981 28.7775 19.8697 29.4877 19.6164C31.1357 18.9664 32.439 17.8764 33.1166 15.8372C33.1735 15.6264 33.2119 15.4156 33.2245 15.2139C33.2295 15.1347 33.2119 15.0547 33.1618 14.9914C33.1007 14.9156 33.0112 14.8714 32.9133 14.8714L32.9141 14.8722Z" fill="#C209C1"/>
<path d="M17.1214 0.000488281C15.9327 0.000488281 14.9648 0.961323 14.9648 2.14299C14.9648 3.32466 15.9319 4.28549 17.1214 4.28549C18.2926 4.28549 19.2471 3.32466 19.2471 2.14299C19.2471 0.961323 18.2926 0.000488281 17.1214 0.000488281Z" fill="#C209C1"/>
<path d="M7.06136 0.000488281H7.05132C5.21094 0.000488281 3.46926 0.716321 2.1467 2.01882C2.02205 2.14132 1.79033 2.39882 1.79033 2.39882C1.71086 2.48966 1.6339 2.58132 1.56028 2.67549C1.55108 2.68716 1.53017 2.71466 1.53017 2.71466C0.600775 3.89882 0.0628804 5.34382 0.000976562 6.87632V19.663C0.000976562 19.7147 0.0168708 19.7638 0.04364 19.8038C0.0888133 19.8713 0.167448 19.9147 0.254448 19.9147H2.65447C2.79501 19.9147 2.90795 19.8022 2.90795 19.6622V13.1547C2.90795 13.1097 2.9389 13.0888 2.95228 13.0822C2.98072 13.068 3.01335 13.0705 3.03928 13.0888C4.22131 13.9213 5.60913 14.3547 7.04965 14.3547C8.14969 14.3547 9.17108 14.1013 10.1155 13.6413C12.4863 12.4855 14.1234 10.0263 14.1234 7.17466C14.1234 3.20882 10.9613 0.000488281 7.06136 0.000488281ZM7.05048 11.6122C4.68392 11.6122 2.75904 9.62383 2.75904 7.18049C2.75904 4.73716 4.68392 2.74882 7.05048 2.74882C9.41702 2.74882 11.3419 4.73716 11.3419 7.18049C11.3419 9.62383 9.41702 11.6122 7.05048 11.6122Z" fill="#C209C1"/>
<path d="M61.547 12.7444C61.5018 8.82856 58.3564 5.65771 54.4941 5.65771C50.6042 5.65771 47.4404 8.87522 47.4404 12.8302C47.4404 16.0036 49.4799 18.7019 52.2957 19.6427C52.3074 19.6469 52.3208 19.6502 52.3325 19.6552C52.3651 19.6652 52.3978 19.6769 52.4312 19.6877C53.0519 19.8894 53.7396 19.9994 54.4632 19.9994C56.2207 19.9994 57.8921 19.3427 58.7747 18.3469C58.8148 18.3019 58.8918 18.3302 58.8918 18.3911C58.8918 18.9086 58.8918 19.4852 58.8918 19.5919V19.6594C58.8918 19.8002 59.0072 19.9152 59.1495 19.9152H61.291C61.4332 19.9152 61.5487 19.8002 61.5487 19.6594V12.7444H61.547ZM54.495 17.2452C52.1008 17.2452 50.1533 15.2636 50.1533 12.8294C50.1533 10.3952 52.1008 8.41356 54.495 8.41356C56.8891 8.41356 58.8366 10.3952 58.8366 12.8294C58.8366 15.2636 56.8891 17.2452 54.495 17.2452Z" fill="#C209C1"/>
</g>
</svg>
