<svg width="137" height="26" viewBox="0 0 137 26" fill="none" xmlns="http://www.w3.org/2000/svg">
<g clip-path="url(#clip0_5867_5309)">
<path d="M132.083 5.62185H136.5L128.548 25.9623H124.24L126.564 19.9342L119.933 5.6212H124.461L128.658 14.5021L132.083 5.62185ZM113.015 20.2884C111.559 20.2884 109.984 19.8711 109.032 18.8012V26H104.931V5.62185H109.032V6.7223C109.984 5.6511 111.559 5.2351 113.015 5.2351C117.593 5.2351 120.328 8.8946 120.328 12.7614C120.328 16.6276 117.593 20.2871 113.015 20.2871V20.2884ZM112.659 9.01355C110.845 9.01355 108.854 10.2628 108.854 12.7621C108.854 15.2613 110.845 16.5106 112.659 16.5106C114.769 16.5106 116.225 14.7556 116.225 12.7621C116.225 10.7685 114.769 9.01355 112.659 9.01355ZM102.902 16.8116C102.902 17.2209 102.822 17.6263 102.666 18.0045C102.509 18.3828 102.28 18.7265 101.99 19.016C101.701 19.3056 101.358 19.5353 100.979 19.6921C100.601 19.8488 100.196 19.9296 99.7867 19.9296H93.5558C92.7293 19.9291 91.9368 19.6004 91.3527 19.0156C90.7686 18.4309 90.4407 17.6381 90.441 16.8116C90.4407 15.9851 90.7686 15.1923 91.3527 14.6076C91.9368 14.0228 92.7293 13.6941 93.5558 13.6935H99.7867C100.196 13.6937 100.601 13.7745 100.979 13.9313C101.357 14.0881 101.701 14.3178 101.99 14.6073C102.279 14.8969 102.509 15.2406 102.665 15.6188C102.822 15.997 102.902 16.4023 102.902 16.8116ZM93.3634 8.5579C93.3548 8.12598 93.4324 7.69667 93.5917 7.29511C93.751 6.89355 93.9888 6.52781 94.2912 6.21929C94.5936 5.91078 94.9545 5.66569 95.3528 5.49837C95.7511 5.33105 96.1788 5.24487 96.6108 5.24487C97.0428 5.24487 97.4705 5.33105 97.8688 5.49837C98.2671 5.66569 98.628 5.91078 98.9304 6.21929C99.2328 6.52781 99.4706 6.89355 99.6299 7.29511C99.7892 7.69667 99.8668 8.12598 99.8582 8.5579C99.8582 10.3519 98.4048 11.8079 96.6108 11.8079C96.1842 11.8077 95.7618 11.7235 95.3677 11.5601C94.9736 11.3967 94.6155 11.1572 94.314 10.8555C94.0125 10.5537 93.7733 10.1954 93.6102 9.80122C93.4471 9.40701 93.3632 8.98453 93.3634 8.5579ZM73.7458 5.62185H77.8472V14.248L84.2978 5.6212H88.3993V19.9011H84.2978V11.2749L77.8472 19.9017H73.7458V5.6212V5.62185ZM59.0024 0H63.1039V5.6225H64.2928C68.692 5.6225 71.9316 8.65735 71.9316 12.7621C71.9316 17.1652 68.8993 19.9017 64.322 19.9017H63.102V25.9708H59.0005V19.9017H57.7817C53.1745 19.9017 50.2027 17.1652 50.2027 12.7621C50.2027 8.65735 53.4131 5.6225 57.8415 5.6225H59.0005V0H59.0024ZM57.7239 9.1923C55.5535 9.1923 54.3055 10.6203 54.3055 12.7621C54.3055 14.9038 55.4651 16.3319 57.7531 16.3319H59.0012V9.1923H57.7239ZM63.1052 9.1923V16.3319H64.3831C66.6718 16.3319 67.8314 14.8141 67.8314 12.7621C67.8314 10.71 66.5528 9.1923 64.3831 9.1923H63.1052ZM49.1348 12.792C49.1348 17.225 45.5968 20.2884 41.3465 20.2884C37.0955 20.2884 33.5289 17.1346 33.5289 12.7914C33.5289 8.44805 37.0064 5.2351 41.3159 5.2351C45.6254 5.2351 49.1335 8.3889 49.1335 12.7914L49.1348 12.792ZM38.7003 10.0256C37.9275 10.7991 37.6298 11.7208 37.6298 12.7926C37.6298 14.9942 39.2048 16.5106 41.3452 16.5106C43.485 16.5106 45.0307 14.9038 45.0307 12.7926C45.0307 12.2271 44.9423 11.7208 44.7642 11.2457C44.3482 10.2934 43.7235 9.7279 42.8025 9.28265C42.3372 9.10495 41.8433 9.01417 41.3452 9.01485C40.2747 9.01485 39.5018 9.3418 38.6997 10.0269L38.7003 10.0256ZM25.1472 20.2884C23.6899 20.2884 22.1149 19.8711 21.1633 18.8012V26H17.0618V5.62185H21.1633V6.7223C22.1149 5.6511 23.6899 5.2351 25.1472 5.2351C29.7245 5.2351 32.459 8.8946 32.459 12.7614C32.459 16.6276 29.7245 20.2871 25.1465 20.2871L25.1472 20.2884ZM24.7897 9.01355C22.9762 9.01355 20.9846 10.2628 20.9846 12.7621C20.9846 15.2613 22.9768 16.5106 24.7897 16.5106C26.9009 16.5106 28.3562 14.7556 28.3562 12.7621C28.3562 10.7685 26.8996 9.01355 24.7897 9.01355ZM14.4469 5.62185V19.9017H10.3454V9.191H4.1028V19.9011H0V5.6212H14.4469V5.62185Z" fill="#FA2A48"/>
</g>
<defs>
<clipPath id="clip0_5867_5309">
<rect width="136.5" height="26" fill="white"/>
</clipPath>
</defs>
</svg>
