<svg width="123" height="34" viewBox="0 0 123 34" fill="none" xmlns="http://www.w3.org/2000/svg">
<g clip-path="url(#clip0_5643_15617)">
<path d="M5.69623 1.57494C6.37038 1.56878 7.03989 1.68693 7.67122 1.92347C8.25869 2.14168 8.79736 2.47362 9.2564 2.90026C9.70926 3.32739 10.0671 3.84512 10.3066 4.41972C10.5672 5.04513 10.6972 5.71722 10.6887 6.3947C10.6947 7.05691 10.569 7.71371 10.3188 8.32689C10.0874 8.89829 9.74025 9.41562 9.2992 9.84635C8.8486 10.2752 8.31768 10.6108 7.73695 10.8338C7.09295 11.077 6.40897 11.1967 5.72069 11.187H3.74264V17.1562H1.28766V1.57494H5.69623ZM3.74264 4.22406V8.54395H6.08603C6.36778 8.55109 6.64812 8.5019 6.91062 8.39927C7.17311 8.29664 7.41247 8.14262 7.61466 7.94626C7.82042 7.74105 7.98108 7.49516 8.08637 7.2243C8.19166 6.95346 8.23925 6.66361 8.22611 6.37331C8.23345 6.09165 8.1845 5.81137 8.08213 5.54889C7.97976 5.2864 7.82603 5.04699 7.62995 4.84468C7.42864 4.63876 7.18645 4.4773 6.91896 4.37067C6.65146 4.26403 6.36461 4.21461 6.07685 4.22558L3.74264 4.22406Z" fill="#38056C"/>
<path d="M16.8535 15.0101C17.5386 15.0125 18.2162 14.8682 18.8407 14.5867C19.3829 14.3697 19.8636 14.0234 20.241 13.5779L20.935 15.4228C20.7717 15.7076 20.5655 15.9654 20.3236 16.1871C20.0444 16.4464 19.7305 16.6655 19.391 16.8383C19.0085 17.0338 18.6042 17.1831 18.1866 17.2833C17.721 17.3947 17.2437 17.4497 16.7649 17.4468C15.98 17.4537 15.2004 17.3175 14.4643 17.0448C13.777 16.7913 13.149 16.3996 12.6192 15.8936C12.0858 15.3803 11.6687 14.7585 11.3964 14.07C11.0982 13.3061 10.9508 12.4916 10.9622 11.6716C10.9576 10.9171 11.0865 10.1677 11.3429 9.45816C11.5895 8.77746 11.9647 8.15055 12.4481 7.61157C12.932 7.07165 13.5235 6.63895 14.1845 6.34128C14.907 6.02519 15.6892 5.86876 16.4775 5.88269C17.2035 5.87239 17.9227 6.02163 18.5847 6.31983C19.2467 6.61805 19.835 7.05796 20.3083 7.60851C20.7729 8.15133 21.1304 8.77744 21.3615 9.45357C21.61 10.1582 21.7372 10.8999 21.7375 11.6471C21.7397 11.9378 21.7182 12.2282 21.6733 12.5154H13.3806C13.4966 13.3705 13.8662 14.0002 14.4887 14.4048C15.1114 14.8094 15.8997 15.0112 16.8535 15.0101ZM19.2643 10.3876C19.2324 10.0871 19.1353 9.79727 18.9795 9.53844C18.8237 9.27962 18.613 9.05811 18.3623 8.88951C17.8125 8.50667 17.1549 8.30908 16.4851 8.32543C16.1229 8.32305 15.7623 8.37458 15.4151 8.4783C15.0955 8.57342 14.7919 8.71617 14.5147 8.90173C14.253 9.07629 14.0251 9.29693 13.8421 9.55293C13.6624 9.80187 13.5398 10.0874 13.4829 10.3891L19.2643 10.3876Z" fill="#38056C"/>
<path d="M25.9269 6.15728V10.2372H31.2235V6.15728H33.5884V17.1635H31.2235V12.7549H25.9269V17.1619H23.5605V6.15576L25.9269 6.15728Z" fill="#38056C"/>
<path d="M41.2923 15.0102C41.9774 15.0127 42.655 14.8683 43.2796 14.5868C43.8212 14.3698 44.3014 14.0235 44.6782 13.578L45.3737 15.423C45.2104 15.7077 45.0042 15.9655 44.7623 16.1874C44.4832 16.4466 44.1694 16.6657 43.8299 16.8385C43.4474 17.034 43.043 17.1832 42.6253 17.2834C42.1598 17.3948 41.6824 17.4499 41.2036 17.4469C40.4182 17.4537 39.6382 17.3175 38.9016 17.0449C38.2143 16.7906 37.5864 16.3984 37.0565 15.8923C36.5229 15.379 36.1058 14.7571 35.8336 14.0687C35.5355 13.3046 35.3881 12.4902 35.3995 11.6702C35.3949 10.9157 35.5237 10.1664 35.78 9.45676C36.0235 8.77704 36.3957 8.1506 36.8762 7.6117C37.3601 7.07178 37.9515 6.63908 38.6126 6.34141C39.3374 6.02424 40.1222 5.86779 40.9132 5.88283C41.6392 5.87253 42.3584 6.02176 43.0205 6.31997C43.6824 6.61818 44.2707 7.0581 44.744 7.60864C45.2081 8.15185 45.5655 8.77784 45.7972 9.4537C46.0468 10.1582 46.1749 10.8999 46.1763 11.6473C46.1785 11.938 46.157 12.2283 46.112 12.5155H37.8208C37.937 13.3706 38.3064 14.0003 38.929 14.4049C39.5517 14.8095 40.3394 15.0113 41.2923 15.0102ZM43.7014 10.3877C43.6703 10.0873 43.5736 9.79735 43.418 9.53847C43.2623 9.2796 43.0518 9.05809 42.801 8.88964C42.2512 8.50699 41.5937 8.30943 40.9239 8.32557C40.5617 8.32319 40.201 8.37471 39.8538 8.47843C39.5342 8.57355 39.2307 8.7163 38.9536 8.90187C38.6918 9.07642 38.4639 9.29707 38.281 9.55307C38.1013 9.80201 37.9785 10.0875 37.9217 10.3892L43.7014 10.3877Z" fill="#38056C"/>
<path d="M57.5733 15.5106C57.4124 15.7894 57.2057 16.0389 56.9618 16.249C56.6851 16.4931 56.3765 16.6988 56.0446 16.8604C55.6631 17.0441 55.2628 17.186 54.8508 17.2838C54.3852 17.3954 53.9079 17.4503 53.4292 17.4474C52.6813 17.4508 51.9401 17.3069 51.2479 17.0239C50.5709 16.7478 49.9522 16.3464 49.4241 15.8407C48.8878 15.3222 48.4596 14.7023 48.1645 14.0171C47.8489 13.2688 47.6927 12.4628 47.706 11.6508C47.6927 10.8387 47.8489 10.0328 48.1645 9.28449C48.4555 8.60659 48.8777 7.99299 49.4069 7.47903C49.9361 6.96507 50.5617 6.56093 51.2479 6.28991C51.9416 6.01338 52.6823 5.87324 53.4292 5.87718C54.3157 5.85513 55.1944 6.0487 55.9896 6.44124C56.7142 6.81728 57.2135 7.25855 57.4877 7.76503L56.8365 9.71862C56.486 9.32807 56.0574 9.01559 55.5784 8.80145C55.0164 8.53105 54.3998 8.3935 53.7761 8.39941C52.6613 8.39941 51.7676 8.69596 51.095 9.28908C50.4224 9.88219 50.0855 10.6674 50.0846 11.6447C50.0846 12.6291 50.4208 13.4215 51.0934 14.0217C51.766 14.622 52.6597 14.9221 53.7747 14.9221C54.4151 14.9349 55.0489 14.7895 55.6196 14.4986C56.0936 14.2636 56.5204 13.944 56.8792 13.5555L57.5733 15.5106Z" fill="#38056C"/>
<path d="M68.4255 15.5106C68.2646 15.7894 68.0579 16.0389 67.8141 16.249C67.5372 16.4931 67.2287 16.6988 66.8968 16.8604C66.5153 17.0441 66.115 17.186 65.703 17.2838C65.2375 17.3954 64.7601 17.4503 64.2814 17.4474C63.5335 17.4508 62.7923 17.3069 62.1 17.0239C61.423 16.7478 60.8044 16.3464 60.2764 15.8407C59.7399 15.3222 59.3118 14.7023 59.0168 14.0171C58.7011 13.2688 58.5449 12.4628 58.5582 11.6508C58.5449 10.8387 58.7011 10.0328 59.0168 9.28449C59.3076 8.60659 59.73 7.99299 60.259 7.47903C60.7882 6.96507 61.4139 6.56093 62.1 6.28991C62.7939 6.01338 63.5344 5.87324 64.2814 5.87718C65.1679 5.85513 66.0466 6.0487 66.8418 6.44124C67.5664 6.81728 68.0657 7.25855 68.3399 7.76503L67.6886 9.71862C67.3383 9.32807 66.9097 9.01559 66.4306 8.80145C65.8687 8.53105 65.2519 8.3935 64.6284 8.39941C63.5134 8.39941 62.6197 8.69596 61.9471 9.28908C61.2745 9.88219 60.9377 10.6674 60.9367 11.6447C60.9367 12.6291 61.2731 13.4215 61.9457 14.0217C62.6183 14.622 63.512 14.9221 64.6268 14.9221C65.2674 14.9349 65.9011 14.7895 66.4719 14.4986C66.9457 14.2636 67.3726 13.944 67.7315 13.5555L68.4255 15.5106Z" fill="#38056C"/>
<path d="M80.7545 17.1611H78.483V16.01C78.3087 16.4177 77.9179 16.758 77.3106 17.0311C76.6315 17.3197 75.8988 17.4604 75.1613 17.4439C74.424 17.4463 73.6934 17.3024 73.012 17.0205C72.3418 16.7444 71.7307 16.3429 71.2113 15.8373C70.6815 15.3178 70.2605 14.6978 69.9731 14.0136C69.6615 13.2716 69.5055 12.4734 69.5146 11.6687C69.5056 10.8644 69.6617 10.0669 69.9731 9.32532C70.262 8.63879 70.6826 8.01558 71.2113 7.49097C72.2629 6.45165 73.6828 5.87029 75.1613 5.87368C75.8958 5.85845 76.6252 5.99912 77.3013 6.28641C77.9128 6.56156 78.3072 6.90856 78.4845 7.32741V6.15647H80.7622L80.7545 17.1611ZM71.8778 11.6916C71.8778 12.675 72.1927 13.4598 72.8226 14.0457C73.4523 14.6317 74.288 14.9247 75.3294 14.9247C76.0017 14.9398 76.6665 14.7819 77.2602 14.4661C77.8237 14.1603 78.2003 13.7731 78.3898 13.3044V10.0407C78.2022 9.56378 77.8257 9.1699 77.2602 8.85908C76.6673 8.54015 76.0024 8.37907 75.3294 8.39133C74.2869 8.39133 73.4513 8.69145 72.8226 9.29168C72.1937 9.89193 71.8788 10.6919 71.8778 11.6916Z" fill="#38056C"/>
<path d="M85.6839 6.15728V10.2372H90.9806V6.15728H93.3454V17.1635H90.9806V12.7549H85.6839V17.1619H83.3176V6.15576L85.6839 6.15728Z" fill="#38056C"/>
<path d="M105.045 15.5113C104.884 15.7901 104.677 16.0396 104.433 16.2497C104.157 16.4939 103.848 16.6994 103.516 16.8611C102.7 17.2523 101.806 17.453 100.901 17.4481C100.153 17.4515 99.4118 17.3076 98.7194 17.0246C98.0423 16.749 97.4235 16.3475 96.8958 15.8416C96.3594 15.3229 95.9313 14.703 95.6362 14.0178C95.3166 13.2684 95.1571 12.4601 95.1684 11.6454C95.1575 10.8328 95.3163 10.0269 95.6346 9.27909C95.9255 8.60121 96.3477 7.98759 96.8769 7.47363C97.4061 6.95969 98.0318 6.55553 98.7179 6.28452C99.4118 6.00798 100.152 5.86784 100.899 5.87178C101.786 5.84993 102.664 6.04348 103.46 6.43584C104.184 6.81189 104.684 7.25315 104.958 7.75964L104.307 9.71322C103.956 9.32233 103.527 9.00981 103.047 8.79605C102.486 8.52546 101.869 8.38789 101.246 8.39402C100.132 8.39402 99.2386 8.69058 98.565 9.28368C97.8915 9.87679 97.5551 10.664 97.5561 11.6454C97.5561 12.6299 97.8924 13.4222 98.565 14.0224C99.2376 14.6227 100.131 14.9228 101.246 14.9228C101.888 14.9367 102.523 14.7917 103.094 14.5009C103.568 14.2659 103.995 13.9463 104.354 13.5577L105.045 15.5113Z" fill="#38056C"/>
<path d="M5.77132 29.7792C5.71153 29.9062 5.61813 30.0296 5.49109 30.1491C5.37153 30.2613 5.22208 30.3621 5.04273 30.4518C4.86339 30.5414 4.65788 30.6125 4.42623 30.6648C4.20205 30.7245 3.95918 30.7544 3.69764 30.7544C3.31653 30.7544 2.95037 30.6835 2.59916 30.5414C2.24794 30.3995 1.93782 30.2014 1.6688 29.9474C1.40725 29.6858 1.19428 29.3757 1.02989 29.017C0.872958 28.6583 0.794495 28.2586 0.794495 27.8177C0.794495 27.3843 0.872958 26.9882 1.02989 26.6295C1.19428 26.2634 1.40725 25.9533 1.6688 25.6991C1.93782 25.4451 2.24794 25.247 2.59916 25.1051C2.95037 24.9631 3.31653 24.8921 3.69764 24.8921C3.95171 24.8921 4.1871 24.9183 4.40382 24.9705C4.628 25.0229 4.82603 25.0939 4.9979 25.1835C5.17723 25.2733 5.32669 25.374 5.44626 25.4862C5.5733 25.5983 5.6667 25.7142 5.72648 25.8336L5.45747 26.6407C5.30054 26.4614 5.08009 26.3082 4.79613 26.1812C4.51217 26.0466 4.20952 25.9794 3.8882 25.9794C3.26048 25.9794 2.75608 26.1475 2.37498 26.4838C2.00134 26.8126 1.81452 27.2573 1.81452 27.8177C1.81452 28.0942 1.86309 28.3482 1.96024 28.5799C2.06486 28.804 2.20683 28.9983 2.38618 29.1627C2.56552 29.3197 2.78224 29.443 3.03631 29.5326C3.29038 29.6223 3.57434 29.6671 3.8882 29.6671C4.23194 29.6671 4.54579 29.5999 4.82975 29.4655C5.11373 29.3234 5.33417 29.1627 5.49109 28.9834L5.77132 29.7792Z" fill="#38056C"/>
<path d="M11.2194 26.1141H9.35866V30.6201H8.33863V26.1141H6.47794V25.0269H11.2194V26.1141Z" fill="#38056C"/>
<path d="M17.6552 26.6407C17.8121 26.9994 17.8905 27.3955 17.8905 27.8288C17.8905 28.2623 17.8121 28.6583 17.6552 29.017C17.4982 29.3757 17.289 29.6858 17.0274 29.9474C16.766 30.2014 16.4595 30.3995 16.1083 30.5414C15.7646 30.6835 15.4022 30.7544 15.0211 30.7544C14.5951 30.7544 14.229 30.6835 13.9226 30.5414C13.6161 30.3995 13.4182 30.2239 13.3285 30.0147V33.0074H12.3085V25.0266H13.2948V25.6207C13.3846 25.4114 13.5826 25.2396 13.889 25.1051C14.2028 24.9631 14.5728 24.8921 14.9986 24.8921C15.3872 24.8921 15.7572 24.9631 16.1083 25.1051C16.4595 25.247 16.766 25.4488 17.0274 25.7104C17.289 25.9644 17.4982 26.2746 17.6552 26.6407ZM16.8705 27.8065C16.8705 27.246 16.6987 26.8014 16.355 26.4726C16.0112 26.1438 15.5553 25.9794 14.9874 25.9794C14.5989 25.9794 14.2477 26.0691 13.9338 26.2484C13.6274 26.4203 13.4256 26.6407 13.3285 26.9097V28.7368C13.4256 29.0058 13.6274 29.23 13.9338 29.4094C14.2477 29.5812 14.5989 29.6671 14.9874 29.6671C15.5553 29.6671 16.0112 29.499 16.355 29.1627C16.6987 28.8265 16.8705 28.3744 16.8705 27.8065Z" fill="#38056C"/>
<path d="M19.7618 27.8401C19.7618 28.4005 19.9336 28.8452 20.2773 29.174C20.6211 29.5027 21.077 29.6671 21.6449 29.6671C22.0334 29.6671 22.3809 29.5812 22.6872 29.4094C23.0011 29.23 23.2066 29.0058 23.3038 28.7368V26.9097C23.2066 26.6407 23.0011 26.4203 22.6872 26.2484C22.3809 26.0691 22.0334 25.9794 21.6449 25.9794C21.077 25.9794 20.6211 26.1475 20.2773 26.4838C19.9336 26.82 19.7618 27.2722 19.7618 27.8401ZM24.3238 30.6199H23.3373V30.0258C23.2477 30.2351 23.0459 30.4107 22.7321 30.5527C22.4183 30.6871 22.0484 30.7544 21.6224 30.7544C21.2338 30.7544 20.864 30.6835 20.5127 30.5414C20.169 30.3995 19.8625 30.2014 19.5936 29.9474C19.332 29.6858 19.1228 29.3757 18.9659 29.017C18.8164 28.6583 18.7416 28.2623 18.7416 27.8288C18.7416 27.3955 18.8164 26.9994 18.9659 26.6407C19.1228 26.2746 19.332 25.9644 19.5936 25.7104C19.8625 25.4488 20.169 25.247 20.5127 25.1051C20.864 24.9631 21.2338 24.8921 21.6224 24.8921C22.0484 24.8921 22.4183 24.9631 22.7321 25.1051C23.0459 25.2396 23.2477 25.4114 23.3373 25.6207V25.0266H24.3238V30.6199Z" fill="#38056C"/>
<path d="M26.4303 30.6201H25.1749L27.2822 27.6497L25.3879 25.0269H26.6321L27.8987 26.7979L29.1765 25.0269H30.4431L28.5488 27.661L30.6786 30.6201H29.4456L27.9212 28.5241L26.4303 30.6201Z" fill="#38056C"/>
<path d="M36.3941 26.6631C36.5511 27.0218 36.6295 27.4104 36.6295 27.8288C36.6295 28.2474 36.5511 28.636 36.3941 28.9947C36.2447 29.3533 36.0392 29.6634 35.7776 29.9249C35.5236 30.1865 35.2246 30.3921 34.881 30.5414C34.5446 30.6835 34.1859 30.7544 33.8049 30.7544C33.4237 30.7544 33.0614 30.6835 32.7176 30.5414C32.3738 30.3921 32.0711 30.1865 31.8097 29.9249C31.5555 29.6634 31.3538 29.3533 31.2044 28.9947C31.0549 28.636 30.9802 28.2474 30.9802 27.8288C30.9802 27.4104 31.0549 27.0218 31.2044 26.6631C31.3538 26.3044 31.5555 25.9943 31.8097 25.7327C32.0711 25.4712 32.3738 25.2657 32.7176 25.1162C33.0614 24.9669 33.4237 24.8921 33.8049 24.8921C34.1859 24.8921 34.5446 24.9669 34.881 25.1162C35.2246 25.2657 35.5236 25.4712 35.7776 25.7327C36.0392 25.9943 36.2447 26.3044 36.3941 26.6631ZM32.0002 27.8288C32.0002 28.1053 32.045 28.3595 32.1347 28.591C32.2244 28.8153 32.3514 29.0096 32.5158 29.174C32.6802 29.3309 32.8707 29.4542 33.0875 29.5439C33.3042 29.6261 33.5433 29.6671 33.8049 29.6671C34.0589 29.6671 34.2943 29.6261 34.511 29.5439C34.7351 29.4542 34.9295 29.3309 35.0938 29.174C35.2582 29.0096 35.3853 28.8153 35.475 28.591C35.5646 28.3669 35.6095 28.1166 35.6095 27.8401C35.6095 27.5636 35.5646 27.3133 35.475 27.0891C35.3853 26.8574 35.2582 26.6594 35.0938 26.4949C34.9295 26.3307 34.7351 26.2035 34.511 26.1139C34.2943 26.0242 34.0589 25.9794 33.8049 25.9794C33.5433 25.9794 33.3042 26.0242 33.0875 26.1139C32.8707 26.2035 32.6802 26.3307 32.5158 26.4949C32.3514 26.6594 32.2244 26.8574 32.1347 27.0891C32.045 27.3133 32.0002 27.5599 32.0002 27.8288Z" fill="#38056C"/>
<path d="M39.9879 25.0269C40.5409 25.0269 40.9892 25.1614 41.333 25.4304C41.6841 25.6993 41.8598 26.0693 41.8598 26.5401C41.8598 26.7717 41.8224 26.9846 41.7476 27.1789C41.6805 27.3658 41.5533 27.5339 41.3666 27.6833C41.8748 27.93 42.1288 28.3709 42.1288 29.0061C42.1288 29.2452 42.0765 29.4657 41.9719 29.6674C41.8748 29.8617 41.7402 30.0298 41.5683 30.1718C41.3965 30.3137 41.191 30.4258 40.9518 30.508C40.7202 30.5828 40.4698 30.6201 40.2009 30.6201H37.8582V25.0269H39.9879ZM40.4026 29.5553C40.6044 29.5553 40.7688 29.4992 40.8958 29.3871C41.0228 29.2676 41.0863 29.1144 41.0863 28.9276C41.0863 28.7407 41.0191 28.595 40.8846 28.4905C40.7575 28.3858 40.5969 28.3335 40.4026 28.3335H38.8782V29.5553H40.4026ZM40.1784 27.2798C40.3653 27.2798 40.5184 27.2275 40.638 27.123C40.7575 27.0109 40.8174 26.8688 40.8174 26.697C40.8174 26.4952 40.7539 26.3458 40.6267 26.2487C40.4997 26.144 40.3502 26.0917 40.1784 26.0917H38.8782V27.2798H40.1784Z" fill="#38056C"/>
<path d="M44.0197 27.8401C44.0197 28.4005 44.1916 28.8452 44.5353 29.174C44.879 29.5027 45.3349 29.6671 45.9028 29.6671C46.2914 29.6671 46.6389 29.5812 46.9452 29.4094C47.2591 29.23 47.4646 29.0058 47.5617 28.7368V26.9097C47.4646 26.6407 47.2591 26.4203 46.9452 26.2484C46.6389 26.0691 46.2914 25.9794 45.9028 25.9794C45.3349 25.9794 44.879 26.1475 44.5353 26.4838C44.1916 26.82 44.0197 27.2722 44.0197 27.8401ZM48.5817 30.6199H47.5954V30.0258C47.5058 30.2351 47.3039 30.4107 46.9901 30.5527C46.6763 30.6871 46.3063 30.7544 45.8804 30.7544C45.4919 30.7544 45.1219 30.6835 44.7707 30.5414C44.4269 30.3995 44.1206 30.2014 43.8516 29.9474C43.59 29.6858 43.3808 29.3757 43.2238 29.017C43.0743 28.6583 42.9997 28.2623 42.9997 27.8288C42.9997 27.3955 43.0743 26.9994 43.2238 26.6407C43.3808 26.2746 43.59 25.9644 43.8516 25.7104C44.1206 25.4488 44.4269 25.247 44.7707 25.1051C45.1219 24.9631 45.4919 24.8921 45.8804 24.8921C46.3063 24.8921 46.6763 24.9631 46.9901 25.1051C47.3039 25.2396 47.5058 25.4114 47.5954 25.6207V25.0266H48.5817V30.6199Z" fill="#38056C"/>
<path d="M51.2152 25.0269V27.1902H54.1519V25.0269H55.1719V30.6201H54.1519V28.2775H51.2152V30.6201H50.1951V25.0269H51.2152Z" fill="#38056C"/>
<path d="M57.8106 25.0269V28.9388L60.7921 25.0269H61.8121V30.6201H60.7921V26.7082L57.8106 30.6201H56.7904V25.0269H57.8106Z" fill="#38056C"/>
<path d="M66.0077 29.6671C66.1871 29.6671 66.3627 29.6448 66.5346 29.5999C66.7064 29.5551 66.8671 29.499 67.0166 29.4318C67.1736 29.3645 67.3118 29.2861 67.4314 29.1964C67.5509 29.1068 67.6518 29.017 67.734 28.9274L68.0029 29.7232C67.9432 29.8503 67.8498 29.9735 67.7228 30.0931C67.6032 30.2127 67.4537 30.3248 67.2744 30.4294C67.1025 30.5265 66.9045 30.6049 66.6803 30.6648C66.4562 30.7245 66.2133 30.7544 65.9518 30.7544C65.5333 30.7544 65.1446 30.6871 64.786 30.5527C64.4347 30.4107 64.1284 30.2164 63.8668 29.9699C63.6128 29.7157 63.411 29.4094 63.2615 29.0507C63.1196 28.6845 63.0486 28.2773 63.0486 27.8288C63.0486 27.4403 63.1122 27.0704 63.2392 26.7192C63.3662 26.3605 63.5493 26.0466 63.7884 25.7777C64.0275 25.5086 64.3153 25.2956 64.6515 25.1387C64.9877 24.9743 65.3689 24.8921 65.7947 24.8921C66.1984 24.8921 66.5607 24.9705 66.882 25.1275C67.2034 25.2844 67.4762 25.4974 67.7003 25.7664C67.932 26.0279 68.1076 26.3381 68.2272 26.6968C68.3467 27.0479 68.4066 27.4216 68.4066 27.8177C68.4066 27.9373 68.3953 28.0643 68.3729 28.1988H64.091C64.1433 28.692 64.3414 29.0618 64.6851 29.3084C65.0289 29.5477 65.4697 29.6671 66.0077 29.6671ZM67.3193 27.1675C67.3043 27.0031 67.2557 26.85 67.1736 26.7079C67.0914 26.5586 66.9793 26.4314 66.8372 26.3269C66.7028 26.2148 66.5458 26.1288 66.3664 26.0691C66.1871 26.0092 65.9966 25.9794 65.7947 25.9794C65.5931 25.9794 65.395 26.0092 65.2007 26.0691C65.014 26.1288 64.8458 26.211 64.6963 26.3156C64.5544 26.4203 64.4347 26.5473 64.3376 26.6968C64.2405 26.8387 64.1807 26.9957 64.1583 27.1675H67.3193Z" fill="#38056C"/>
<path d="M114.915 14.6017L107.608 1.00146H122.223L114.915 14.6017Z" fill="#79FF3A"/>
</g>
<defs>
<clipPath id="clip0_5643_15617">
<rect width="122.643" height="34" fill="white"/>
</clipPath>
</defs>
</svg>
