<svg width="131" height="20" viewBox="0 0 131 20" fill="none" xmlns="http://www.w3.org/2000/svg">
<g>
<path d="M34.7439 12.9452L35.1083 12.1179C35.3517 11.5587 35.7896 11.4127 36.3486 11.8259C37.4191 12.6045 39.1697 13.1885 41.5051 13.1885C43.5 13.1885 44.3509 12.678 44.3509 12.0692C44.3509 11.3879 43.646 11.1932 42.4782 11.0472L39.827 10.7076C36.6405 10.2944 35.035 9.15033 35.035 7.15603C35.035 5.01574 36.7865 3.3125 40.8479 3.3125C43.1098 3.3125 44.5695 3.65315 45.5178 4.01759C46.5634 4.43084 46.7094 4.77149 46.7094 5.62355V6.71799C46.7094 7.39928 46.4661 7.64265 45.785 7.64265H45.0312C44.3501 7.64265 44.1068 7.39928 44.1068 6.71799V6.35254C43.6689 6.20657 42.5746 5.9881 41.2858 5.9881C39.0485 5.9881 37.9534 6.40124 37.9534 7.08254C37.9534 7.59307 38.6097 7.88502 39.8013 8.05579L42.4039 8.39644C45.5903 8.80968 47.2685 9.75903 47.2685 12.0454C47.2685 14.3804 45.0551 15.865 41.115 15.865C38.2205 15.865 35.886 14.9404 34.9615 14.0893C34.6218 13.7724 34.5731 13.3584 34.7439 12.9452Z" fill="black"/>
<path d="M63.4454 15.6662H62.1078C61.4514 15.6662 61.2321 15.5688 60.9162 15.0821L58.387 11.3598C58.0226 10.8493 57.7546 10.7272 57.0009 10.7272H54.4717V14.7415C54.4717 15.4228 54.2285 15.6662 53.5473 15.6662H52.5742C51.8931 15.6662 51.6497 15.4228 51.6497 14.7415V2.6517H50.7501C50.0689 2.6517 49.8257 2.40844 49.8257 1.72715V0.924665C49.8257 0.243368 50.0689 0 50.7501 0H53.5473C54.2285 0 54.4717 0.243368 54.4717 0.924665V8.00391H56.7338C57.4874 8.00391 57.7555 7.88261 58.12 7.37119L60.236 4.11169C60.5766 3.60116 60.795 3.50377 61.4523 3.50377H62.7899C63.5197 3.50377 63.6656 4.08778 63.2516 4.69559L60.8923 8.27196C60.6491 8.61261 60.3571 8.97716 60.0652 9.26911C60.3571 9.51248 60.7703 9.92561 60.941 10.169L63.908 14.4991C64.3211 15.0831 64.1752 15.6662 63.4454 15.6662Z" fill="black"/>
<path d="M68.0445 17.9088V17.1063C68.0445 16.425 68.2878 16.1816 68.969 16.1816H70.1366C70.8417 16.1816 71.1823 16.0357 71.4504 15.4764L71.5963 15.1606L66.0267 4.62715C65.6861 3.99455 65.9533 3.50781 66.683 3.50781H67.9481C68.6045 3.50781 68.8964 3.62911 69.1397 4.09183L71.4743 8.88381C72.0095 9.97836 72.6171 11.2436 73.1037 12.3381C73.5902 11.2675 74.1493 10.0518 74.6845 8.9812L77.0677 4.09183C77.2862 3.63 77.6029 3.50781 78.2593 3.50781H79.5243C80.2542 3.50781 80.5213 3.99455 80.1807 4.62715L73.8326 16.6691C73.1027 18.0556 72.2518 18.8342 70.3542 18.8342H68.9681C68.2878 18.8333 68.0445 18.5901 68.0445 17.9088Z" fill="black"/>
<path d="M95.7281 9.54057V9.83263C95.7281 10.5139 95.4849 10.7572 94.8037 10.7572H84.8312C85.1718 12.0464 86.4607 13.2868 89.2092 13.2868C91.6658 13.2868 92.7849 12.4843 93.2954 12.1189C93.8544 11.7058 94.2437 11.8507 94.5355 12.4108L94.9487 13.2133C95.1672 13.6266 95.0461 13.9433 94.6806 14.2592C94.1454 14.721 92.3213 15.8651 89.2083 15.8651C85.0249 15.8651 82.1066 13.408 82.1066 9.56447C82.1066 5.79343 84.9037 3.3125 88.9164 3.3125C92.9309 3.3125 95.7281 5.76964 95.7281 9.54057ZM84.8312 8.39744H93.0283C92.7124 7.13223 91.4226 5.94041 88.9173 5.94041C86.412 5.94041 85.147 7.13223 84.8312 8.39744Z" fill="black"/>
<path d="M113.475 9.12743V14.7467C113.475 15.428 113.232 15.6713 112.55 15.6713H111.577C110.896 15.6713 110.653 15.428 110.653 14.7467V9.19992C110.653 7.22951 109.485 6.15887 107.515 6.15887C105.983 6.15887 104.159 7.10733 103.258 8.10448V14.7458C103.258 15.4271 103.015 15.6705 102.334 15.6705H101.361C100.679 15.6705 100.436 15.4271 100.436 14.7458V6.15887H99.5365C98.8553 6.15887 98.6121 5.91561 98.6121 5.23432V4.43173C98.6121 3.75043 98.8553 3.50717 99.5365 3.50717H101.896C102.577 3.50717 102.82 3.75043 102.82 4.43173V5.11302C104.134 4.04249 105.909 3.3125 107.831 3.3125C111.48 3.31339 113.475 5.47846 113.475 9.12743Z" fill="black"/>
<path d="M130.26 4.43084V15.8163C130.26 18.346 127.536 20.0005 124.057 20.0005C120.774 20.0005 119.218 19.0272 118.512 18.3707C118.172 18.0549 118.123 17.6408 118.293 17.2276L118.657 16.4003C118.926 15.7924 119.363 15.6703 119.897 16.1084C120.749 16.7896 121.576 17.3488 124.032 17.3736C126.221 17.3736 127.437 16.5711 127.437 15.5979V14.4299C126.561 14.9891 125.49 15.3545 123.958 15.3545C120.018 15.3545 117.294 13.0434 117.294 9.34589C117.294 5.64834 120.017 3.3125 123.958 3.3125C125.661 3.3125 126.78 3.79912 127.535 4.38303C127.729 3.96989 128.119 3.50706 128.604 3.50706H129.335C130.016 3.50617 130.26 3.74954 130.26 4.43084ZM127.439 11.2915V7.39928C126.758 6.57201 125.761 6.06148 123.961 6.06148C121.796 6.06148 120.215 7.302 120.215 9.34589C120.215 11.3898 121.796 12.6054 123.961 12.6054C125.736 12.6045 126.733 12.094 127.439 11.2915Z" fill="black"/>
<path d="M3.51838 18.4813C1.47086 19.6565 7.92713e-07 18.6771 7.09422e-07 16.9353C6.20756e-07 15.081 3.54711e-07 9.51696 3.54711e-07 9.51696C3.54711e-07 9.51696 8.86668e-08 3.95296 0 2.09863C-8.32906e-08 0.356804 1.46994 -0.622559 3.51838 0.552589C6.70736 2.38246 16.2734 7.87386 16.2734 7.87386C17.5454 8.60386 17.5454 10.4292 16.2734 11.1592C16.2734 11.1601 6.70736 16.6515 3.51838 18.4813Z" fill="#00C1FF"/>
<path d="M14.0494 18.4813C12.0018 19.6565 10.531 18.6771 10.531 16.9353C10.531 15.081 10.531 9.51696 10.531 9.51696C10.531 9.51696 10.531 3.95296 10.531 2.09863C10.531 0.356804 12.0009 -0.622559 14.0494 0.552589C17.1681 2.34255 26.5242 7.71344 26.5242 7.71344C27.9212 8.51503 27.9212 10.5189 26.5242 11.3205C26.5234 11.3205 17.1681 16.6914 14.0494 18.4813Z" fill="#6FE4FF"/>
<mask id="mask0_5643_15666" style="mask-type:alpha" maskUnits="userSpaceOnUse" x="10" y="0" width="18" height="19">
<path d="M14.0489 18.4813C12.0013 19.6565 10.5305 18.6771 10.5305 16.9353C10.5305 15.081 10.5305 9.51696 10.5305 9.51696C10.5305 9.51696 10.5305 3.95296 10.5305 2.09863C10.5305 0.356804 12.0004 -0.622559 14.0489 0.552589C17.1676 2.34255 26.5237 7.71344 26.5237 7.71344C27.9207 8.51503 27.9207 10.5189 26.5237 11.3205C26.5228 11.3205 17.1676 16.6914 14.0489 18.4813Z" fill="#6FE4FF"/>
</mask>
<g mask="url(#mask0_5643_15666)">
<path d="M3.51817 18.4813C1.47064 19.6565 -0.00021283 18.6771 -0.000212914 16.9353C-0.000213002 15.081 -0.000213268 9.51696 -0.000213268 9.51696C-0.000213268 9.51696 -0.000213534 3.95296 -0.000213623 2.09863C-0.000213706 0.356804 1.46973 -0.622559 3.51817 0.552589C6.70715 2.38246 16.2732 7.87386 16.2732 7.87386C17.5452 8.60386 17.5452 10.4292 16.2732 11.1592C16.2732 11.1592 6.70715 16.6515 3.51817 18.4813Z" fill="#009EE4"/>
</g>
</g>
</svg>
