<svg width="103" height="20" viewBox="0 0 103 20" fill="none" xmlns="http://www.w3.org/2000/svg">
<g>
<path d="M90.0503 5.90041V4.65804H93.0837V16.9932H90.0503V15.7508C88.7603 17.1997 86.3243 17.239 84.5851 16.6228C83.3404 16.1822 82.2686 15.3734 81.5204 14.3101C80.7722 13.2468 80.385 11.9821 80.4132 10.6938C80.4415 9.40542 80.8837 8.15803 81.6779 7.12667C82.472 6.09531 83.5782 5.33178 84.8413 4.94323C86.526 4.42203 88.8178 4.58265 90.0503 5.90041ZM90.0503 10.8174C90.0452 10.0752 89.7757 9.35775 89.2881 8.787C88.8006 8.21619 88.1242 7.82732 87.3749 7.68645C86.6264 7.54558 85.8496 7.6614 85.1788 8.01423C84.5076 8.36708 83.9826 8.93508 83.6932 9.62183C83.4037 10.3086 83.3677 11.0717 83.5911 11.7813C83.8146 12.491 84.2838 13.1035 84.9189 13.5147C85.554 13.926 86.3157 14.1106 87.0753 14.0372C87.8341 13.9638 88.544 13.6368 89.0838 13.112C89.3937 12.8118 89.64 12.454 89.8057 12.0599C89.9722 11.6658 90.0555 11.2433 90.0503 10.8174ZM11.8323 11.237C11.8512 12.0043 11.712 12.7674 11.4232 13.4816C11.1345 14.1958 10.7017 14.8466 10.1506 15.3958C9.59943 15.9448 8.941 16.3812 8.21391 16.6791C7.48686 16.9771 6.70592 17.1305 5.91701 17.1305C5.12809 17.1305 4.34714 16.9771 3.62009 16.6791C2.89304 16.3812 2.23458 15.9448 1.68342 15.3958C1.13227 14.8466 0.699567 14.1958 0.410755 13.4816C0.121943 12.7674 -0.0171401 12.0043 0.00168491 11.237V11.1223H3.03432V11.237C3.02105 11.6155 3.08623 11.9928 3.22598 12.3463C3.36571 12.6998 3.57716 13.0223 3.84772 13.2946C4.11827 13.5669 4.44241 13.7835 4.8008 13.9314C5.1592 14.0793 5.54453 14.1555 5.93385 14.1555C6.32317 14.1555 6.7085 14.0793 7.0669 13.9314C7.4253 13.7835 7.74943 13.5669 8.01998 13.2946C8.29054 13.0223 8.50198 12.6998 8.6417 12.3463C8.78144 11.9928 8.84667 11.6155 8.83337 11.237C8.83337 9.64392 7.82251 8.81458 6.30282 8.4245L4.98531 8.09667C3.81943 7.73937 2.96356 7.49352 2.17507 6.50028C1.702 5.90383 1.41 5.19048 1.33214 4.44093C1.25428 3.6914 1.39366 2.93563 1.7345 2.25917C2.07534 1.58271 2.60404 1.01258 3.26073 0.613313C3.91743 0.214048 4.67592 0.00159358 5.45031 0H9.61848V2.9502H5.45031C5.15004 2.9502 4.86206 3.06624 4.64974 3.2728C4.43741 3.47935 4.31813 3.7595 4.31813 4.05161C4.31813 4.89733 5.08303 5.10057 5.78391 5.28087L6.79478 5.54638C9.74655 6.29049 11.8323 8.11306 11.8323 11.237ZM43.247 5.90041V4.65804H46.2796V16.9932H43.247V15.7508C41.9564 17.1997 39.5202 17.239 37.7815 16.6228C36.5368 16.1822 35.465 15.3734 34.7168 14.3101C33.9685 13.2468 33.5813 11.9821 33.6096 10.6938C33.6378 9.40542 34.08 8.15803 34.8743 7.12667C35.6684 6.09531 36.7746 5.33178 38.0376 4.94323C39.7325 4.42203 42.0138 4.58921 43.247 5.90041ZM43.247 10.8174C43.2415 10.0752 42.972 9.35775 42.4843 8.787C41.9966 8.21619 41.3208 7.82732 40.5716 7.68645C39.8225 7.54558 39.0464 7.6614 38.3751 8.01423C37.7039 8.36708 37.179 8.93508 36.8895 9.62183C36.6001 10.3086 36.5641 11.0717 36.7875 11.7813C37.011 12.491 37.4802 13.1035 38.1152 13.5147C38.7504 13.926 39.5123 14.1106 40.2715 14.0372C41.0308 13.9638 41.7405 13.6368 42.28 13.112C42.5905 12.8118 42.8361 12.454 43.0022 12.0599C43.1682 11.6658 43.2515 11.2433 43.247 10.8174ZM79.0793 13.9184C78.4533 14.9756 77.5191 15.8283 76.3948 16.3688C75.2704 16.9093 74.0065 17.1131 72.7631 16.9545C71.5197 16.7959 70.3525 16.282 69.4094 15.4779C68.4662 14.6738 67.7895 13.6155 67.4649 12.4371C67.1402 11.2587 67.1822 10.0131 67.5855 8.85792C67.9888 7.70268 68.7353 6.68986 69.7307 5.94756C70.7259 5.20527 71.9252 4.76688 73.1766 4.68788C74.4281 4.60888 75.6755 4.89283 76.761 5.50377C77.7233 6.04382 78.5227 6.82042 79.0793 7.75576L76.4543 9.23417C76.1665 8.74392 75.7503 8.33675 75.248 8.05405C74.6824 7.73739 74.0329 7.59089 73.3817 7.63306C72.7305 7.67523 72.1068 7.90418 71.5892 8.29099C71.0716 8.67783 70.6836 9.20517 70.4739 9.80642C70.2642 10.4077 70.2424 11.0558 70.4111 11.6692C70.58 12.2825 70.9317 12.8334 71.4222 13.2523C71.9125 13.6713 72.5196 13.9394 73.1666 14.0229C73.8136 14.1065 74.4715 14.0016 75.0572 13.7217C75.643 13.4417 76.1303 12.9991 76.4578 12.4498L79.0793 13.9184ZM48.699 8.95875V16.9932H51.7317V8.90958C51.7299 8.73375 51.7639 8.55925 51.8319 8.39625C51.8998 8.2333 52.0003 8.08503 52.1275 7.96006C52.2547 7.83508 52.4061 7.73588 52.5731 7.66818C52.7399 7.60048 52.9189 7.56563 53.0997 7.56563H56.0347V4.65804H53.1065C52.5265 4.65804 51.9523 4.76938 51.4167 4.98567C50.8811 5.20196 50.3946 5.51896 49.9851 5.91849C49.5757 6.31803 49.2513 6.79224 49.0307 7.31395C48.81 7.83567 48.6973 8.39458 48.699 8.95875ZM13.8541 8.95875V16.9932H16.8867V9.126C16.8625 8.9165 16.8862 8.7045 16.9561 8.505C17.026 8.30551 17.1404 8.12353 17.291 7.9721C17.4182 7.84895 17.5691 7.7514 17.735 7.68503C17.901 7.61865 18.0787 7.58477 18.2581 7.5853H19.825C20.0057 7.5822 20.1852 7.61448 20.3528 7.68023C20.5203 7.74598 20.6727 7.84384 20.8006 7.968C20.9286 8.09216 21.0295 8.24008 21.0976 8.403C21.1656 8.56583 21.1991 8.74042 21.1965 8.91617V16.9932H24.229V9.26033V8.90308C24.2263 8.72642 24.2602 8.55108 24.3289 8.3875C24.3974 8.22396 24.4993 8.07558 24.6283 7.95128C24.7573 7.82698 24.9109 7.72933 25.0796 7.66419C25.2485 7.59904 25.4291 7.56775 25.6106 7.57219H27.1774C27.3578 7.56953 27.537 7.60215 27.7042 7.66809C27.8714 7.73403 28.0233 7.83197 28.1508 7.95608C28.2785 8.08019 28.3792 8.22797 28.4469 8.39067C28.5147 8.55333 28.5483 8.72758 28.5455 8.90308V16.9932H31.5782V9.31608C31.6053 8.74125 31.5323 8.16603 31.3625 7.6148C31.1311 6.92739 30.7251 6.30796 30.182 5.81398C29.6389 5.32001 28.9763 4.9675 28.2557 4.78916C27.9005 4.70469 27.5364 4.66069 27.1707 4.65804H25.7218C25.3001 4.65127 24.8795 4.7009 24.4717 4.80555C23.8262 4.97471 23.2292 5.28531 22.7262 5.71356C22.1814 5.25274 21.529 4.92863 20.8257 4.76949C20.4942 4.69533 20.1551 4.65794 19.8149 4.65804H18.2615C17.6816 4.65804 17.1074 4.76938 16.5718 4.98567C16.0362 5.20196 15.5497 5.51896 15.1402 5.91849C14.7308 6.31803 14.4064 6.79224 14.1857 7.31395C13.965 7.83567 13.8523 8.39458 13.8541 8.95875ZM58.0396 1.60623H61.0721V4.65804H65.1595V7.56563H61.0756V12.6924C61.0738 12.8683 61.1078 13.0428 61.1757 13.2058C61.2437 13.3688 61.3442 13.517 61.4714 13.642C61.5986 13.7669 61.75 13.8662 61.9169 13.9338C62.0838 14.0016 62.2628 14.0364 62.4436 14.0364H65.4762V16.9866H62.4436C61.2747 16.9866 60.1536 16.5349 59.3271 15.7308C58.5005 14.9268 58.0361 13.8362 58.0361 12.699L58.0396 1.60623ZM95.56 1.60623H98.5925V4.65804H102.68V7.56563H98.5959V12.6924C98.5942 12.8686 98.6285 13.0433 98.6963 13.2065C98.765 13.3698 98.8654 13.5182 98.9933 13.6432C99.1203 13.7682 99.2723 13.8673 99.4396 13.9348C99.607 14.0023 99.7864 14.0368 99.9675 14.0364H103V16.9866H99.9675C98.7985 16.9866 97.6775 16.5349 96.8509 15.7308C96.0243 14.9268 95.56 13.8362 95.56 12.699V1.60623Z" fill="#231D33"/>
</g>
</svg>
