<svg width="156" height="16" viewBox="0 0 156 16" fill="none" xmlns="http://www.w3.org/2000/svg">
<g>
<mask id="mask0_5643_15644" maskUnits="userSpaceOnUse" x="0" y="0" width="155" height="16">
<path d="M154.785 0.0732422H0.43199V15.1321H154.785V0.0732422Z" fill="white"/>
</mask>
<g mask="url(#mask0_5643_15644)">
<path d="M3.21304 5.43054C2.52372 5.16449 1.99967 5.05565 1.60463 5.05968H1.57238C1.57238 5.05968 1.5361 5.05968 1.51998 5.05968C1.50384 5.05968 1.48772 5.05968 1.4716 5.05968C1.45548 5.05968 1.43532 5.05968 1.41517 5.06371C1.40307 5.06371 1.39501 5.06371 1.38291 5.06371C1.3547 5.06371 1.33052 5.07177 1.3023 5.0758H1.29826C1.21764 5.09192 1.14509 5.11208 1.07655 5.13627C0.850811 5.22092 0.66941 5.37007 0.584757 5.59985C0.548477 5.68047 0.524291 5.76512 0.504135 5.85381C0.471886 6.00295 0.455762 6.11583 0.431575 6.30933V13.908C0.431575 13.9523 0.431575 13.9926 0.439637 14.0369C0.471886 14.5569 0.798406 14.8512 1.27811 14.948C1.28214 14.948 1.29021 14.948 1.29423 14.948C1.40307 14.9681 1.51594 14.9803 1.63687 14.9803C1.70541 14.9803 1.76991 14.9803 1.83843 14.9681H11.247C13.0006 12.5656 8.09069 7.29291 3.21304 5.42651V5.43054Z" fill="#FD7D5A"/>
<path d="M16.6245 1.37932C16.4351 0.0813044 13.1013 0.0732422 13.1013 0.0732422H1.4877L1.47964 0.0813044C0.870946 0.129678 0.439617 0.452166 0.439617 1.09715C0.439617 1.09715 1.28615 4.05195 7.81655 4.45506C9.16294 4.53972 12.0694 4.18095 14.0447 3.43116C16.0037 2.6854 16.7092 1.97592 16.6205 1.37932H16.6245Z" fill="#FD7D5A"/>
<path d="M24.4006 0.0732422C24.191 0.0732422 23.9814 0.105491 23.796 0.182082C23.6549 0.242548 15.4314 3.77784 13.6496 6.50287C11.8477 9.25612 12.8474 11.4088 13.9761 12.8076C15.1008 14.2104 16.1247 14.9682 16.1247 14.9682H24.4208C25.0859 14.9602 25.5777 14.6538 25.5978 13.9927V1.09715C25.5978 0.395731 25.0899 0.0772732 24.4006 0.0772732V0.0732422Z" fill="#FD7D5A"/>
<path d="M39.7467 4.59122C39.5291 2.53133 38.3077 1.69285 36.2115 1.69285C34.1153 1.69285 32.9946 2.55148 32.9946 4.05105C32.9946 5.65141 34.6514 5.99002 36.8524 6.44957C39.1704 6.92927 42.1291 7.65084 42.1291 10.646C42.1291 13.8063 39.3114 14.9633 36.5944 14.9633C33.1962 14.9633 30.701 13.3831 30.701 9.94461H32.519C32.5996 12.5245 34.4781 13.4235 36.7557 13.4235C38.4165 13.4235 40.291 12.843 40.291 10.8234C40.291 8.98514 38.4931 8.62637 36.155 8.0862C33.8573 7.56619 31.1968 7.18726 31.1968 4.18812C31.1968 1.18896 33.7888 0.132812 36.3485 0.132812C39.3678 0.132812 41.4439 1.53161 41.5648 4.59122H39.7467Z" fill="#FD7D5A"/>
<path d="M57.2702 7.40987C57.2702 11.5861 54.9725 14.9843 50.4536 14.9843C45.9348 14.9843 43.641 11.5056 43.641 7.36956C43.641 2.9313 46.2975 0.0732422 50.4335 0.0732422C54.8516 0.0732422 57.2702 3.16914 57.2702 7.40987ZM45.5195 7.51064C45.5195 11.0661 47.4585 13.3638 50.4778 13.3638C53.4971 13.3638 55.3917 11.046 55.3917 7.51064C55.3917 3.97536 53.4528 1.7139 50.4374 1.7139C47.0796 1.7139 45.5195 4.47119 45.5195 7.51064Z" fill="#FD7D5A"/>
<path d="M69.0774 14.6385H59.6446V0.408691H61.5231V12.9978H69.0774V14.6345V14.6385Z" fill="#FD7D5A"/>
<path d="M83.565 7.40987C83.565 11.5861 81.2673 14.9843 76.7525 14.9843C72.2375 14.9843 69.9399 11.5056 69.9399 7.36956C69.9399 2.9313 72.5963 0.0732422 76.7363 0.0732422C81.1543 0.0732422 83.569 3.16914 83.569 7.40987H83.565ZM71.8143 7.51064C71.8143 11.0661 73.7533 13.3638 76.7686 13.3638C79.7838 13.3638 81.6865 11.046 81.6865 7.51064C81.6865 3.97536 79.7476 1.7139 76.7322 1.7139C73.3743 1.7139 71.8143 4.47119 71.8143 7.51064Z" fill="#FD7D5A"/>
<path d="M91.8529 0.408691C94.5699 0.408691 96.5896 1.5495 96.5896 4.50834C96.5896 7.72516 94.5096 8.8055 91.7319 8.8055H87.8742V14.6425H85.9957V0.408691H91.8488H91.8529ZM87.8782 7.2253H91.4941C93.3122 7.2253 94.711 6.72545 94.711 4.62524C94.711 2.34766 93.0945 2.0292 91.2321 2.0292H87.8742V7.2253H87.8782Z" fill="#FD7D5A"/>
<path d="M110.138 14.6385H108.259V7.98719H100.746V14.6425H98.8673V0.408691H100.746V6.34653H108.259V0.408691H110.138V14.6385Z" fill="#FD7D5A"/>
<path d="M124.823 14.6385H122.723L121.143 10.2809H115.168L113.552 14.6385H111.552L117.148 0.408691H119.264L124.819 14.6385H124.823ZM118.168 2.20657L115.709 8.78131H120.587L118.168 2.20657Z" fill="#FD7D5A"/>
<path d="M132.495 0.408691C135.171 0.408691 137.271 1.29151 137.271 4.34709C137.271 6.00388 136.292 7.38656 134.833 7.80578C136.833 8.22502 136.913 9.58349 136.99 11.3047C137.05 12.4456 137.05 13.8806 137.808 14.6425H135.651C135.187 13.9249 135.212 12.3247 135.171 11.5063C135.051 9.10784 134.43 8.48705 131.854 8.48705H128.117V14.6425H126.239V0.408691H132.495ZM128.117 6.98344H131.652C133.49 6.98344 135.389 6.80204 135.389 4.464C135.389 2.34766 133.829 2.00905 132.152 2.00905H128.117V6.98344Z" fill="#FD7D5A"/>
<path d="M142.544 0.408691L147.119 12.4577L151.537 0.408691H154.154V14.6385H152.376V2.76689L147.917 14.6385H146.281L141.741 2.76689V14.6385H139.944V0.408691H142.544Z" fill="#FD7D5A"/>
</g>
</g>
</svg>
