<svg width="40" height="40" viewBox="0 0 40 40" fill="none" xmlns="http://www.w3.org/2000/svg">
<g clip-path="url(#clip0_5867_5487)">
<path d="M6.29937 10.7304V33.2296C3.1417 29.9618 1.25317 25.6682 0.983622 21.1227C0.70978 16.505 2.12578 11.9477 4.96338 8.30029C5.77839 8.82851 6.29169 9.75535 6.29937 10.7304Z" stroke="black" stroke-linejoin="round"/>
<path d="M12.2178 35.3705V17.282C12.2178 14.8902 13.1672 12.5962 14.8573 10.9042C16.6523 9.1071 19.0965 8.20903 21.6365 8.26731C23.4956 8.33505 25.2882 8.97577 26.769 10.1018C28.2507 11.2285 29.3478 12.7858 29.9099 14.5605C30.472 16.3351 30.4714 18.2403 29.9085 20.0148C29.3457 21.789 28.2479 23.3459 26.7656 24.4719L15.0486 33.6993C14.9743 33.754 14.8943 33.8402 14.8503 33.9642C14.795 34.1197 14.8118 34.2964 14.9083 34.4438C14.9733 34.543 15.0574 34.5949 15.0898 34.6135C15.1171 34.6293 15.2172 34.6863 15.3549 34.6863H32.1521C29.7843 36.6438 26.9753 38.0013 23.9639 38.6391C20.7529 39.319 17.4061 39.1427 14.2758 38.165C13.679 37.9808 13.1571 37.6098 12.7866 37.1068C12.4163 36.6039 12.2168 35.9952 12.2178 35.3705Z" stroke="black" stroke-linejoin="round"/>
<path d="M19.9904 0.952156C23.103 0.949452 26.1692 1.70989 28.9198 3.16689C31.6706 4.6239 34.0221 6.73304 35.7689 9.30971C37.5154 11.8864 38.604 14.852 38.939 17.9469C39.2739 21.0401 38.846 24.1681 37.6928 27.0574C37.4676 27.5841 37.093 28.0333 36.6153 28.3494C36.1362 28.6663 35.5743 28.8355 34.9998 28.8357H30.4711C31.4759 27.6425 32.2703 26.2845 32.8179 24.8199C33.4581 23.1079 33.7484 21.2849 33.6715 19.4588C33.5045 15.9237 31.9592 12.5298 29.3929 10.0907C26.8121 7.63793 23.3833 6.27768 19.8232 6.29424H6.76172C8.39791 4.71443 10.3055 3.439 12.3951 2.53037C14.7854 1.49096 17.3837 0.952156 19.9904 0.952156Z" stroke="black" stroke-linejoin="round"/>
</g>
<defs>
<clipPath id="clip0_5867_5487">
<rect width="40" height="40" fill="white"/>
</clipPath>
</defs>
</svg>
