<svg width="120" height="44" viewBox="0 0 120 44" fill="none" xmlns="http://www.w3.org/2000/svg">
<g>
<mask id="mask0_5867_5728" maskUnits="userSpaceOnUse" x="0" y="0" width="120" height="44">
<path d="M119.362 0H0.638672V44H119.362V0Z" fill="white"/>
</mask>
<g mask="url(#mask0_5867_5728)">
<path d="M0.638672 6.4707H33.8302V23.6062C33.8302 28.0003 31.5209 32.0514 27.7663 34.2567L17.2344 40.5457L6.71362 34.2567C2.95908 32.0678 0.654785 28.0003 0.654785 23.6062V6.4707H0.638672Z" fill="#FFDD2D"/>
<path fill-rule="evenodd" clip-rule="evenodd" d="M9.5752 15.4893V20.8143C10.3003 19.9976 11.6055 19.4421 13.088 19.4421H14.7155V25.6332C14.7155 27.2829 14.2805 28.7206 13.6198 29.521H20.8475C20.1869 28.7206 19.788 27.2829 19.788 25.6332V19.4421H21.3709C22.8695 19.4421 24.1853 19.9976 24.8943 20.8143V15.4893H9.5752Z" fill="#333333"/>
<path d="M58.2867 20.3361C57.4231 20.0098 56.2937 19.912 55.0646 19.912H48.2211V17.8241H59.981V14.2354H43.4043V29.7648H54.6326C56.1941 29.7648 57.3565 29.6343 58.2205 29.3078C60.0475 28.6227 61.2766 26.9589 61.2766 24.7731C61.2766 22.5547 60.1139 21.0213 58.2867 20.3361ZM55.895 25.7192C55.6292 25.8172 55.2639 25.8497 54.7986 25.8497H48.2211V23.3703H54.7986C55.3304 23.3703 55.762 23.403 56.0943 23.5661C56.4928 23.7619 56.6923 24.1207 56.6923 24.5773C56.6923 25.034 56.4598 25.5234 55.895 25.7192Z" fill="#333333"/>
<path d="M74.2234 14.2354H67.4801L61.2773 29.7648H66.494L67.3528 27.5136H74.3506L75.2414 29.7648H80.4263L74.2234 14.2354ZM68.4979 24.0879L70.6929 17.8241H71.0427L73.2374 24.0879H68.4979Z" fill="#333333"/>
<path d="M86.3031 23.9903V29.7648H81.7021V14.2354H86.3031V19.9121H93.6967V14.2354H98.2979V29.7648H93.6967V23.9903H86.3031Z" fill="#333333"/>
<path d="M105.555 23.8923V29.7648H100.852V14.2354H105.555V20.0752H106.852L112.529 14.2354H118.432L110.907 21.6738L118.724 29.7648H112.464L106.852 23.8923H105.555Z" fill="#333333"/>
</g>
</g>
</svg>
