<svg width="147" height="15" viewBox="0 0 147 15" fill="none" xmlns="http://www.w3.org/2000/svg">
<g clip-path="url(#clip0_5867_5294)">
<path d="M16.1477 0.00159995C15.9653 -0.0112014 15.5588 -0.0144018 15.4148 -0.0144018C12.8449 -0.0208024 0.00195312 -2.22586e-07 0.00195312 -2.22586e-07V15.0032C0.00195312 15.0032 16.1093 15.0128 16.4005 15.0128C16.4261 15.0128 16.4661 15.0112 16.4949 15.008C16.7477 14.9792 16.9158 14.9184 17.119 14.8576C19.0168 14.3311 20.4121 12.5933 20.4121 10.5243C20.4121 9.3658 19.9705 8.31289 19.2536 7.5144C19.9721 6.71752 20.4121 5.6646 20.4121 4.50608C20.4137 2.09622 18.4183 0.124813 16.1477 0.00159995ZM14.2819 12.0253V12.0285H4.67125H4.65845V9.00736H4.67125H14.2819V9.01056C15.0868 9.02656 15.7332 9.69383 15.7332 10.5179C15.7332 11.342 15.0868 12.0093 14.2819 12.0253ZM14.2819 6.00704V6.01024H4.66005V2.98912H4.67285V2.98592H11.6928C11.6928 2.98752 11.6928 2.98752 11.6912 2.98912H14.2819V2.99232C15.0868 3.00832 15.7332 3.67559 15.7332 4.49968C15.7348 5.32377 15.0868 5.99104 14.2819 6.00704Z" fill="#17438F"/>
<path d="M138.701 -0.0175781H134.03H126.13V2.6195C126.13 2.81312 126.287 2.96994 126.48 2.96994H134.03V15H138.701V2.96994H146.25C146.444 2.96994 146.601 2.81312 146.601 2.6195V-0.0175781H138.701Z" fill="#17438F"/>
<path d="M31.0498 10.8748V0.707358C31.0498 0.320116 30.7362 0.00648298 30.349 0.00648298H26.3613V15.0097H31.0498L42.0798 4.25974V14.3088C42.0798 14.6961 42.3934 15.0097 42.7807 15.0097H46.7683V0.00648298L42.155 0.00488281L31.0498 10.8748Z" fill="#17438F"/>
<path d="M65.8006 -0.0141602H61.3762C59.5152 -0.0141602 57.8318 1.08836 57.0877 2.79414L51.7607 15.0082H56.4012C56.6781 15.0082 56.9277 14.845 57.0381 14.5922L58.2158 11.8911H68.9594L70.1371 14.5922C70.2475 14.845 70.4971 15.0082 70.774 15.0082H75.4145L70.0891 2.79254C69.345 1.08836 67.6616 -0.0141602 65.8006 -0.0141602ZM59.52 8.90199L61.373 4.65194C61.757 3.77184 62.6243 3.20378 63.5844 3.20378H63.5924C64.5525 3.20378 65.4198 3.77184 65.8038 4.65194L67.6568 8.90199H59.52Z" fill="#17438F"/>
<path d="M116.694 -0.0141602H112.278C110.415 -0.0141602 108.728 1.08836 107.984 2.79254L102.645 14.997L107.525 15.0018C107.664 15.0018 107.791 14.901 107.847 14.773L109.116 11.8703H119.859L121.128 14.773C121.184 14.901 121.307 15.0018 121.479 15.0082L126.338 15.0066L120.989 2.79414C120.243 1.08676 118.558 -0.0141602 116.694 -0.0141602ZM110.418 8.88759L112.27 4.64874C112.654 3.76864 113.524 3.19898 114.487 3.19898C115.451 3.19898 116.32 3.76864 116.705 4.64874L118.557 8.88759H110.418Z" fill="#17438F"/>
<path d="M83.9657 -0.0141602C81.4342 -0.0141602 79.3828 2.04366 79.3828 4.58313V10.4094C79.3828 12.9488 81.4342 15.0066 83.9657 15.0066L98.2104 15.0034V12.3328C98.2104 12.1391 98.0536 11.9807 97.86 11.9807H85.8795C84.8714 11.9807 84.0537 11.1614 84.0537 10.1485V4.78635C84.0537 3.77504 84.8714 2.95416 85.8795 2.95416H97.86C98.0536 2.95416 98.2104 2.79734 98.2104 2.60212L98.2392 -0.0141602H83.9657Z" fill="#17438F"/>
</g>
<defs>
<clipPath id="clip0_5867_5294">
<rect width="146.6" height="15" fill="white"/>
</clipPath>
</defs>
</svg>
