<svg width="112" height="14" viewBox="0 0 112 14" fill="none" xmlns="http://www.w3.org/2000/svg">
<path d="M63.1027 13.6606H56.1334V0.34375H62.2605C65.033 0.34375 66.5378 2.0715 66.5378 4.11596C66.5378 5.03336 66.0751 5.9711 65.3665 6.6806C66.4121 7.23263 67.3083 8.47647 67.3083 9.77339C67.3065 12.0549 65.5257 13.6606 63.1027 13.6606ZM59.4243 10.9818H62.6542C63.4521 10.9818 63.9767 10.3918 63.9767 9.66723V9.646C63.9767 8.92146 63.4521 8.33139 62.6542 8.33139H59.4243V10.9818ZM59.4243 5.65174H61.8314C62.6931 5.65174 63.2062 5.06167 63.2062 4.33713C63.2062 3.61259 62.7249 3.02252 61.8314 3.02252H59.4243V5.65174Z" fill="#07BE5F"/>
<path d="M26.037 13.6606L21.2431 6.85311L25.8928 0.34375H22.0172L18.322 5.6774V0.34375H14.9533V13.6606H18.322V8.19692L22.0322 13.6606H26.037Z" fill="#07BE5F"/>
<path d="M86.5842 0.34375V10.1985C86.5842 10.6409 86.3887 10.9806 85.9747 10.9806C85.3907 10.9806 85.3651 10.3126 85.3651 9.87116H82.204C82.204 12.0077 83.4285 14.0001 86.0711 14.0001C88.3705 14.0001 89.9532 12.1289 89.9532 9.82958V3.34291H94.5095V13.6621H97.8785V0.34375H86.5842Z" fill="#07BE5F"/>
<path d="M41.1878 0.34375L36.5244 10.1773C35.6609 12.0484 33.8827 13.9983 30.8543 13.9983C28.2762 13.9983 25.853 12.4324 25.4221 8.98381H28.6894C28.9309 10.3613 29.9121 10.9735 31.0065 10.9735C31.9451 10.9735 32.5759 10.417 32.7502 10.0985L27.196 0.34375H31.071L34.5993 6.79061L37.5091 0.34375H41.1878Z" fill="#07BE5F"/>
<path d="M8.96945 13.6606H0V0.34375H8.12726C10.8998 0.34375 12.4045 2.0715 12.4045 4.11596C12.4045 5.03336 11.9419 5.9711 11.2333 6.6806C12.2789 7.23263 13.1751 8.47647 13.1751 9.77339C13.1742 12.0549 11.3934 13.6606 8.96945 13.6606ZM3.29178 10.9818H8.52182C9.31977 10.9818 9.84437 10.3918 9.84437 9.66723V9.646C9.84437 8.92146 9.31977 8.33139 8.52182 8.33139H3.29178V10.9818ZM3.29178 5.65174H7.69909C8.56074 5.65174 9.07384 5.06167 9.07384 4.33713C9.07384 3.61259 8.59259 3.02252 7.69909 3.02252H3.29178V5.65174Z" fill="#07BE5F"/>
<path d="M50.8371 8.65863C50.3186 9.87953 49.2048 10.7386 47.6521 10.7386C45.4598 10.7386 44.1407 9.02579 44.1407 7.00246V6.99627C44.1407 4.97206 45.4607 3.25926 47.6521 3.25926C49.2101 3.25926 50.3275 4.12539 50.8433 5.35248H54.4679C53.7903 2.30201 51.2308 0 47.6521 0C43.4541 0 40.6567 3.16814 40.6567 6.99538V7.00069C40.6567 10.8279 43.4541 13.9961 47.6521 13.9961C51.2255 13.9961 53.7823 11.7003 54.4653 8.65686H50.8371V8.65863Z" fill="#07BE5F"/>
<path d="M78.2336 0.34375L72.6117 8.04033V0.34375H69.2429V13.6606H72.3162L77.9399 5.97111V13.6606H81.3086V0.34375H78.2336Z" fill="#07BE5F"/>
<path d="M101.688 0.34375V9.35052C101.688 10.1839 101.212 10.6775 100.361 10.6775H99.3684V13.6615H101.154C103.499 13.6615 105.057 12.1841 105.057 9.47172V3.34188H108.465V13.6606H111.834V0.34375H101.688Z" fill="#07BE5F"/>
</svg>
