<svg width="169" height="44" viewBox="0 0 169 44" fill="none" xmlns="http://www.w3.org/2000/svg">
<path fill-rule="evenodd" clip-rule="evenodd" d="M36.3717 19.4233H36.3498C35.7154 19.4367 35.1684 19.76 34.6528 20.1067C34.1277 20.4567 33.6558 20.6167 33.0464 20.3833C32.2839 19.81 32.2714 18.8667 32.3745 17.99C32.6401 15.7267 32.9839 13.4767 33.3214 11.2234C33.3058 10.9667 33.1121 10.76 32.8714 10.7434L29.3524 11.4034C27.8992 11.6867 26.2491 12.0834 24.7552 11.8834C24.3677 11.7734 24.0302 11.52 23.8083 11.1634C23.6207 10.53 23.7583 10.1134 24.0739 9.55336C24.3583 9.05002 24.6989 8.44669 24.6989 7.69336C24.7052 6.27669 23.6051 4.99336 22.18 5.00003C20.7674 5.00669 19.7111 6.30336 19.6955 7.69336C19.6955 8.45002 20.0392 9.05002 20.3268 9.55336C20.6268 10.08 20.8362 10.5634 20.5955 11.1667C20.3674 11.52 20.0299 11.7767 19.6423 11.8867C18.1329 12.09 16.5265 11.6334 15.0451 11.4067C13.4231 11.1067 11.8011 10.8067 10.7917 10.5667H10.7323C10.4167 10.4967 10.0854 10.7634 10.0604 11.1067C9.63849 13.35 9.31347 15.6034 9.04783 17.87C8.95719 18.74 8.90407 19.8433 9.776 20.3233C10.326 20.6333 10.8948 20.35 11.3667 20.0467C11.8949 19.7067 12.4418 19.39 13.0825 19.3633C14.4763 19.3633 15.6077 20.5733 15.6077 22.0633C15.6077 23.5533 14.4763 24.7633 13.0825 24.7633C12.645 24.7567 12.2168 24.63 11.8355 24.3967C10.7448 23.73 9.56974 23.3467 9.08533 24.8767C9.03533 25.3133 9.03533 25.7533 9.08533 26.19C9.31347 28.4067 9.76038 31.28 10.0416 32.8933C10.1323 33.2967 10.4667 33.4333 10.8261 33.4333C13.595 32.91 16.839 31.7333 19.6798 32.1133C20.0674 32.2233 20.4049 32.48 20.633 32.8333C20.9393 33.4 20.6487 34.0033 20.3705 34.5067C20.0892 35.0133 19.758 35.61 19.7923 36.3067C19.808 37.7867 20.9268 38.9833 22.3113 39C23.7301 38.96 24.7958 37.73 24.8302 36.3067C24.8302 35.5567 24.4896 34.9533 24.2052 34.45C23.9051 33.92 23.702 33.44 23.9333 32.8367C24.1614 32.4833 24.4989 32.2267 24.8865 32.1167C25.3334 32.0567 25.7865 32.0567 26.2334 32.1167C28.3523 32.4133 30.4556 32.82 32.562 33.1967C32.962 33.3033 33.3433 33.15 33.3433 32.6567L33.3371 32.61C32.9277 30.1633 32.1307 27.3767 32.4526 24.8767C32.5558 24.4967 32.7714 24.16 33.0652 23.9167C34.0996 23.0633 35.406 24.62 36.481 24.6367C37.9061 24.6433 39.0062 23.36 39 21.9433C38.8093 20.5333 37.703 19.4767 36.3717 19.4233ZM24.1833 28.23C24.252 28.17 23.7364 25.3133 23.6833 24.9967C23.1738 24.9967 22.6801 24.9533 22.2238 24.6967C21.88 24.3133 21.6487 23.8367 21.5518 23.3167C21.3831 22.4267 21.3831 21.5133 21.5518 20.6233C21.6612 20.11 21.8925 19.6367 22.2238 19.25C22.5582 18.9067 23.2363 19.01 23.6833 18.95C23.8083 18.23 24.1364 16.1433 24.1833 15.8367C23.9176 15.6133 23.5332 15.4167 23.1801 15.4167C21.7237 15.2967 20.8424 17.05 20.4361 18.23C20.1017 19.4567 19.933 20.7267 19.9299 22.0033C19.9299 23.32 20.083 24.6233 20.4361 25.89C20.9799 27.4233 22.5238 29.63 24.1833 28.23Z" fill="white"/>
<path d="M51.5078 28.043L54.9766 17.3203H57.1914L52.6328 30H51.1797L51.5078 28.043ZM48.6133 17.3203L52.1875 28.1016L52.4336 30H50.9805L46.3867 17.3203H48.6133ZM58.4796 23.8008V23.5312C58.4796 22.6172 58.6124 21.7695 58.8781 20.9883C59.1437 20.1992 59.5265 19.5156 60.0265 18.9375C60.5265 18.3516 61.132 17.8984 61.8429 17.5781C62.5538 17.25 63.3507 17.0859 64.2335 17.0859C65.1242 17.0859 65.9249 17.25 66.6359 17.5781C67.3546 17.8984 67.964 18.3516 68.464 18.9375C68.9718 19.5156 69.3585 20.1992 69.6242 20.9883C69.8898 21.7695 70.0226 22.6172 70.0226 23.5312V23.8008C70.0226 24.7148 69.8898 25.5625 69.6242 26.3438C69.3585 27.125 68.9718 27.8086 68.464 28.3945C67.964 28.9727 67.3585 29.4258 66.6476 29.7539C65.9445 30.0742 65.1476 30.2344 64.257 30.2344C63.3663 30.2344 62.5656 30.0742 61.8546 29.7539C61.1437 29.4258 60.5343 28.9727 60.0265 28.3945C59.5265 27.8086 59.1437 27.125 58.8781 26.3438C58.6124 25.5625 58.4796 24.7148 58.4796 23.8008ZM60.6476 23.5312V23.8008C60.6476 24.4336 60.7218 25.0312 60.8702 25.5938C61.0187 26.1484 61.2413 26.6406 61.5382 27.0703C61.8429 27.5 62.2218 27.8398 62.6749 28.0898C63.1281 28.332 63.6554 28.4531 64.257 28.4531C64.8507 28.4531 65.3702 28.332 65.8156 28.0898C66.2687 27.8398 66.6437 27.5 66.9406 27.0703C67.2374 26.6406 67.4601 26.1484 67.6085 25.5938C67.7648 25.0312 67.8429 24.4336 67.8429 23.8008V23.5312C67.8429 22.9062 67.7648 22.3164 67.6085 21.7617C67.4601 21.1992 67.2335 20.7031 66.9288 20.2734C66.632 19.8359 66.257 19.4922 65.8038 19.2422C65.3585 18.9922 64.8351 18.8672 64.2335 18.8672C63.6398 18.8672 63.1163 18.9922 62.6632 19.2422C62.2179 19.4922 61.8429 19.8359 61.5382 20.2734C61.2413 20.7031 61.0187 21.1992 60.8702 21.7617C60.7218 22.3164 60.6476 22.9062 60.6476 23.5312ZM73.9124 17.3203L76.6897 21.9375L79.5022 17.3203H82.0452L77.8967 23.5781L82.1741 30H79.6663L76.7366 25.2422L73.8069 30H71.2874L75.553 23.5781L71.4163 17.3203H73.9124ZM86.6732 17.3203V30H84.4936V17.3203H86.6732ZM84.3295 13.957C84.3295 13.6055 84.435 13.3086 84.6459 13.0664C84.8647 12.8242 85.185 12.7031 85.6068 12.7031C86.0209 12.7031 86.3373 12.8242 86.5561 13.0664C86.7826 13.3086 86.8959 13.6055 86.8959 13.957C86.8959 14.293 86.7826 14.582 86.5561 14.8242C86.3373 15.0586 86.0209 15.1758 85.6068 15.1758C85.185 15.1758 84.8647 15.0586 84.6459 14.8242C84.435 14.582 84.3295 14.293 84.3295 13.957ZM92.274 19.8398V30H90.0943V17.3203H92.1568L92.274 19.8398ZM91.8287 23.1797L90.8208 23.1445C90.8287 22.2773 90.9419 21.4766 91.1607 20.7422C91.3794 20 91.7037 19.3555 92.1333 18.8086C92.563 18.2617 93.0982 17.8398 93.7388 17.543C94.3794 17.2383 95.1216 17.0859 95.9654 17.0859C96.5591 17.0859 97.106 17.1719 97.606 17.3438C98.106 17.5078 98.5396 17.7695 98.9068 18.1289C99.274 18.4883 99.5591 18.9492 99.7622 19.5117C99.9654 20.0742 100.067 20.7539 100.067 21.5508V30H97.899V21.6562C97.899 20.9922 97.7857 20.4609 97.5591 20.0625C97.3404 19.6641 97.0279 19.375 96.6216 19.1953C96.2154 19.0078 95.7388 18.9141 95.1919 18.9141C94.5513 18.9141 94.0162 19.0273 93.5865 19.2539C93.1568 19.4805 92.813 19.793 92.5552 20.1914C92.2974 20.5898 92.1099 21.0469 91.9927 21.5625C91.8833 22.0703 91.8287 22.6094 91.8287 23.1797ZM100.043 21.9844L98.5904 22.4297C98.5982 21.7344 98.7115 21.0664 98.9302 20.4258C99.1568 19.7852 99.481 19.2148 99.9029 18.7148C100.333 18.2148 100.86 17.8203 101.485 17.5312C102.11 17.2344 102.825 17.0859 103.629 17.0859C104.309 17.0859 104.911 17.1758 105.434 17.3555C105.965 17.5352 106.411 17.8125 106.77 18.1875C107.137 18.5547 107.415 19.0273 107.602 19.6055C107.79 20.1836 107.883 20.8711 107.883 21.668V30H105.704V21.6445C105.704 20.9336 105.59 20.3828 105.364 19.9922C105.145 19.5938 104.833 19.3164 104.426 19.1602C104.028 18.9961 103.551 18.9141 102.997 18.9141C102.52 18.9141 102.098 18.9961 101.731 19.1602C101.364 19.3242 101.055 19.5508 100.805 19.8398C100.555 20.1211 100.364 20.4453 100.231 20.8125C100.106 21.1797 100.043 21.5703 100.043 21.9844ZM113.297 19.7578V34.875H111.117V17.3203H113.109L113.297 19.7578ZM121.84 23.5547V23.8008C121.84 24.7227 121.73 25.5781 121.511 26.3672C121.293 27.1484 120.972 27.8281 120.55 28.4062C120.136 28.9844 119.625 29.4336 119.015 29.7539C118.406 30.0742 117.707 30.2344 116.918 30.2344C116.113 30.2344 115.402 30.1016 114.785 29.8359C114.168 29.5703 113.644 29.1836 113.215 28.6758C112.785 28.168 112.441 27.5586 112.183 26.8477C111.933 26.1367 111.761 25.3359 111.668 24.4453V23.1328C111.761 22.1953 111.937 21.3555 112.195 20.6133C112.453 19.8711 112.793 19.2383 113.215 18.7148C113.644 18.1836 114.164 17.7812 114.773 17.5078C115.382 17.2266 116.086 17.0859 116.882 17.0859C117.679 17.0859 118.386 17.2422 119.004 17.5547C119.621 17.8594 120.14 18.2969 120.562 18.8672C120.984 19.4375 121.3 20.1211 121.511 20.918C121.73 21.707 121.84 22.5859 121.84 23.5547ZM119.66 23.8008V23.5547C119.66 22.9219 119.593 22.3281 119.461 21.7734C119.328 21.2109 119.121 20.7188 118.84 20.2969C118.566 19.8672 118.215 19.5312 117.785 19.2891C117.355 19.0391 116.843 18.9141 116.25 18.9141C115.703 18.9141 115.226 19.0078 114.82 19.1953C114.422 19.3828 114.082 19.6367 113.8 19.957C113.519 20.2695 113.289 20.6289 113.109 21.0352C112.937 21.4336 112.808 21.8477 112.722 22.2773V25.3125C112.879 25.8594 113.097 26.375 113.379 26.8594C113.66 27.3359 114.035 27.7227 114.504 28.0195C114.972 28.3086 115.562 28.4531 116.273 28.4531C116.859 28.4531 117.363 28.332 117.785 28.0898C118.215 27.8398 118.566 27.5 118.84 27.0703C119.121 26.6406 119.328 26.1484 119.461 25.5938C119.593 25.0312 119.66 24.4336 119.66 23.8008ZM126.925 12V30H124.745V12H126.925ZM137.846 27.832V21.3047C137.846 20.8047 137.744 20.3711 137.541 20.0039C137.346 19.6289 137.049 19.3398 136.65 19.1367C136.252 18.9336 135.76 18.832 135.174 18.832C134.627 18.832 134.146 18.9258 133.732 19.1133C133.326 19.3008 133.006 19.5469 132.771 19.8516C132.545 20.1562 132.432 20.4844 132.432 20.8359H130.264C130.264 20.3828 130.381 19.9336 130.615 19.4883C130.85 19.043 131.186 18.6406 131.623 18.2812C132.068 17.9141 132.6 17.625 133.217 17.4141C133.842 17.1953 134.537 17.0859 135.303 17.0859C136.225 17.0859 137.037 17.2422 137.74 17.5547C138.451 17.8672 139.006 18.3398 139.404 18.9727C139.811 19.5977 140.014 20.3828 140.014 21.3281V27.2344C140.014 27.6562 140.049 28.1055 140.119 28.582C140.197 29.0586 140.311 29.4688 140.459 29.8125V30H138.197C138.088 29.75 138.002 29.418 137.939 29.0039C137.877 28.582 137.846 28.1914 137.846 27.832ZM138.221 22.3125L138.244 23.8359H136.053C135.436 23.8359 134.885 23.8867 134.4 23.9883C133.916 24.082 133.51 24.2266 133.182 24.4219C132.853 24.6172 132.603 24.8633 132.432 25.1602C132.26 25.4492 132.174 25.7891 132.174 26.1797C132.174 26.5781 132.264 26.9414 132.443 27.2695C132.623 27.5977 132.893 27.8594 133.252 28.0547C133.619 28.2422 134.068 28.3359 134.6 28.3359C135.264 28.3359 135.85 28.1953 136.357 27.9141C136.865 27.6328 137.268 27.2891 137.564 26.8828C137.869 26.4766 138.033 26.082 138.057 25.6992L138.982 26.7422C138.928 27.0703 138.779 27.4336 138.537 27.832C138.295 28.2305 137.971 28.6133 137.564 28.9805C137.166 29.3398 136.689 29.6406 136.135 29.8828C135.588 30.1172 134.971 30.2344 134.283 30.2344C133.424 30.2344 132.67 30.0664 132.021 29.7305C131.381 29.3945 130.881 28.9453 130.521 28.3828C130.17 27.8125 129.994 27.1758 129.994 26.4727C129.994 25.793 130.127 25.1953 130.393 24.6797C130.658 24.1562 131.041 23.7227 131.541 23.3789C132.041 23.0273 132.643 22.7617 133.346 22.582C134.049 22.4023 134.834 22.3125 135.701 22.3125H138.221ZM145.556 20.0273V30H143.388V17.3203H145.439L145.556 20.0273ZM145.04 23.1797L144.138 23.1445C144.146 22.2773 144.274 21.4766 144.524 20.7422C144.774 20 145.126 19.3555 145.579 18.8086C146.032 18.2617 146.571 17.8398 147.196 17.543C147.829 17.2383 148.528 17.0859 149.294 17.0859C149.919 17.0859 150.482 17.1719 150.982 17.3438C151.482 17.5078 151.907 17.7734 152.259 18.1406C152.618 18.5078 152.892 18.9844 153.079 19.5703C153.267 20.1484 153.36 20.8555 153.36 21.6914V30H151.181V21.668C151.181 21.0039 151.083 20.4727 150.888 20.0742C150.692 19.668 150.407 19.375 150.032 19.1953C149.657 19.0078 149.196 18.9141 148.649 18.9141C148.11 18.9141 147.618 19.0273 147.173 19.2539C146.735 19.4805 146.357 19.793 146.036 20.1914C145.724 20.5898 145.478 21.0469 145.298 21.5625C145.126 22.0703 145.04 22.6094 145.04 23.1797ZM161.926 17.3203V18.9844H155.071V17.3203H161.926ZM157.391 14.2383H159.559V26.8594C159.559 27.2891 159.625 27.6133 159.758 27.832C159.891 28.0508 160.063 28.1953 160.274 28.2656C160.485 28.3359 160.711 28.3711 160.953 28.3711C161.133 28.3711 161.321 28.3555 161.516 28.3242C161.719 28.2852 161.871 28.2539 161.973 28.2305L161.985 30C161.813 30.0547 161.586 30.1055 161.305 30.1523C161.031 30.207 160.699 30.2344 160.309 30.2344C159.778 30.2344 159.289 30.1289 158.844 29.918C158.399 29.707 158.043 29.3555 157.778 28.8633C157.52 28.3633 157.391 27.6914 157.391 26.8477V14.2383Z" fill="white"/>
</svg>
