<svg width="177" height="46" viewBox="0 0 177 46" fill="none" xmlns="http://www.w3.org/2000/svg">
<path fill-rule="evenodd" clip-rule="evenodd" d="M38.025 20.306H38.0022C37.3389 20.32 36.7671 20.658 36.228 21.0204C35.679 21.3863 35.1857 21.5536 34.5486 21.3096C33.7514 20.7102 33.7384 19.7241 33.8462 18.8075C34.1238 16.4413 34.4833 14.0891 34.8361 11.7333C34.8198 11.465 34.6173 11.2489 34.3656 11.2315L30.6867 11.9215C29.1674 12.2177 27.4423 12.6324 25.8805 12.4233C25.4754 12.3083 25.1226 12.0434 24.8906 11.6706C24.6945 11.0084 24.8383 10.5729 25.1683 9.98738C25.4656 9.46116 25.8217 8.8304 25.8217 8.04283C25.8283 6.56177 24.6781 5.2201 23.1883 5.22708C21.7115 5.23404 20.6071 6.58965 20.5908 8.04283C20.5908 8.83389 20.9502 9.46116 21.2508 9.98738C21.5645 10.538 21.7834 11.0433 21.5317 11.6741C21.2933 12.0434 20.9404 12.3118 20.5352 12.4268C18.9572 12.6393 17.2778 12.162 15.7291 11.925C14.0333 11.6113 12.3376 11.2977 11.2823 11.0468H11.2202C10.8903 10.9736 10.5439 11.2524 10.5178 11.6113C10.0767 13.9566 9.7369 16.3124 9.45918 18.682C9.36442 19.5916 9.30889 20.745 10.2205 21.2469C10.7955 21.571 11.3901 21.2748 11.8835 20.9577C12.4357 20.6022 13.0074 20.2711 13.6772 20.2432C15.1344 20.2432 16.3172 21.5082 16.3172 23.066C16.3172 24.6237 15.1344 25.8887 13.6772 25.8887C13.2199 25.8818 12.7722 25.7493 12.3736 25.5054C11.2333 24.8084 10.0048 24.4077 9.49839 26.0072C9.44612 26.4637 9.44612 26.9237 9.49839 27.3802C9.7369 29.6977 10.2041 32.7016 10.4981 34.3882C10.5929 34.81 10.9425 34.9528 11.3183 34.9528C14.213 34.4057 17.6045 33.1755 20.5744 33.5728C20.9796 33.6878 21.3325 33.9561 21.571 34.3255C21.8912 34.918 21.5874 35.5487 21.2965 36.075C21.0024 36.6046 20.6562 37.2284 20.692 37.9568C20.7085 39.5041 21.8781 40.755 23.3255 40.7725C24.8088 40.7307 25.923 39.4448 25.9589 37.9568C25.9589 37.1727 25.6029 36.5419 25.3055 36.0157C24.9918 35.4616 24.7795 34.9598 25.0213 34.3291C25.2597 33.9596 25.6126 33.6913 26.0178 33.5763C26.485 33.5136 26.9587 33.5136 27.4259 33.5763C29.6411 33.8864 31.84 34.3116 34.0422 34.7054C34.4604 34.8169 34.859 34.6566 34.859 34.1409L34.8525 34.092C34.4245 31.5341 33.5913 28.6209 33.9278 26.0072C34.0357 25.61 34.2611 25.258 34.5683 25.0036C35.6497 24.1114 37.0154 25.7389 38.1393 25.7563C39.6292 25.7632 40.7793 24.4216 40.7728 22.9405C40.5734 21.4664 39.4169 20.3618 38.025 20.306ZM25.2826 29.513C25.3545 29.4502 24.8154 26.4637 24.7599 26.1327C24.2272 26.1327 23.7111 26.0873 23.2341 25.8191C22.8746 25.4182 22.6328 24.92 22.5315 24.3763C22.3551 23.4459 22.3551 22.491 22.5315 21.5605C22.6459 21.0239 22.8877 20.5291 23.2341 20.1248C23.5837 19.7659 24.2926 19.8739 24.7599 19.8111C24.8906 19.0584 25.2336 16.8769 25.2826 16.5563C25.0049 16.3228 24.603 16.1172 24.2338 16.1172C22.7112 15.9918 21.7899 17.8248 21.3651 19.0584C21.0155 20.3409 20.8391 21.6686 20.8359 23.0032C20.8359 24.3798 20.996 25.7423 21.3651 27.0666C21.9336 28.6696 23.5477 30.9766 25.2826 29.513Z" fill="#662eff"/>
<path d="M53.849 29.3176L57.4755 18.1075H59.7909L55.0251 31.3636H53.506L53.849 29.3176ZM50.8229 18.1075L54.5596 29.3789L54.8169 31.3636H53.2977L48.4951 18.1075H50.8229ZM61.1377 24.8826V24.6008C61.1377 23.6452 61.2765 22.759 61.5543 21.9423C61.832 21.1173 62.2322 20.4026 62.7549 19.7983C63.2776 19.1857 63.9107 18.7119 64.6539 18.3771C65.3971 18.034 66.2302 17.8625 67.1531 17.8625C68.0843 17.8625 68.9214 18.034 69.6647 18.3771C70.4161 18.7119 71.0532 19.1857 71.5759 19.7983C72.1068 20.4026 72.5111 21.1173 72.7889 21.9423C73.0665 22.759 73.2054 23.6452 73.2054 24.6008V24.8826C73.2054 25.8382 73.0665 26.7244 72.7889 27.5412C72.5111 28.3579 72.1068 29.0726 71.5759 29.6851C71.0532 30.2896 70.4202 30.7633 69.677 31.1063C68.9419 31.4412 68.1088 31.6086 67.1777 31.6086C66.2465 31.6086 65.4094 31.4412 64.6661 31.1063C63.9229 30.7633 63.2858 30.2896 62.7549 29.6851C62.2322 29.0726 61.832 28.3579 61.5543 27.5412C61.2765 26.7244 61.1377 25.8382 61.1377 24.8826ZM63.4042 24.6008V24.8826C63.4042 25.5442 63.4818 26.1689 63.637 26.7571C63.7922 27.3369 64.0249 27.8515 64.3353 28.3007C64.6539 28.75 65.05 29.1052 65.5237 29.3666C65.9975 29.6198 66.5488 29.7464 67.1777 29.7464C67.7984 29.7464 68.3415 29.6198 68.8071 29.3666C69.2808 29.1052 69.6729 28.75 69.9833 28.3007C70.2936 27.8515 70.5264 27.3369 70.6815 26.7571C70.8449 26.1689 70.9266 25.5442 70.9266 24.8826V24.6008C70.9266 23.9473 70.8449 23.3307 70.6815 22.7508C70.5264 22.1628 70.2895 21.6441 69.971 21.1949C69.6607 20.7375 69.2686 20.3782 68.7948 20.1168C68.3293 19.8554 67.7821 19.7248 67.1531 19.7248C66.5324 19.7248 65.9852 19.8554 65.5115 20.1168C65.0459 20.3782 64.6539 20.7375 64.3353 21.1949C64.0249 21.6441 63.7922 22.1628 63.637 22.7508C63.4818 23.3307 63.4042 23.9473 63.4042 24.6008ZM77.272 18.1075L80.1755 22.9346L83.1159 18.1075H85.7745L81.4374 24.6498L85.9092 31.3636H83.2874L80.2246 26.3895L77.1617 31.3636H74.5277L78.9872 24.6498L74.6624 18.1075H77.272ZM90.6128 18.1075V31.3636H88.3342V18.1075H90.6128ZM88.1626 14.5914C88.1626 14.2239 88.2729 13.9135 88.4934 13.6603C88.7221 13.4071 89.057 13.2805 89.4979 13.2805C89.9309 13.2805 90.2617 13.4071 90.4904 13.6603C90.7272 13.9135 90.8456 14.2239 90.8456 14.5914C90.8456 14.9426 90.7272 15.2448 90.4904 15.498C90.2617 15.743 89.9309 15.8656 89.4979 15.8656C89.057 15.8656 88.7221 15.743 88.4934 15.498C88.2729 15.2448 88.1626 14.9426 88.1626 14.5914ZM96.4682 20.7416V31.3636H94.1894V18.1075H96.3457L96.4682 20.7416ZM96.0027 24.2333L94.949 24.1965C94.9572 23.2899 95.0756 22.4528 95.3043 21.685C95.5329 20.909 95.872 20.2352 96.3211 19.6635C96.7703 19.0917 97.3299 18.6507 97.9996 18.3404C98.6693 18.0218 99.4452 17.8625 100.327 17.8625C100.948 17.8625 101.52 17.9524 102.043 18.1321C102.565 18.3036 103.019 18.5772 103.402 18.9529C103.786 19.3286 104.084 19.8105 104.297 20.3986C104.509 20.9866 104.615 21.6972 104.615 22.5303V31.3636H102.349V22.6405C102.349 21.9463 102.23 21.3909 101.994 20.9744C101.765 20.5579 101.438 20.2556 101.013 20.0678C100.589 19.8717 100.09 19.7738 99.5187 19.7738C98.849 19.7738 98.2896 19.8921 97.8404 20.129C97.3911 20.3659 97.0317 20.6926 96.7622 21.1091C96.4927 21.5257 96.2966 22.0035 96.1741 22.5426C96.0597 23.0735 96.0027 23.6371 96.0027 24.2333ZM104.59 22.9836L103.072 23.4492C103.08 22.7223 103.198 22.0239 103.427 21.3542C103.664 20.6845 104.003 20.0882 104.444 19.5654C104.894 19.0427 105.444 18.6303 106.098 18.328C106.751 18.0177 107.499 17.8625 108.339 17.8625C109.05 17.8625 109.68 17.9565 110.226 18.1443C110.782 18.3322 111.248 18.6221 111.623 19.0142C112.007 19.3981 112.297 19.8921 112.493 20.4966C112.689 21.101 112.787 21.8197 112.787 22.6529V31.3636H110.509V22.6283C110.509 21.8851 110.389 21.3092 110.153 20.9009C109.924 20.4844 109.598 20.1944 109.173 20.0311C108.756 19.8595 108.258 19.7738 107.679 19.7738C107.18 19.7738 106.739 19.8595 106.355 20.0311C105.971 20.2025 105.648 20.4394 105.387 20.7416C105.126 21.0357 104.926 21.3746 104.787 21.7585C104.656 22.1424 104.59 22.5507 104.59 22.9836ZM118.447 20.6558V36.4602H116.168V18.1075H118.25L118.447 20.6558ZM127.378 24.6253V24.8826C127.378 25.8464 127.263 26.7407 127.034 27.5657C126.806 28.3824 126.471 29.093 126.029 29.6973C125.597 30.3018 125.062 30.7714 124.425 31.1063C123.788 31.4412 123.057 31.6086 122.232 31.6086C121.391 31.6086 120.647 31.4698 120.002 31.192C119.357 30.9144 118.81 30.5101 118.361 29.9792C117.912 29.4483 117.552 28.8112 117.282 28.068C117.021 27.3247 116.841 26.4875 116.744 25.5564V24.1842C116.841 23.2041 117.025 22.3262 117.295 21.5502C117.564 20.7743 117.92 20.1127 118.361 19.5654C118.81 19.0101 119.353 18.5894 119.99 18.3036C120.627 18.0096 121.363 17.8625 122.195 17.8625C123.028 17.8625 123.767 18.0259 124.413 18.3526C125.058 18.6711 125.601 19.1285 126.042 19.7248C126.483 20.321 126.814 21.0357 127.034 21.8688C127.263 22.6936 127.378 23.6125 127.378 24.6253ZM125.099 24.8826V24.6253C125.099 23.9638 125.029 23.343 124.891 22.7631C124.752 22.175 124.536 21.6605 124.242 21.2194C123.955 20.7702 123.588 20.4189 123.139 20.1658C122.689 19.9045 122.154 19.7738 121.534 19.7738C120.962 19.7738 120.463 19.8717 120.039 20.0678C119.623 20.2638 119.267 20.5292 118.973 20.8641C118.679 21.1908 118.438 21.5665 118.25 21.9913C118.07 22.4078 117.936 22.8407 117.846 23.2899V26.463C118.01 27.0348 118.238 27.5738 118.533 28.0802C118.826 28.5784 119.218 28.9828 119.709 29.2931C120.198 29.5953 120.815 29.7464 121.558 29.7464C122.171 29.7464 122.698 29.6198 123.139 29.3666C123.588 29.1052 123.955 28.75 124.242 28.3007C124.536 27.8515 124.752 27.3369 124.891 26.7571C125.029 26.1689 125.099 25.5442 125.099 24.8826ZM132.694 12.5454V31.3636H130.415V12.5454H132.694ZM144.112 29.097V22.2731C144.112 21.7503 144.005 21.297 143.793 20.9131C143.589 20.5211 143.278 20.2188 142.861 20.0065C142.445 19.7942 141.931 19.688 141.318 19.688C140.746 19.688 140.243 19.786 139.811 19.982C139.386 20.1781 139.052 20.4354 138.806 20.7539C138.57 21.0723 138.452 21.4155 138.452 21.7829H136.185C136.185 21.3092 136.307 20.8396 136.552 20.3741C136.798 19.9085 137.149 19.4879 137.606 19.1121C138.071 18.7283 138.627 18.4261 139.272 18.2056C139.926 17.9769 140.652 17.8625 141.453 17.8625C142.417 17.8625 143.266 18.0259 144.001 18.3526C144.744 18.6793 145.324 19.1734 145.74 19.8351C146.166 20.4885 146.378 21.3092 146.378 22.2975V28.4723C146.378 28.9133 146.415 29.383 146.488 29.8811C146.57 30.3794 146.689 30.8082 146.843 31.1676V31.3636H144.479C144.365 31.1022 144.275 30.7551 144.209 30.3222C144.144 29.8811 144.112 29.4728 144.112 29.097ZM144.504 23.3267L144.528 24.9193H142.237C141.592 24.9193 141.016 24.9724 140.509 25.0786C140.003 25.1766 139.579 25.3278 139.236 25.5319C138.892 25.7361 138.63 25.9934 138.452 26.3038C138.272 26.6059 138.182 26.9613 138.182 27.3696C138.182 27.7862 138.276 28.166 138.463 28.509C138.651 28.8521 138.934 29.1257 139.309 29.3299C139.693 29.5259 140.162 29.6238 140.718 29.6238C141.412 29.6238 142.025 29.4769 142.555 29.1829C143.086 28.8888 143.507 28.5295 143.817 28.1047C144.136 27.68 144.307 27.2675 144.332 26.8673L145.299 27.9577C145.243 28.3007 145.087 28.6805 144.834 29.097C144.581 29.5137 144.242 29.9139 143.817 30.2978C143.401 30.6734 142.902 30.9879 142.323 31.2411C141.751 31.4861 141.106 31.6086 140.387 31.6086C139.489 31.6086 138.7 31.433 138.022 31.0818C137.353 30.7306 136.83 30.261 136.454 29.6729C136.087 29.0767 135.903 28.411 135.903 27.676C135.903 26.9654 136.042 26.3405 136.32 25.8015C136.597 25.2542 136.997 24.801 137.52 24.4415C138.043 24.074 138.672 23.7963 139.407 23.6084C140.142 23.4205 140.963 23.3267 141.869 23.3267H144.504ZM152.172 20.9376V31.3636H149.906V18.1075H152.05L152.172 20.9376ZM151.633 24.2333L150.69 24.1965C150.698 23.2899 150.832 22.4528 151.093 21.685C151.355 20.909 151.723 20.2352 152.196 19.6635C152.67 19.0917 153.233 18.6507 153.887 18.3404C154.548 18.0218 155.279 17.8625 156.08 17.8625C156.733 17.8625 157.322 17.9524 157.845 18.1321C158.367 18.3036 158.812 18.5812 159.18 18.9651C159.555 19.349 159.842 19.8473 160.037 20.4598C160.234 21.0642 160.331 21.8034 160.331 22.6773V31.3636H158.053V22.6529C158.053 21.9586 157.95 21.4032 157.746 20.9866C157.542 20.562 157.244 20.2556 156.852 20.0678C156.46 19.8717 155.978 19.7738 155.406 19.7738C154.842 19.7738 154.328 19.8921 153.863 20.129C153.405 20.3659 153.01 20.6926 152.674 21.1091C152.348 21.5257 152.091 22.0035 151.902 22.5426C151.723 23.0735 151.633 23.6371 151.633 24.2333ZM169.286 18.1075V19.8473H162.12V18.1075H169.286ZM164.545 14.8855H166.812V28.0802C166.812 28.5295 166.881 28.8684 167.02 29.097C167.159 29.3258 167.339 29.4769 167.559 29.5504C167.78 29.6238 168.016 29.6607 168.269 29.6607C168.457 29.6607 168.654 29.6443 168.858 29.6116C169.07 29.5708 169.229 29.5381 169.335 29.5137L169.348 31.3636C169.168 31.4208 168.931 31.4739 168.637 31.5228C168.351 31.58 168.003 31.6086 167.596 31.6086C167.041 31.6086 166.529 31.4984 166.064 31.2779C165.599 31.0573 165.227 30.6898 164.95 30.1752C164.68 29.6525 164.545 28.9501 164.545 28.068V14.8855Z" fill="#662eff"/>
</svg>
