<svg width="98" height="28" viewBox="0 0 98 28" fill="none" xmlns="http://www.w3.org/2000/svg">
<g clip-path="url(#clip0_5867_5787)">
<path d="M11.8622 24.0248H16.0712V0H9.94826C3.79185 0 0.556171 3.14588 0.556171 7.77741C0.556171 11.4767 2.33022 13.6541 5.49638 15.9015L0 24.0248H4.55658L10.6795 14.9331L8.55699 13.5166C5.98303 11.7872 4.7308 10.4399 4.7308 7.53612C4.7308 4.97741 6.54003 3.24965 9.98344 3.24965H11.8622V24.0248ZM67.1359 22.8496V19.4962C65.8485 20.3609 63.6916 21.1211 61.6747 21.1211C58.6484 21.1211 57.5 19.7038 57.3267 16.8H67.3101V14.6226C67.3101 8.57294 64.6314 6.29176 60.492 6.29176C55.4479 6.29176 53.0482 10.1286 53.0482 15.3827C53.0482 21.4324 56.0393 24.3707 61.3262 24.3707C63.9706 24.3707 65.918 23.6789 67.1359 22.8496ZM93.0162 24.3707C94.9293 24.3707 96.2863 24.0248 97.2947 23.2985V19.9459C96.2511 20.6714 94.9989 21.1211 93.26 21.1211C90.3032 21.1211 89.0854 18.8399 89.0854 15.2444C89.0854 11.4767 90.5813 9.54059 93.2943 9.54059C94.895 9.54059 96.4596 10.094 97.2947 10.612V7.12024C96.4253 6.63682 94.895 6.29176 92.842 6.29176C87.555 6.29176 84.8069 10.0594 84.8069 15.3481C84.8069 21.1556 87.4855 24.3707 93.0162 24.3707ZM29.2199 6.63682V13.5158H23.6892V6.63765H19.5497V24.0256H23.6892V16.7662H29.2199V24.0256H33.3594V6.63682H29.2199ZM52.0388 20.7752H50.1961V6.63765H38.1237V8.12412C38.1237 12.376 37.8456 17.8722 36.3848 20.776H35.0974V28H38.9244V24.0248H48.2127V28H52.0388V20.7752ZM80.3541 24.0248H85.0506L78.4059 14.6572L84.2498 6.63682H80.076L74.2321 14.6572V6.636H70.0926V24.024H74.2321V15.4865L80.3541 24.0248ZM60.4224 9.54059C62.4746 9.54059 63.1011 11.2346 63.1011 13.412V13.7579H57.3258C57.4297 10.9925 58.439 9.54141 60.4216 9.54141L60.4224 9.54059ZM46.0558 20.7752H40.2118C41.3594 18.1481 41.6726 13.4128 41.6726 10.4053V9.88647H46.0558V20.7752Z" fill="black"/>
</g>
<defs>
<clipPath id="clip0_5867_5787">
<rect width="98" height="28" fill="white"/>
</clipPath>
</defs>
</svg>
