<svg width="113" height="32" viewBox="0 0 113 32" fill="none" xmlns="http://www.w3.org/2000/svg">
<g style="mix-blend-mode:luminosity" clip-path="url(#clip0_130_18)">
<path d="M40.0539 23.2536C40.5631 23.6217 41.3372 23.7727 42.1668 23.7906C42.6255 23.8022 42.9035 23.7688 43.2175 23.6711C43.5164 23.5735 43.7823 23.4129 44.0161 23.1887C44.4755 22.7319 44.8148 22.0439 44.9741 21.2776C45.0529 20.8915 45.0915 20.499 45.0972 20.0872V18.6585V7.22904C45.0972 6.62583 45.5781 6.13696 46.1713 6.13696C46.7647 6.13696 47.2455 6.62583 47.2455 7.22904V18.6585V20.0872C47.2435 20.6275 47.1956 21.187 47.0857 21.7344C46.8512 22.82 46.3704 23.9436 45.4434 24.7876C44.9823 25.2039 44.4129 25.5238 43.814 25.6941C43.2295 25.8701 42.5579 25.8881 42.0827 25.8515C41.0598 25.7865 39.8934 25.581 38.8944 24.778C38.4838 24.4478 38.4143 23.842 38.739 23.4245C39.0531 23.0205 39.6211 22.9414 40.0292 23.235L40.0539 23.2536Z" fill="#19191F"/>
<path d="M84.0949 23.823C83.3335 23.8649 82.6233 23.8585 81.9908 23.7158C81.3539 23.5758 80.8807 23.2861 80.5875 22.9051C80.2905 22.521 80.1262 21.9441 80.1085 21.2702L80.1029 18.8606V13.5679H83.0568C83.5805 13.5679 84.0045 13.1369 84.0045 12.6043C84.0045 12.0717 83.5805 11.6406 83.0568 11.6406H80.1029V9.09745C80.1029 8.49424 79.622 8.00537 79.0287 8.00537C78.4355 8.00537 77.9546 8.49424 77.9546 9.09745V11.6406H76.3168C75.7931 11.6406 75.3691 12.0717 75.3691 12.6043C75.3691 13.1369 75.7931 13.5679 76.3168 13.5679H77.9546V18.8606L77.9591 21.3318C77.9742 22.2717 78.1884 23.369 78.9005 24.2683C79.2429 24.7167 79.6992 25.0674 80.1717 25.3076C80.6456 25.5473 81.1334 25.6893 81.606 25.7695C82.55 25.9327 83.4585 25.8666 84.285 25.7406C84.7615 25.6661 85.1197 25.2345 85.0931 24.7346C85.0648 24.2028 84.618 23.7948 84.0949 23.823Z" fill="#19191F"/>
<path d="M60.9171 12.7085V20.0986C60.9449 21.3802 60.7623 23.0305 59.6679 24.255C59.1429 24.8639 58.4365 25.3072 57.7225 25.5391C57.0041 25.771 56.2933 25.8526 55.6065 25.8539C54.9197 25.8526 54.2082 25.7723 53.4898 25.541C52.7752 25.3098 52.0681 24.8665 51.5425 24.2569C50.4456 23.0325 50.2712 21.3795 50.2958 20.0986V12.7085C50.2958 12.1053 50.7767 11.6165 51.37 11.6165C51.9633 11.6165 52.4441 12.1053 52.4441 12.7085V20.0986C52.4201 21.2466 52.6343 22.2082 53.1353 22.8924C53.62 23.5695 54.5462 23.9183 55.6065 23.9266C56.6667 23.9183 57.5943 23.5727 58.0802 22.8943C58.5843 22.2102 58.7897 21.2454 58.7688 20.0986V12.7085C58.7688 12.1053 59.2497 11.6165 59.843 11.6165C60.4362 11.6165 60.9171 12.1053 60.9171 12.7085Z" fill="#19191F"/>
<path d="M65.3637 22.2168C65.8338 23.0704 66.8011 23.648 67.8468 23.8504C68.8799 24.0675 70.0722 23.8876 70.917 23.3852C71.3403 23.1405 71.6069 22.8219 71.7276 22.5142C71.8502 22.2219 71.8382 21.7471 71.7251 21.4562C71.5318 20.8555 70.4399 20.1919 69.3166 19.7756C69.031 19.667 68.7403 19.5624 68.4458 19.4608L67.493 19.1358C66.8568 18.8872 66.1839 18.6483 65.4983 18.1311C65.1603 17.8742 64.8166 17.5099 64.5872 17.0634C64.3579 16.6176 64.2625 16.141 64.2295 15.7299C64.1917 15.3527 64.2043 14.8395 64.3338 14.402C64.4545 13.9581 64.6529 13.5418 64.917 13.1788C65.4502 12.4523 66.23 11.9647 67.0077 11.7444C67.7837 11.5022 68.5835 11.4978 69.271 11.5524C69.985 11.6018 70.7275 11.7444 71.4407 12.0553C72.1516 12.3579 72.8143 12.8795 73.2971 13.3773L73.3155 13.396C73.6825 13.775 73.6781 14.3853 73.3053 14.7592C72.9326 15.1324 72.3323 15.1279 71.9646 14.7488C71.9601 14.7444 71.9532 14.7367 71.9487 14.7322C71.5463 14.296 71.1791 14.0037 70.704 13.8077C70.239 13.61 69.7082 13.5052 69.1484 13.4725C68.0042 13.3728 67.0539 13.7512 66.6318 14.4302C66.525 14.596 66.4436 14.7746 66.4 14.9583C66.3577 15.1484 66.3482 15.293 66.3577 15.5635C66.4013 16.0421 66.4625 16.2168 66.7765 16.5231C67.0981 16.8117 67.6162 17.0975 68.1697 17.3101C68.449 17.4194 68.7327 17.5279 69.0284 17.623C69.3418 17.7219 69.6564 17.826 69.973 17.9378C70.6029 18.1696 71.2531 18.3983 71.9089 18.7735C72.544 19.1352 73.2927 19.6857 73.6793 20.6075C74.0515 21.5146 74.056 22.4403 73.6894 23.3486C73.3179 24.2525 72.5743 24.8551 71.8729 25.2096C70.4393 25.8989 68.9456 26.0069 67.4772 25.7306C66.0316 25.4383 64.5904 24.6058 63.7361 23.2041L63.7304 23.1945C63.4543 22.7422 63.592 22.148 64.0369 21.8672C64.4816 21.5865 65.0662 21.7266 65.3423 22.1788C65.3492 22.1911 65.3574 22.2052 65.3637 22.2168Z" fill="#19191F"/>
<path d="M111.925 25.8982C111.333 25.8982 110.852 25.4093 110.852 24.8061V7.19095C110.852 6.58774 111.333 6.09888 111.925 6.09888C112.519 6.09888 113 6.58774 113 7.19095V24.8061C113 25.4093 112.519 25.8982 111.925 25.8982Z" fill="#19191F"/>
<path d="M107.822 24.4642L100.74 6.76107C100.586 6.3737 100.215 6.12061 99.8041 6.12061C99.3927 6.12061 99.0224 6.37435 98.8677 6.76107L91.7847 24.4642C91.5744 24.9903 91.8233 25.5897 92.3401 25.8036C92.8576 26.0175 93.4471 25.7644 93.6575 25.2389L95.6124 20.3535H103.996L105.951 25.2389C106.11 25.6379 106.489 25.8801 106.887 25.8801C107.014 25.8801 107.143 25.8557 107.269 25.8036C107.785 25.5897 108.033 24.9903 107.822 24.4642ZM96.3833 18.4264L99.5254 10.5737C99.6726 10.194 99.7864 9.75464 99.8034 9.60239C99.8205 9.75078 99.9291 10.1703 100.071 10.5429L103.225 18.4264H96.3833Z" fill="#19191F"/>
<path d="M14.1059 26.9411C16.9966 26.9411 19.6155 25.7757 21.549 23.8896H6.66223C8.59566 25.7757 11.2146 26.9411 14.1059 26.9411Z" fill="#939393"/>
<path d="M26.3882 6.68301L21.2064 3.6586L15.7366 0.438918C14.7768 -0.146306 13.5296 -0.146306 12.4738 0.438918L7.09997 3.56096L1.63077 6.78065C0.575605 7.36652 0 8.53696 0 9.70741V22.3902C0 23.6583 0.767685 24.7317 1.82349 25.317L7.0052 28.439L12.475 31.5611C13.4348 32.1463 14.682 32.1463 15.7378 31.5611L21.1116 28.439L26.5808 25.2193C27.6366 24.6341 28.2123 23.5606 28.2123 22.3902V9.61041C28.2116 8.34167 27.444 7.26888 26.3882 6.68301ZM23.8462 23.8896H21.5489C19.6154 25.7757 16.9965 26.941 14.1058 26.941C11.2145 26.941 8.59554 25.7757 6.66211 23.8896H4.36474C2.73523 23.8896 1.7167 22.096 2.53178 20.6615L3.67541 18.6477C3.46753 17.7984 3.34496 16.9151 3.34496 16.0003C3.34496 11.0025 6.64505 6.79608 11.1482 5.48815L12.2729 3.50765C13.0873 2.07317 15.1243 2.07317 15.9394 3.50765L17.0641 5.48815C21.5672 6.79608 24.8672 11.0018 24.8672 16.0003C24.8672 16.9151 24.7448 17.7984 24.5369 18.6477L25.6804 20.6615C26.4942 22.096 25.4757 23.8896 23.8462 23.8896Z" fill="#676767"/>
<path d="M17.0636 5.48824L15.9389 3.50774C15.1244 2.07327 13.0873 2.07327 12.2723 3.50774L11.1476 5.48824C12.0885 5.21523 13.0785 5.05976 14.1053 5.05976C15.1333 5.05976 16.1227 5.21523 17.0636 5.48824Z" fill="#C5C5C5"/>
<path d="M3.67528 18.6477L2.53165 20.6616C1.71721 22.096 2.73511 23.8896 4.36462 23.8896H6.66199C5.22265 22.4854 4.17317 20.6796 3.67528 18.6477Z" fill="#C5C5C5"/>
<path d="M24.5359 18.6477C24.0381 20.6796 22.9886 22.4854 21.5493 23.8896H23.8466C25.4762 23.8896 26.4947 22.096 25.6796 20.6616L24.5359 18.6477Z" fill="#C5C5C5"/>
<path d="M3.34485 16.0003C3.34485 16.9151 3.46742 17.7984 3.6753 18.6476L11.148 5.48877C6.64494 6.79604 3.34485 11.0024 3.34485 16.0003Z" fill="#939393"/>
<path d="M24.8666 16.0002C24.8666 11.0023 21.5665 6.79596 17.0634 5.48804L24.5362 18.6476C24.744 17.7983 24.8666 16.915 24.8666 16.0002Z" fill="#939393"/>
<path d="M24.5362 18.6475L17.0634 5.48805C16.1226 5.21503 15.1326 5.05957 14.1058 5.05957C13.0785 5.05957 12.089 5.21503 11.1482 5.48805L3.67542 18.6475C4.17268 20.6794 5.22279 22.4852 6.66212 23.8895H21.5489C22.9889 22.4852 24.0383 20.6794 24.5362 18.6475Z" fill="#F4F4F6" fill-opacity="0.6"/>
</g>
<defs>
<clipPath id="clip0_130_18">
<rect width="113" height="32" fill="white"/>
</clipPath>
</defs>
</svg>
