<svg width="145" height="28" viewBox="0 0 145 28" fill="none" xmlns="http://www.w3.org/2000/svg">
<path d="M57.3716 11.0504C57.3716 11.8286 57.184 12.5582 56.8088 13.2391C56.4474 13.92 55.8708 14.4689 55.0786 14.8858C54.3004 15.3027 53.3138 15.5111 52.1187 15.5111H49.6799V21.0975H46.7617V6.548H52.1187C53.2443 6.548 54.2032 6.74254 54.9952 7.13163C55.7873 7.52074 56.378 8.05578 56.767 8.73666C57.17 9.41762 57.3716 10.1888 57.3716 11.0504ZM51.9936 13.1557C52.7996 13.1557 53.3972 12.9751 53.7863 12.6137C54.1754 12.2385 54.37 11.7175 54.37 11.0504C54.37 9.63298 53.5778 8.92426 51.9936 8.92426H49.6799V13.1557H51.9936ZM65.7384 9.38282C66.614 9.38282 67.3921 9.57738 68.0731 9.9665C68.754 10.3417 69.282 10.9045 69.6572 11.6549C70.0464 12.3914 70.2408 13.2807 70.2408 14.323V21.0975H67.3227V14.7191C67.3227 13.8019 67.0933 13.1001 66.6348 12.6137C66.1762 12.1135 65.5508 11.8633 64.7588 11.8633C63.9528 11.8633 63.3136 12.1135 62.8411 12.6137C62.3825 13.1001 62.1532 13.8019 62.1532 14.7191V21.0975H59.235V5.67252H62.1532V10.9879C62.5284 10.4876 63.0287 10.0985 63.654 9.82058C64.2793 9.52874 64.9742 9.38282 65.7384 9.38282ZM83.855 9.54962L76.7054 26.5587H73.5996L76.1009 20.8056L71.4735 9.54962H74.746L77.7268 17.6164L80.7494 9.54962H83.855ZM89.743 9.36202C90.6046 9.36202 91.3622 9.5357 92.015 9.88314C92.6678 10.2167 93.1822 10.6543 93.5574 11.1963V9.54962H96.4966V21.1808C96.4966 22.2508 96.2814 23.2027 95.8502 24.0365C95.4198 24.8842 94.7734 25.5512 93.9118 26.0375C93.0502 26.5379 92.0078 26.7879 90.7854 26.7879C89.1454 26.7879 87.7974 26.4059 86.7414 25.6415C85.699 24.8772 85.1086 23.835 84.9694 22.5149H87.867C88.0198 23.0429 88.3462 23.4598 88.847 23.7655C89.3606 24.0851 89.979 24.245 90.7022 24.245C91.5494 24.245 92.2374 23.9879 92.7654 23.4737C93.2934 22.9735 93.5574 22.2091 93.5574 21.1808V19.3882C93.1822 19.9302 92.6614 20.3818 91.9942 20.7431C91.3414 21.1044 90.591 21.2851 89.743 21.2851C88.7702 21.2851 87.8806 21.0349 87.075 20.5347C86.2686 20.0343 85.6294 19.3326 85.1574 18.4294C84.699 17.5122 84.4694 16.463 84.4694 15.2819C84.4694 14.1145 84.699 13.0793 85.1574 12.176C85.6294 11.2727 86.2622 10.5779 87.0542 10.0915C87.8598 9.60522 88.7566 9.36202 89.743 9.36202ZM93.5574 15.3235C93.5574 14.6148 93.4182 14.0103 93.1406 13.51C92.863 12.9959 92.4878 12.6068 92.015 12.3427C91.5422 12.0648 91.035 11.9259 90.4934 11.9259C89.9518 11.9259 89.451 12.0579 88.9926 12.3219C88.5342 12.5859 88.159 12.9751 87.867 13.4892C87.5894 13.9895 87.4502 14.587 87.4502 15.2819C87.4502 15.9767 87.5894 16.5881 87.867 17.1162C88.159 17.6303 88.5342 18.0263 88.9926 18.3043C89.4654 18.5822 89.9654 18.7211 90.4934 18.7211C91.035 18.7211 91.5422 18.5891 92.015 18.3251C92.4878 18.0472 92.863 17.6581 93.1406 17.1579C93.4182 16.6437 93.5574 16.0323 93.5574 15.3235ZM100.618 8.17386C100.104 8.17386 99.6734 8.01402 99.3262 7.69444C98.9926 7.36093 98.8254 6.95099 98.8254 6.46462C98.8254 5.97824 98.9926 5.57525 99.3262 5.25564C99.6734 4.92212 100.104 4.75537 100.618 4.75537C101.133 4.75537 101.557 4.92212 101.889 5.25564C102.237 5.57525 102.411 5.97824 102.411 6.46462C102.411 6.95099 102.237 7.36093 101.889 7.69444C101.557 8.01402 101.133 8.17386 100.618 8.17386ZM102.057 9.54962V21.0975H99.1382V9.54962H102.057ZM108.129 11.9467V17.5331C108.129 17.9221 108.219 18.207 108.4 18.3876C108.594 18.5544 108.914 18.6378 109.359 18.6378H110.713V21.0975H108.879C106.42 21.0975 105.19 19.9023 105.19 17.5122V11.9467H103.814V9.54962H105.19V6.69391H108.129V9.54962H110.713V11.9467H108.129ZM111.853 15.2819C111.853 14.1145 112.083 13.0793 112.541 12.176C113.014 11.2727 113.646 10.5779 114.438 10.0915C115.245 9.60522 116.141 9.36202 117.128 9.36202C117.989 9.36202 118.739 9.5357 119.379 9.88314C120.032 10.2305 120.553 10.6683 120.942 11.1963V9.54962H123.881V21.0975H120.942V19.4091C120.567 19.951 120.045 20.4027 119.379 20.7639C118.725 21.1113 117.968 21.2851 117.106 21.2851C116.134 21.2851 115.245 21.0349 114.438 20.5347C113.646 20.0343 113.014 19.3326 112.541 18.4294C112.083 17.5122 111.853 16.463 111.853 15.2819ZM120.942 15.3235C120.942 14.6148 120.803 14.0103 120.525 13.51C120.247 12.9959 119.872 12.6068 119.4 12.3427C118.927 12.0648 118.42 11.9259 117.878 11.9259C117.336 11.9259 116.836 12.0579 116.377 12.3219C115.918 12.5859 115.543 12.9751 115.252 13.4892C114.973 13.9895 114.834 14.587 114.834 15.2819C114.834 15.9767 114.973 16.5881 115.252 17.1162C115.543 17.6303 115.918 18.0263 116.377 18.3043C116.849 18.5822 117.349 18.7211 117.878 18.7211C118.42 18.7211 118.927 18.5891 119.4 18.3251C119.872 18.0472 120.247 17.6581 120.525 17.1579C120.803 16.6437 120.942 16.0323 120.942 15.3235ZM129.441 5.67252V21.0975H126.523V5.67252H129.441ZM143.017 14.9483H139.077V18.9922H136.326V14.9483H132.387V12.4053H136.326V8.36146H139.077V12.4053H143.017V14.9483Z" fill="#2D2D2D"/>
<path d="M10.0663 17.8665H1.78759C1.03172 17.8665 0.655578 17.4348 0.852605 16.771L2.3321 11.8056C2.68317 10.623 3.39246 10.1333 4.75374 10.1333H13.0325C13.7883 10.1333 14.1645 10.565 13.9674 11.2288L12.488 16.1942C12.1369 17.3768 11.4276 17.8665 10.0663 17.8665ZM15.5544 10.1333H23.8331C25.1944 10.1333 25.9037 9.64342 26.2548 8.46094L27.7342 3.49545C27.9313 2.83168 27.5551 2.3999 26.7993 2.3999H18.5205C17.1593 2.3999 16.45 2.88968 16.0989 4.07224L14.6194 9.03766C14.4224 9.70142 14.7985 10.1333 15.5544 10.1333ZM22.196 17.8665H13.9173C12.556 17.8665 11.8467 18.3564 11.4957 19.5389L10.0161 24.5044C9.8191 25.1681 10.1953 25.5999 10.9511 25.5999H19.2298C20.5911 25.5999 21.3005 25.1101 21.6515 23.9276L23.131 18.9621C23.328 18.2984 22.9519 17.8665 22.196 17.8665ZM35.9628 10.1333H27.6841C26.3228 10.1333 25.6135 10.623 25.2625 11.8056L23.7829 16.771C23.5859 17.4348 23.9621 17.8665 24.718 17.8665H32.9967C34.3579 17.8665 35.0673 17.3768 35.4183 16.1942L36.8978 11.2288C37.0949 10.565 36.7187 10.1333 35.9628 10.1333Z" fill="#2D2D2D"/>
</svg>
