<svg width="110" height="23" viewBox="0 0 110 23" fill="none" xmlns="http://www.w3.org/2000/svg">
<path d="M91.0748 12.6583L94.5349 4.78418H98.1479L90.0825 22.6774H86.5711L89.3699 16.4692L83.7979 4.78418H87.4871L91.0748 12.6583Z" fill="#1F1F23"/>
<path d="M82.3793 17.8934H78.8359V0H82.3793V17.8934Z" fill="#1F1F23"/>
<path d="M70.6241 4.42871C71.7188 4.42871 72.7631 4.71557 73.7569 5.28914C74.7503 5.86287 75.5503 6.66431 76.1567 7.69361C76.763 8.72275 77.0663 9.88695 77.0663 11.1862C77.0663 12.4686 76.763 13.6243 76.1567 14.6535C75.5503 15.6828 74.7503 16.4842 73.7569 17.058C72.7631 17.6315 71.7188 17.9184 70.6241 17.9184C69.7485 17.9184 68.9819 17.8002 68.3254 17.5641C67.6852 17.311 67.1127 16.9313 66.6074 16.4252V22.6765H63.0703V4.78302H66.481V6.04848C67.003 5.49165 67.601 5.0868 68.2748 4.83357C68.9484 4.5636 69.7314 4.42871 70.6241 4.42871ZM70.0935 14.8054C71.1211 14.8054 71.9798 14.4594 72.6705 13.7677C73.361 13.076 73.7063 12.2154 73.7063 11.1862C73.7063 10.14 73.361 9.27113 72.6705 8.5794C71.9798 7.88751 71.1211 7.54164 70.0935 7.54164C69.0662 7.54164 68.2072 7.88751 67.5168 8.5794C66.8263 9.27113 66.481 10.14 66.481 11.1862C66.481 12.2154 66.8263 13.076 67.5168 13.7677C68.2072 14.4594 69.0662 14.8054 70.0935 14.8054Z" fill="#1F1F23"/>
<path d="M41.6712 4.78418C42.8188 4.78418 43.8928 5.06294 44.8933 5.62046C45.9099 6.17798 46.7134 6.94043 47.3037 7.90781C47.9103 8.87536 48.1891 9.95763 48.1891 11.1546C48.1891 11.5974 48.1646 12.0647 48.0663 12.5567H38.4734C38.6536 13.4094 39.0226 14.0735 39.5803 14.5491C40.1377 15.0081 40.8428 15.2377 41.6957 15.2377C42.3514 15.2377 42.9008 15.123 43.3436 14.8934C43.8028 14.6474 44.1799 14.2867 44.475 13.8111H47.771C47.2954 15.0081 46.5331 15.992 45.4834 16.7628C44.4339 17.5171 43.1631 17.8942 41.6712 17.8942C40.5232 17.8942 39.4408 17.6237 38.4242 17.0826C37.4075 16.5249 36.5959 15.7543 35.9892 14.7704C35.3824 13.77 35.0791 12.6305 35.0791 11.3514C35.0791 10.0723 35.3824 8.93281 35.9892 7.93248C36.5959 6.93215 37.3994 6.16159 38.3996 5.62046C39.4163 5.06294 40.5066 4.78418 41.6712 4.78418ZM41.6712 7.4405C40.8511 7.4405 40.1623 7.6701 39.6048 8.1293C39.0638 8.57193 38.6949 9.20328 38.4979 10.0232H44.8686C44.7046 9.25245 44.3518 8.62938 43.8109 8.15379C43.2861 7.67838 42.5728 7.4405 41.6712 7.4405Z" fill="#1F1F23"/>
<path d="M105.668 17.8941C104.445 17.8941 103.519 17.5521 102.891 16.8676C102.28 16.1833 102.048 15.1654 102.048 13.8136V7.79582H99.2144V4.78414H102.048L103.555 1.41797H105.594V4.78414H109.136V7.79582H105.592V13.2234C105.592 13.7195 105.693 14.0788 105.891 14.3013C106.09 14.5237 106.403 14.5281 106.833 14.5281H109.313V17.8941H105.668Z" fill="#1F1F23"/>
<path d="M55.4642 8.90521L52.4465 4.78418H48.9092L53.6928 11.3899L48.9092 17.8942H52.4465L55.4642 13.8672L58.476 17.8942H62.0194L57.2358 11.4106L62.0194 4.78418H58.476L55.4642 8.90521Z" fill="#1F1F23"/>
<path fill-rule="evenodd" clip-rule="evenodd" d="M21.6157 1.41797H24.2225C25.886 1.41797 27.2344 2.76641 27.2344 4.42982V8.60518L28.8162 10.2251C29.4212 10.8446 29.4212 11.8337 28.8162 12.4531L27.2344 14.0731V18.6029C27.2344 20.0704 26.0445 21.2603 24.5767 21.2603H21.6157V18.7799H24.5767C24.6747 18.7799 24.7538 18.7007 24.7538 18.6029V13.7124C24.7538 13.296 24.9169 12.8963 25.2077 12.5984L26.2684 11.7552C26.5359 11.5423 26.5359 11.1359 26.2684 10.9231L25.2077 10.0799C24.9169 9.78215 24.7538 9.3823 24.7538 8.96588V4.42982C24.7538 4.13623 24.5161 3.89835 24.2225 3.89835H21.6157V1.41797Z" fill="#1F1F23"/>
<path fill-rule="evenodd" clip-rule="evenodd" d="M7.65434 21.2603H5.04735C3.38411 21.2603 2.03566 19.9119 2.03566 18.2484V14.0731L0.453692 12.4531C-0.151231 11.8337 -0.151231 10.8446 0.453692 10.2251L2.03566 8.60518V4.0755C2.03566 2.60787 3.22541 1.41797 4.69304 1.41797H7.65434V3.89835H4.69304C4.59523 3.89835 4.51588 3.9777 4.51588 4.0755V8.96588C4.51588 9.3823 4.35304 9.78215 4.0622 10.0799L3.00167 10.9231C2.73394 11.1359 2.73394 11.5423 3.00167 11.7552L4.0622 12.5984C4.35304 12.8963 4.51588 13.296 4.51588 13.7124V18.2484C4.51588 18.542 4.75393 18.7799 5.04735 18.7799H7.65434V21.2603Z" fill="#1F1F23"/>
<path d="M12.0959 8.49593L14.0139 2.94523C14.2292 2.32233 15.1184 2.32837 15.3249 2.95437L17.1505 8.48903C17.2143 8.68258 17.3612 8.838 17.5517 8.91321L22.0702 10.7007C22.641 10.9263 22.6539 11.7241 22.0909 11.968L17.5319 13.9431C17.3531 14.0206 17.2157 14.1693 17.1532 14.3528L15.323 19.7309C15.1127 20.3486 14.2354 20.3548 14.0161 19.7402L12.0929 14.3458C12.0291 14.1665 11.8932 14.0216 11.7177 13.9456L7.15322 11.968C6.59018 11.7241 6.60311 10.9263 7.17392 10.7007L11.6977 8.91114C11.8851 8.83696 12.0305 8.68534 12.0959 8.49593Z" fill="#1F1F23"/>
</svg>
