<svg width="163" height="15" viewBox="0 0 163 15" fill="none" xmlns="http://www.w3.org/2000/svg">
<path d="M1.37985e-05 12.6001V9.67979e-05H5.61601C6.27601 9.67979e-05 6.87001 0.156097 7.39801 0.468097C7.93801 0.768097 8.35801 1.1881 8.65801 1.7281C8.97001 2.2561 9.12601 2.8501 9.12601 3.5101C9.12601 4.1341 8.98801 4.6861 8.71201 5.1661C8.43601 5.6461 8.12401 5.9941 7.77601 6.2101V6.3001C8.17201 6.4921 8.52601 6.8401 8.83801 7.3441C9.15001 7.8361 9.30601 8.4181 9.30601 9.0901C9.30601 9.7501 9.15001 10.3501 8.83801 10.8901C8.53801 11.4181 8.11801 11.8381 7.57801 12.1501C7.05001 12.4501 6.45601 12.6001 5.79601 12.6001H1.37985e-05ZM5.49001 5.4721C5.97001 5.4721 6.37801 5.2921 6.71401 4.9321C7.06201 4.5721 7.23601 4.1281 7.23601 3.6001C7.23601 3.0601 7.06201 2.6101 6.71401 2.2501C6.37801 1.8901 5.97001 1.7101 5.49001 1.7101H1.89001V5.4721H5.49001ZM5.67001 10.8901C6.15001 10.8901 6.55801 10.7101 6.89401 10.3501C7.24201 9.9901 7.41601 9.5401 7.41601 9.0001C7.41601 8.4721 7.24201 8.0281 6.89401 7.6681C6.55801 7.3081 6.15001 7.1281 5.67001 7.1281H1.89001V10.8901H5.67001ZM15.4695 12.7801C14.6295 12.7801 13.8675 12.5821 13.1835 12.1861C12.4995 11.7781 11.9595 11.2201 11.5635 10.5121C11.1795 9.7921 10.9875 8.9761 10.9875 8.0641C10.9875 7.1641 11.1795 6.3601 11.5635 5.6521C11.9595 4.9321 12.4995 4.3741 13.1835 3.9781C13.8675 3.5701 14.6295 3.3661 15.4695 3.3661C16.3095 3.3661 17.0655 3.5701 17.7375 3.9781C18.4215 4.3741 18.9555 4.9321 19.3395 5.6521C19.7355 6.3601 19.9335 7.1641 19.9335 8.0641C19.9335 8.9761 19.7355 9.7921 19.3395 10.5121C18.9555 11.2201 18.4215 11.7781 17.7375 12.1861C17.0655 12.5821 16.3095 12.7801 15.4695 12.7801ZM15.4695 11.1241C15.9615 11.1241 16.4115 10.9981 16.8195 10.7461C17.2395 10.4941 17.5695 10.1341 17.8095 9.6661C18.0495 9.1981 18.1695 8.6641 18.1695 8.0641C18.1695 7.4641 18.0495 6.9361 17.8095 6.4801C17.5695 6.0121 17.2395 5.6521 16.8195 5.4001C16.4115 5.1481 15.9615 5.0221 15.4695 5.0221C14.9775 5.0221 14.5215 5.1481 14.1015 5.4001C13.6935 5.6521 13.3695 6.0121 13.1295 6.4801C12.8895 6.9361 12.7695 7.4641 12.7695 8.0641C12.7695 8.6641 12.8895 9.1981 13.1295 9.6661C13.3695 10.1341 13.6935 10.4941 14.1015 10.7461C14.5215 10.9981 14.9775 11.1241 15.4695 11.1241ZM25.8054 12.7801C24.9654 12.7801 24.2034 12.5821 23.5194 12.1861C22.8354 11.7781 22.2954 11.2201 21.8994 10.5121C21.5154 9.7921 21.3234 8.9761 21.3234 8.0641C21.3234 7.1641 21.5154 6.3601 21.8994 5.6521C22.2954 4.9321 22.8354 4.3741 23.5194 3.9781C24.2034 3.5701 24.9654 3.3661 25.8054 3.3661C26.8974 3.3661 27.8094 3.6721 28.5414 4.2841C29.2734 4.8961 29.7474 5.6821 29.9634 6.6421H28.1634C28.0074 6.1381 27.7254 5.7421 27.3174 5.4541C26.9094 5.1661 26.4054 5.0221 25.8054 5.0221C25.3134 5.0221 24.8634 5.1481 24.4554 5.4001C24.0474 5.6521 23.7234 6.0121 23.4834 6.4801C23.2434 6.9361 23.1234 7.4641 23.1234 8.0641C23.1234 8.6641 23.2434 9.1981 23.4834 9.6661C23.7234 10.1341 24.0474 10.4941 24.4554 10.7461C24.8634 10.9981 25.3134 11.1241 25.8054 11.1241C26.4054 11.1241 26.9094 10.9741 27.3174 10.6741C27.7254 10.3741 28.0074 9.9601 28.1634 9.4321H29.9634C29.7474 10.4161 29.2734 11.2201 28.5414 11.8441C27.8094 12.4681 26.8974 12.7801 25.8054 12.7801ZM35.2419 12.6001H33.4599V5.2021H30.4719V3.5461H38.2119V5.2021H35.2419V12.6001ZM43.2956 12.7801C42.4556 12.7801 41.6936 12.5821 41.0096 12.1861C40.3256 11.7781 39.7856 11.2201 39.3896 10.5121C39.0056 9.7921 38.8136 8.9761 38.8136 8.0641C38.8136 7.1641 39.0056 6.3601 39.3896 5.6521C39.7856 4.9321 40.3256 4.3741 41.0096 3.9781C41.6936 3.5701 42.4556 3.3661 43.2956 3.3661C44.1356 3.3661 44.8916 3.5701 45.5636 3.9781C46.2476 4.3741 46.7816 4.9321 47.1656 5.6521C47.5616 6.3601 47.7596 7.1641 47.7596 8.0641C47.7596 8.9761 47.5616 9.7921 47.1656 10.5121C46.7816 11.2201 46.2476 11.7781 45.5636 12.1861C44.8916 12.5821 44.1356 12.7801 43.2956 12.7801ZM43.2956 11.1241C43.7876 11.1241 44.2376 10.9981 44.6456 10.7461C45.0656 10.4941 45.3956 10.1341 45.6356 9.6661C45.8756 9.1981 45.9956 8.6641 45.9956 8.0641C45.9956 7.4641 45.8756 6.9361 45.6356 6.4801C45.3956 6.0121 45.0656 5.6521 44.6456 5.4001C44.2376 5.1481 43.7876 5.0221 43.2956 5.0221C42.8036 5.0221 42.3476 5.1481 41.9276 5.4001C41.5196 5.6521 41.1956 6.0121 40.9556 6.4801C40.7156 6.9361 40.5956 7.4641 40.5956 8.0641C40.5956 8.6641 40.7156 9.1981 40.9556 9.6661C41.1956 10.1341 41.5196 10.4941 41.9276 10.7461C42.3476 10.9981 42.8036 11.1241 43.2956 11.1241ZM51.4536 12.6001H49.6716V3.5461H51.4536V7.6861L55.1976 3.5461H57.3396L53.2896 7.9741L57.5196 12.6001H55.3776L51.4536 8.2801V12.6001ZM65.7536 12.6001H63.0176V9.67979e-05H64.9076V9.8461H65.2676L70.3976 9.67979e-05H73.1336V12.6001H71.2436V2.7541H70.8836L65.7536 12.6001ZM77.5044 12.6001H75.7224V3.5461H77.5044V7.2361H81.7344V3.5461H83.5164V12.6001H81.7344V8.9101H77.5044V12.6001ZM85.9352 12.6001V3.5461H90.8132C91.6052 3.5461 92.2412 3.7801 92.7212 4.2481C93.2012 4.7161 93.4412 5.3281 93.4412 6.0841C93.4412 6.5401 93.3272 6.9361 93.0992 7.2721C92.8832 7.5961 92.6372 7.8241 92.3612 7.9561V8.0461C92.6852 8.1781 92.9732 8.4181 93.2252 8.7661C93.4892 9.1141 93.6212 9.5401 93.6212 10.0441C93.6212 10.5241 93.5072 10.9621 93.2792 11.3581C93.0512 11.7421 92.7392 12.0481 92.3432 12.2761C91.9472 12.4921 91.4972 12.6001 90.9932 12.6001H85.9352ZM90.4532 7.3261C90.7892 7.3261 91.0712 7.2181 91.2992 7.0021C91.5272 6.7741 91.6412 6.4861 91.6412 6.1381C91.6412 5.7901 91.5272 5.5081 91.2992 5.2921C91.0712 5.0761 90.7892 4.9681 90.4532 4.9681H87.7172V7.3261H90.4532ZM90.6152 11.1781C90.9512 11.1781 91.2332 11.0641 91.4612 10.8361C91.7012 10.6081 91.8212 10.3141 91.8212 9.9541C91.8212 9.5941 91.7012 9.3001 91.4612 9.0721C91.2332 8.8441 90.9512 8.7301 90.6152 8.7301H87.7172V11.1781H90.6152ZM99.4929 12.7801C98.6529 12.7801 97.8909 12.5821 97.2069 12.1861C96.5229 11.7781 95.9829 11.2201 95.5869 10.5121C95.2029 9.7921 95.0109 8.9761 95.0109 8.0641C95.0109 7.1641 95.2029 6.3601 95.5869 5.6521C95.9829 4.9321 96.5229 4.3741 97.2069 3.9781C97.8909 3.5701 98.6529 3.3661 99.4929 3.3661C100.297 3.3661 101.023 3.5581 101.671 3.9421C102.331 4.3261 102.847 4.8541 103.219 5.5261C103.603 6.1981 103.795 6.9541 103.795 7.7941C103.795 8.2141 103.765 8.5321 103.705 8.7481H96.7929C96.8769 9.4801 97.1709 10.0801 97.6749 10.5481C98.1789 11.0041 98.7849 11.2321 99.4929 11.2321C99.9969 11.2321 100.441 11.1181 100.825 10.8901C101.209 10.6621 101.497 10.3681 101.689 10.0081H103.543C103.267 10.8121 102.781 11.4781 102.085 12.0061C101.389 12.5221 100.525 12.7801 99.4929 12.7801ZM102.031 7.3801C101.971 6.6601 101.707 6.0661 101.239 5.5981C100.771 5.1301 100.189 4.8961 99.4929 4.8961C98.7729 4.8961 98.1669 5.1301 97.6749 5.5981C97.1829 6.0661 96.8889 6.6601 96.7929 7.3801H102.031ZM109.671 12.7801C108.831 12.7801 108.069 12.5821 107.385 12.1861C106.701 11.7781 106.161 11.2201 105.765 10.5121C105.381 9.7921 105.189 8.9761 105.189 8.0641C105.189 7.1641 105.381 6.3601 105.765 5.6521C106.161 4.9321 106.701 4.3741 107.385 3.9781C108.069 3.5701 108.831 3.3661 109.671 3.3661C110.763 3.3661 111.675 3.6721 112.407 4.2841C113.139 4.8961 113.613 5.6821 113.829 6.6421H112.029C111.873 6.1381 111.591 5.7421 111.183 5.4541C110.775 5.1661 110.271 5.0221 109.671 5.0221C109.179 5.0221 108.729 5.1481 108.321 5.4001C107.913 5.6521 107.589 6.0121 107.349 6.4801C107.109 6.9361 106.989 7.4641 106.989 8.0641C106.989 8.6641 107.109 9.1981 107.349 9.6661C107.589 10.1341 107.913 10.4941 108.321 10.7461C108.729 10.9981 109.179 11.1241 109.671 11.1241C110.271 11.1241 110.775 10.9741 111.183 10.6741C111.591 10.3741 111.873 9.9601 112.029 9.4321H113.829C113.613 10.4161 113.139 11.2201 112.407 11.8441C111.675 12.4681 110.763 12.7801 109.671 12.7801ZM119.107 12.6001H117.325V5.2021H114.337V3.5461H122.077V5.2021H119.107V12.6001ZM126.18 12.6001H123.552V3.5461H125.316V10.1161H125.676L128.772 3.5461H131.382V12.6001H129.618V6.0301H129.258L126.18 12.6001ZM142.71 14.7601H140.928V12.6001H133.8V3.5461H135.582V10.9261H139.668V3.5461H141.45V10.9261H142.71V14.7601ZM146.887 12.6001H144.259V3.5461H146.023V10.1161H146.383L149.479 3.5461H152.089V12.6001H150.325V6.0301H149.965L146.887 12.6001ZM157.136 12.6001H154.508V3.5461H156.272V10.1161H156.632L159.728 3.5461H162.338V12.6001H160.574V6.0301H160.214L157.136 12.6001Z" fill="black"/>
</svg>
