<svg width="260" height="60" viewBox="0 0 260 60" fill="none" xmlns="http://www.w3.org/2000/svg">
<path d="M60.3561 21.2745L60.272 20.9039L39.8247 20.8617L35.0119 26.9742L41.8012 30.2393L60.3561 21.2745ZM43.7356 0.164191L43.4085 0L30.6149 16.0673L32.3018 23.5872L39.2125 20.3222L43.7356 0.164191ZM5.84076 47.2542L6.04636 47.5028L24.6013 38.5802L26.3302 31.1869H18.597L5.84076 47.2542ZM16.9522 0L16.6251 0.164191L21.1903 20.3222L28.0216 23.5872L29.7926 16.0673L16.9522 0ZM35.7128 38.5802L54.3097 47.5028L54.4733 47.2542L41.7171 31.1869H34.0213L35.7081 38.5802H35.7128ZM0.084107 20.8992L0 21.2698L18.5549 30.2346L25.3442 26.9696L20.5314 20.857L0.084107 20.8992ZM30.0355 59.151H30.3252L34.9324 39.0353L30.1617 33.0446L25.391 39.0353L30.0402 59.151H30.0355Z" fill="black"/>
<path d="M73.8506 23.6154V0H84.3763C85.6133 0 86.7266 0.292382 87.7162 0.877145C88.7283 1.43942 89.5155 2.2266 90.0778 3.23869C90.6625 4.22829 90.9549 5.34158 90.9549 6.57858C90.9549 7.74811 90.6963 8.78269 90.179 9.68232C89.6617 10.582 89.0769 11.2342 88.4247 11.639V11.8077C89.1669 12.1676 89.8304 12.8198 90.4151 13.7644C90.9999 14.6865 91.2923 15.7774 91.2923 17.0368C91.2923 18.2738 90.9999 19.3984 90.4151 20.4105C89.8528 21.4001 89.0657 22.1873 88.0536 22.772C87.064 23.3343 85.9507 23.6154 84.7137 23.6154H73.8506ZM84.1402 10.2558C85.0398 10.2558 85.8045 9.91848 86.4342 9.24375C87.0865 8.56903 87.4126 7.73686 87.4126 6.74726C87.4126 5.73518 87.0865 4.89177 86.4342 4.21704C85.8045 3.54231 85.0398 3.20495 84.1402 3.20495H77.3929V10.2558H84.1402ZM84.4775 20.4105C85.3772 20.4105 86.1419 20.0731 86.7716 19.3984C87.4238 18.7237 87.75 17.8802 87.75 16.8682C87.75 15.8786 87.4238 15.0464 86.7716 14.3717C86.1419 13.6969 85.3772 13.3596 84.4775 13.3596H77.3929V20.4105H84.4775Z" fill="black"/>
<path d="M102.844 23.9528C101.27 23.9528 99.8415 23.5817 98.5595 22.8395C97.2776 22.0748 96.2655 21.029 95.5233 19.702C94.8036 18.3526 94.4437 16.8232 94.4437 15.1139C94.4437 13.4271 94.8036 11.9202 95.5233 10.5932C96.2655 9.24375 97.2776 8.19793 98.5595 7.45573C99.8415 6.69104 101.27 6.30869 102.844 6.30869C104.418 6.30869 105.835 6.69104 107.095 7.45573C108.377 8.19793 109.378 9.24375 110.097 10.5932C110.84 11.9202 111.211 13.4271 111.211 15.1139C111.211 16.8232 110.84 18.3526 110.097 19.702C109.378 21.029 108.377 22.0748 107.095 22.8395C105.835 23.5817 104.418 23.9528 102.844 23.9528ZM102.844 20.849C103.766 20.849 104.61 20.6129 105.374 20.1406C106.161 19.6683 106.78 18.9935 107.23 18.1164C107.68 17.2393 107.905 16.2384 107.905 15.1139C107.905 13.9893 107.68 12.9997 107.23 12.1451C106.78 11.2679 106.161 10.5932 105.374 10.1209C104.61 9.64859 103.766 9.41243 102.844 9.41243C101.922 9.41243 101.067 9.64859 100.28 10.1209C99.5154 10.5932 98.9081 11.2679 98.4583 12.1451C98.0085 12.9997 97.7836 13.9893 97.7836 15.1139C97.7836 16.2384 98.0085 17.2393 98.4583 18.1164C98.9081 18.9935 99.5154 19.6683 100.28 20.1406C101.067 20.6129 101.922 20.849 102.844 20.849Z" fill="black"/>
<path d="M122.216 23.9528C120.642 23.9528 119.214 23.5817 117.932 22.8395C116.65 22.0748 115.638 21.029 114.895 19.702C114.176 18.3526 113.816 16.8232 113.816 15.1139C113.816 13.4271 114.176 11.9202 114.895 10.5932C115.638 9.24375 116.65 8.19793 117.932 7.45573C119.214 6.69104 120.642 6.30869 122.216 6.30869C124.263 6.30869 125.972 6.88221 127.344 8.02925C128.716 9.17628 129.604 10.6494 130.009 12.4487H126.636C126.343 11.5041 125.815 10.7619 125.05 10.2221C124.285 9.68232 123.341 9.41243 122.216 9.41243C121.294 9.41243 120.451 9.64859 119.686 10.1209C118.921 10.5932 118.314 11.2679 117.864 12.1451C117.414 12.9997 117.189 13.9893 117.189 15.1139C117.189 16.2384 117.414 17.2393 117.864 18.1164C118.314 18.9935 118.921 19.6683 119.686 20.1406C120.451 20.6129 121.294 20.849 122.216 20.849C123.341 20.849 124.285 20.5679 125.05 20.0056C125.815 19.4434 126.343 18.6674 126.636 17.6778H130.009C129.604 19.5221 128.716 21.029 127.344 22.1985C125.972 23.368 124.263 23.9528 122.216 23.9528Z" fill="black"/>
<path d="M139.902 23.6154H136.562V9.7498H130.962V6.64606H145.469V9.7498H139.902V23.6154Z" fill="black"/>
<path d="M154.997 23.9528C153.423 23.9528 151.994 23.5817 150.712 22.8395C149.43 22.0748 148.418 21.029 147.676 19.702C146.956 18.3526 146.597 16.8232 146.597 15.1139C146.597 13.4271 146.956 11.9202 147.676 10.5932C148.418 9.24375 149.43 8.19793 150.712 7.45573C151.994 6.69104 153.423 6.30869 154.997 6.30869C156.571 6.30869 157.988 6.69104 159.248 7.45573C160.53 8.19793 161.531 9.24375 162.25 10.5932C162.992 11.9202 163.364 13.4271 163.364 15.1139C163.364 16.8232 162.992 18.3526 162.25 19.702C161.531 21.029 160.53 22.0748 159.248 22.8395C157.988 23.5817 156.571 23.9528 154.997 23.9528ZM154.997 20.849C155.919 20.849 156.763 20.6129 157.527 20.1406C158.314 19.6683 158.933 18.9935 159.383 18.1164C159.833 17.2393 160.057 16.2384 160.057 15.1139C160.057 13.9893 159.833 12.9997 159.383 12.1451C158.933 11.2679 158.314 10.5932 157.527 10.1209C156.763 9.64859 155.919 9.41243 154.997 9.41243C154.075 9.41243 153.22 9.64859 152.433 10.1209C151.668 10.5932 151.061 11.2679 150.611 12.1451C150.161 12.9997 149.937 13.9893 149.937 15.1139C149.937 16.2384 150.161 17.2393 150.611 18.1164C151.061 18.9935 151.668 19.6683 152.433 20.1406C153.22 20.6129 154.075 20.849 154.997 20.849Z" fill="black"/>
<path d="M170.287 23.6154H166.947V6.64606H170.287V14.4054L177.304 6.64606H181.319L173.728 14.9452L181.656 23.6154H177.641L170.287 15.5187V23.6154Z" fill="black"/>
<path d="M78.9785 55.1026H73.8506V31.4872H77.3929V49.941H78.0676L87.6825 31.4872H92.8104V55.1026H89.2681V36.6489H88.5934L78.9785 55.1026Z" fill="black"/>
<path d="M101.002 55.1026H97.6624V38.1333H101.002V45.0492H108.93V38.1333H112.27V55.1026H108.93V48.1867H101.002V55.1026Z" fill="black"/>
<path d="M116.804 55.1026V38.1333H125.946C127.431 38.1333 128.623 38.5719 129.522 39.449C130.422 40.3261 130.872 41.4732 130.872 42.8901C130.872 43.7448 130.658 44.487 130.231 45.1167C129.826 45.724 129.365 46.1513 128.848 46.3987V46.5674C129.455 46.8148 129.995 47.2646 130.467 47.9168C130.962 48.5691 131.209 49.3675 131.209 50.3121C131.209 51.2117 130.996 52.0326 130.568 52.7748C130.141 53.4946 129.556 54.0681 128.814 54.4954C128.072 54.9002 127.228 55.1026 126.284 55.1026H116.804ZM125.272 45.2179C125.901 45.2179 126.43 45.0155 126.857 44.6107C127.285 44.1833 127.498 43.6435 127.498 42.9913C127.498 42.3391 127.285 41.8105 126.857 41.4057C126.43 41.0009 125.901 40.7985 125.272 40.7985H120.144V45.2179H125.272ZM125.575 52.4375C126.205 52.4375 126.733 52.2238 127.161 51.7965C127.611 51.3692 127.836 50.8181 127.836 50.1434C127.836 49.4687 127.611 48.9177 127.161 48.4903C126.733 48.063 126.205 47.8493 125.575 47.8493H120.144V52.4375H125.575Z" fill="black"/>
<path d="M142.214 55.44C140.64 55.44 139.212 55.0689 137.93 54.3267C136.648 53.562 135.635 52.5162 134.893 51.1892C134.174 49.8398 133.814 48.3104 133.814 46.6011C133.814 44.9143 134.174 43.4074 134.893 42.0804C135.635 40.731 136.648 39.6852 137.93 38.943C139.212 38.1783 140.64 37.7959 142.214 37.7959C143.721 37.7959 145.082 38.1558 146.296 38.8755C147.533 39.5952 148.5 40.5848 149.197 41.8443C149.917 43.1038 150.277 44.5207 150.277 46.0951C150.277 46.8822 150.221 47.4782 150.108 47.8831H137.154C137.311 49.255 137.862 50.3796 138.807 51.2567C139.751 52.1114 140.887 52.5387 142.214 52.5387C143.159 52.5387 143.991 52.325 144.711 51.8977C145.43 51.4704 145.97 50.9193 146.33 50.2446H149.805C149.287 51.7515 148.377 52.9998 147.072 53.9894C145.768 54.9565 144.148 55.44 142.214 55.44ZM146.971 45.3191C146.858 43.9697 146.364 42.8564 145.486 41.9792C144.609 41.1021 143.519 40.6635 142.214 40.6635C140.865 40.6635 139.729 41.1021 138.807 41.9792C137.885 42.8564 137.334 43.9697 137.154 45.3191H146.971Z" fill="black"/>
<path d="M161.29 55.44C159.715 55.44 158.287 55.0689 157.005 54.3267C155.723 53.562 154.711 52.5162 153.969 51.1892C153.249 49.8398 152.889 48.3104 152.889 46.6011C152.889 44.9143 153.249 43.4074 153.969 42.0804C154.711 40.731 155.723 39.6852 157.005 38.943C158.287 38.1783 159.715 37.7959 161.29 37.7959C163.336 37.7959 165.046 38.3694 166.418 39.5165C167.789 40.6635 168.678 42.1367 169.083 43.9359H165.709C165.417 42.9913 164.888 42.2491 164.123 41.7093C163.359 41.1696 162.414 40.8997 161.29 40.8997C160.367 40.8997 159.524 41.1358 158.759 41.6081C157.995 42.0804 157.387 42.7552 156.938 43.6323C156.488 44.487 156.263 45.4766 156.263 46.6011C156.263 47.7256 156.488 48.7265 156.938 49.6036C157.387 50.4808 157.995 51.1555 158.759 51.6278C159.524 52.1001 160.367 52.3363 161.29 52.3363C162.414 52.3363 163.359 52.0551 164.123 51.4929C164.888 50.9306 165.417 50.1547 165.709 49.1651H169.083C168.678 51.0093 167.789 52.5162 166.418 53.6857C165.046 54.8553 163.336 55.44 161.29 55.44Z" fill="black"/>
<path d="M178.976 55.1026H175.636V41.237H170.036V38.1333H184.542V41.237H178.976V55.1026Z" fill="black"/>
<path d="M192.233 55.1026H187.307V38.1333H190.614V50.447H191.288L197.091 38.1333H201.983V55.1026H198.677V42.7889H198.002L192.233 55.1026Z" fill="black"/>
<path d="M223.214 59.151H219.874V55.1026H206.515V38.1333H209.855V51.9652H217.513V38.1333H220.853V51.9652H223.214V59.151Z" fill="black"/>
<path d="M231.043 55.1026H226.117V38.1333H229.424V50.447H230.098L235.901 38.1333H240.793V55.1026H237.486V42.7889H236.812L231.043 55.1026Z" fill="black"/>
<path d="M250.25 55.1026H245.325V38.1333H248.631V50.447H249.306L255.108 38.1333H260V55.1026H256.694V42.7889H256.019L250.25 55.1026Z" fill="black"/>
</svg>
